<svg width="48" height="49" viewBox="0 0 48 49" fill="none" xmlns="http://www.w3.org/2000/svg">
<g clip-path="url(#clip0_205_3467)">
<path d="M46.3108 15.5988L46.3033 15.5744C46.2609 15.3892 46.1867 15.2129 46.0839 15.0531C46.0226 14.9475 45.9543 14.846 45.8796 14.7494L36.4914 4.20625C36.2229 3.96494 35.8958 3.79816 35.5427 3.7225C35.4129 3.6923 35.2803 3.67534 35.1471 3.67188H4.75145C3.02645 3.67188 1.62207 5.07625 1.62207 6.80125V32.3181C1.62207 34.0431 3.02645 35.4456 4.75145 35.4456H26.1002L24.1389 40.3113C24.086 40.4388 24.0695 40.5785 24.0912 40.7149C24.113 40.8512 24.1721 40.9789 24.2621 41.0836C24.3521 41.1884 24.4693 41.2661 24.6009 41.3082C24.7324 41.3502 24.873 41.355 25.0071 41.3219L28.5921 40.4819L30.5908 43.5719C30.6586 43.6775 30.7518 43.7644 30.8618 43.8247C30.9719 43.885 31.0953 43.9167 31.2208 43.9169L31.2921 43.9131C31.4288 43.8996 31.5593 43.849 31.6693 43.7667C31.7794 43.6844 31.8648 43.5736 31.9164 43.4463L33.7839 38.8094L35.6533 43.4463C35.705 43.5736 35.7904 43.6844 35.9005 43.7667C36.0105 43.849 36.141 43.8996 36.2777 43.9131L36.3489 43.9169C36.4745 43.917 36.5981 43.8855 36.7082 43.8252C36.8183 43.7649 36.9114 43.6777 36.9789 43.5719L38.9777 40.4819L42.5627 41.3219C42.6965 41.3535 42.8365 41.3478 42.9673 41.3053C43.0981 41.2627 43.2147 41.1851 43.3043 41.0807C43.3939 40.9764 43.4531 40.8494 43.4754 40.7137C43.4977 40.578 43.4823 40.4388 43.4308 40.3113L41.4696 35.4456H43.2471C44.0766 35.4451 44.872 35.1155 45.4587 34.5292C46.0454 33.9428 46.3755 33.1476 46.3764 32.3181L46.3614 15.9306C46.3552 15.8186 46.3383 15.7075 46.3108 15.5988ZM36.1314 6.03813L44.1227 15.025L36.1277 15.0381L36.1314 6.03813ZM26.8221 26.83C26.722 26.6394 26.6233 26.4482 26.5258 26.2563C26.5652 26.1419 26.8127 25.8606 26.9589 25.6938C27.2327 25.3844 27.4896 25.0919 27.6152 24.7619C27.7427 24.4263 27.7446 24.0363 27.7446 23.6219L27.7483 22.9769C27.8364 22.8963 28.1833 22.7631 28.3933 22.6825C28.7796 22.5363 29.1433 22.3956 29.4114 22.1594C29.6777 21.925 29.8577 21.58 30.0527 21.2163C30.1577 21.0194 30.3321 20.6875 30.4896 20.635C30.6677 20.635 30.8683 20.6613 31.0671 20.6819C31.3164 20.7138 31.5621 20.74 31.7702 20.74C31.9371 20.74 32.0796 20.7231 32.2071 20.6931C32.5521 20.6069 32.8708 20.3875 33.2121 20.155C33.3977 20.0275 33.7071 19.8138 33.7483 19.7894C33.8664 19.8156 34.1758 20.0275 34.3596 20.1531C34.6989 20.3875 35.0214 20.6069 35.3646 20.6931C35.6514 20.7606 36.0527 20.7363 36.5064 20.6838C36.7033 20.6594 36.9039 20.635 37.1477 20.6088C37.2396 20.6856 37.4139 21.0175 37.5171 21.2144C37.7121 21.5781 37.8921 21.925 38.1602 22.1613C38.4264 22.3956 38.7902 22.5344 39.1727 22.6806C39.3827 22.7613 39.7333 22.8944 39.7802 22.9169C39.8233 23.0294 39.8233 23.4025 39.8233 23.6238C39.8252 24.0381 39.8252 24.4281 39.9508 24.7581C40.0764 25.0919 40.3352 25.3844 40.6089 25.6938L41.0364 26.1813C41.0233 26.2994 40.8489 26.6331 40.7477 26.8319C40.5564 27.1975 40.3783 27.5425 40.3333 27.8931C40.2921 28.2456 40.3821 28.6263 40.4814 29.0256C40.5321 29.2431 40.6221 29.6069 40.6314 29.6556C40.5658 29.755 40.2583 29.9688 40.0727 30.0963C39.7333 30.3306 39.4127 30.5538 39.2102 30.8463C39.0114 31.1369 38.9177 31.5138 38.8183 31.9131C38.7639 32.1306 38.6739 32.4963 38.6589 32.5431C38.5521 32.6013 38.1808 32.6481 37.9596 32.6744C37.5489 32.725 37.1627 32.7738 36.8458 32.9406C36.5346 33.1056 36.2758 33.3944 36.0039 33.7019C35.8614 33.8613 35.6289 34.1238 35.5427 34.1838C35.3192 34.1357 35.1007 34.0667 34.8902 33.9775C34.1804 33.6875 33.3851 33.6882 32.6758 33.9794L32.0702 34.2044C31.9633 34.15 31.7158 33.8706 31.5639 33.7038C31.2902 33.3944 31.0314 33.1038 30.7164 32.9388C30.4033 32.7738 30.0171 32.7269 29.6064 32.6744L28.9633 32.5938C28.8939 32.4963 28.8039 32.1325 28.7496 31.9169C28.6502 31.5156 28.5546 31.1388 28.3521 30.8425C28.1514 30.5519 27.8327 30.3306 27.4933 30.0963C27.3096 29.9688 27.0002 29.755 26.9608 29.725C26.9439 29.6069 27.0339 29.2413 27.0864 29.0238C27.1839 28.6244 27.2758 28.2456 27.2327 27.8913C27.1933 27.5425 27.0133 27.1956 26.8221 26.83ZM31.0671 41.545L29.5652 39.2238C29.4814 39.0934 29.3592 38.9922 29.2155 38.9341C29.0718 38.876 28.9136 38.8639 28.7627 38.8994L26.0702 39.5313L28.3446 33.8913C28.6764 34.0356 29.0439 34.12 29.4246 34.1688C29.6271 34.195 29.9327 34.2325 30.0189 34.2719C30.1052 34.3225 30.3096 34.5531 30.4483 34.705C30.8083 35.1119 31.1852 35.5319 31.6783 35.6538C31.7364 35.6688 31.9408 35.6912 32.0008 35.6912C32.3983 35.6912 32.8089 35.5375 33.2064 35.3875C33.3302 35.3425 33.4764 35.29 33.6021 35.2506L31.0671 41.545ZM38.8089 38.8994C38.6581 38.8639 38.4999 38.876 38.3562 38.9341C38.2125 38.9922 38.0903 39.0934 38.0064 39.2238L36.5046 41.545L34.5921 36.8031L35.0721 35.6106C35.2389 35.6519 35.4039 35.6894 35.5671 35.6894C35.6271 35.6894 35.8296 35.6669 35.8877 35.6519C36.3864 35.5319 36.7614 35.11 37.1233 34.7013C37.2583 34.5494 37.4646 34.3188 37.5433 34.2719C37.6352 34.2306 37.9408 34.1913 38.1433 34.165C38.5258 34.1163 38.8933 34.0319 39.2233 33.8894L41.4977 39.5294L38.8089 38.8994ZM43.2489 33.9456H40.8677L40.2546 32.4231L40.2414 32.4044L40.2789 32.2806C40.3277 32.0819 40.4008 31.7819 40.4496 31.7031C40.5114 31.6244 40.7664 31.4463 40.9352 31.3319C41.3796 31.0206 41.8408 30.7 42.0227 30.2256C42.2046 29.7475 42.0714 29.2019 41.9421 28.6731C41.8952 28.4763 41.8221 28.1744 41.8258 28.0825C41.8446 27.9831 41.9871 27.7094 42.0808 27.5275C42.3339 27.0438 42.5927 26.5469 42.5308 26.0425C42.4708 25.5344 42.0996 25.1125 41.7377 24.7038C41.5984 24.5584 41.4722 24.4009 41.3608 24.2331C41.3289 24.1356 41.3289 23.8281 41.3289 23.6238C41.3271 23.08 41.3252 22.5175 41.0383 22.0994C40.7477 21.6775 40.2208 21.4769 39.7127 21.28C39.5222 21.2149 39.3372 21.1346 39.1596 21.04C39.0883 20.9688 38.9439 20.695 38.8483 20.515C38.5914 20.035 38.3308 19.5381 37.8752 19.3C37.5058 19.105 36.9564 19.1238 36.3321 19.1931C36.132 19.2211 35.9303 19.2355 35.7283 19.2363C35.5459 19.1452 35.3721 19.0379 35.2089 18.9156C34.7627 18.6081 34.2996 18.2894 33.7877 18.2894C33.2758 18.2894 32.8108 18.6081 32.3627 18.9156C32.1939 19.0319 31.9389 19.2063 31.7702 19.2381C31.6146 19.2381 31.4308 19.2138 31.2433 19.1931C30.6264 19.12 30.0658 19.105 29.6964 19.3C29.2446 19.5381 28.9821 20.035 28.7271 20.5131C28.6296 20.695 28.4852 20.9669 28.4196 21.0325C28.2402 21.1323 28.0518 21.2151 27.8571 21.28C27.3489 21.475 26.8258 21.6756 26.5389 22.0938C26.2502 22.5138 26.2483 23.0744 26.2464 23.6181C26.2464 23.8225 26.2464 24.1319 26.2164 24.2238C26.1752 24.3175 25.9708 24.5481 25.8358 24.7019C25.4777 25.1106 25.1046 25.5306 25.0427 26.0406C24.9827 26.545 25.2414 27.0419 25.4927 27.5238C25.5883 27.7056 25.7308 27.9813 25.7477 28.075C25.7552 28.1744 25.6821 28.4744 25.6333 28.6731C25.5039 29.2 25.3708 29.7475 25.5527 30.2238C25.7346 30.7019 26.1958 31.0225 26.6421 31.3319C26.8108 31.45 27.0658 31.6263 27.1202 31.6975C27.1727 31.7838 27.2477 32.0838 27.3002 32.2844L27.3321 32.3913L26.7058 33.9438H4.75145C4.32013 33.9438 3.90645 33.7725 3.60129 33.4677C3.29613 33.1629 3.12444 32.7494 3.12395 32.3181V6.80125C3.12494 6.36991 3.29672 5.95653 3.60172 5.65153C3.90672 5.34653 4.32011 5.17474 4.75145 5.17375L34.6314 5.17938L34.6258 15.7881C34.6263 15.9869 34.7055 16.1774 34.846 16.3179C34.9866 16.4585 35.1771 16.5376 35.3758 16.5381H35.3777L44.8652 16.5213L44.8764 32.3181C44.8755 32.7495 44.7037 33.1628 44.3987 33.4678C44.0937 33.7729 43.6803 33.9446 43.2489 33.9456Z" fill="#002147"/>
<path d="M28.7889 8.80469H7.01074C6.81183 8.80469 6.62106 8.8837 6.48041 9.02436C6.33976 9.16501 6.26074 9.35577 6.26074 9.55469C6.26074 9.7536 6.33976 9.94437 6.48041 10.085C6.62106 10.2257 6.81183 10.3047 7.01074 10.3047H28.787C28.9859 10.3049 29.1768 10.2262 29.3176 10.0857C29.4584 9.9452 29.5377 9.75454 29.5379 9.55562C29.5382 9.35671 29.4594 9.16585 29.3189 9.02502C29.1784 8.88419 28.9878 8.80494 28.7889 8.80469ZM28.7889 14.0847H7.01074C6.81183 14.0847 6.62106 14.1637 6.48041 14.3044C6.33976 14.445 6.26074 14.6358 6.26074 14.8347C6.26074 15.0336 6.33976 15.2244 6.48041 15.365C6.62106 15.5057 6.81183 15.5847 7.01074 15.5847H28.787C28.9859 15.5849 29.1768 15.5062 29.3176 15.3657C29.4584 15.2252 29.5377 15.0345 29.5379 14.8356C29.5382 14.6367 29.4594 14.4458 29.3189 14.305C29.1784 14.1642 28.9878 14.0849 28.7889 14.0847ZM22.787 19.3647H7.01074C6.81183 19.3647 6.62106 19.4437 6.48041 19.5844C6.33976 19.725 6.26074 19.9158 6.26074 20.1147C6.26074 20.3136 6.33976 20.5044 6.48041 20.645C6.62106 20.7857 6.81183 20.8647 7.01074 20.8647H22.7851C22.984 20.8649 23.1749 20.7862 23.3157 20.6457C23.4566 20.5052 23.5358 20.3145 23.5361 20.1156C23.5363 19.9167 23.4575 19.7258 23.317 19.585C23.1766 19.4442 22.9859 19.3649 22.787 19.3647ZM33.7857 31.4228C36.2289 31.4228 38.2145 29.4353 38.2145 26.9941C38.2145 24.5528 36.227 22.5653 33.7857 22.5653C31.3445 22.5653 29.357 24.5528 29.357 26.9941C29.357 29.4353 31.3426 31.4228 33.7857 31.4228ZM33.7857 24.0653C34.1826 24.0455 34.5793 24.1065 34.9518 24.2448C35.3243 24.3831 35.6648 24.5956 35.9526 24.8696C36.2404 25.1435 36.4695 25.4731 36.6259 25.8384C36.7824 26.2036 36.8629 26.5968 36.8627 26.9942C36.8624 27.3915 36.7814 27.7846 36.6245 28.1497C36.4676 28.5147 36.238 28.844 35.9499 29.1176C35.6617 29.3912 35.321 29.6033 34.9483 29.7411C34.5756 29.8789 34.1788 29.9394 33.782 29.9191C33.0314 29.8806 32.3243 29.5552 31.8068 29.0101C31.2893 28.465 31.001 27.742 31.0014 26.9904C31.0019 26.2388 31.2911 25.5161 31.8093 24.9717C32.3275 24.4273 33.0351 24.1028 33.7857 24.0653Z" fill="#002147"/>
</g>
<defs>
<clipPath id="clip0_205_3467">
<rect width="45" height="45" fill="white" transform="translate(1.5 1.28906)"/>
</clipPath>
</defs>
</svg>
