<svg width="46" height="45" viewBox="0 0 46 45" fill="none" xmlns="http://www.w3.org/2000/svg">
<path d="M30.3619 44.3398H10.6328C9.17655 44.3398 7.99609 43.1594 7.99609 41.7031V18.3392M18.4647 0.658203H38.2524C39.7087 0.658203 40.8892 1.83866 40.8892 3.29492V41.7031C40.8892 43.1594 39.7087 44.3398 38.2524 44.3398H33.4381M7.99609 5.02408V3.29492C7.99609 1.83866 9.17655 0.658203 10.6328 0.658203H15.3007" stroke="#002147" stroke-width="1.31836" stroke-miterlimit="10" stroke-linecap="round" stroke-linejoin="round"/>
<path d="M24.6072 18.035H6.20312C5.23229 18.035 4.44531 17.248 4.44531 16.2772V7.05176C4.44531 6.08092 5.23229 5.29395 6.20312 5.29395H24.6072C25.578 5.29395 26.365 6.08092 26.365 7.05176V16.2773C26.365 17.248 25.578 18.035 24.6072 18.035Z" stroke="#002147" stroke-width="1.31836" stroke-miterlimit="10" stroke-linecap="round" stroke-linejoin="round"/>
<path d="M11.8489 14.6582L14.0971 8.7552C14.1431 8.64287 14.3021 8.6427 14.3482 8.75493L16.576 14.6582M12.5501 13.188H15.8862M19.1545 8.67082L23.3664 14.6582M23.07 8.67082L18.8521 14.6582M7.44531 8.67082H10.7518M9.09194 8.86207V14.6582M29.8158 7.22168H37.4383M29.8158 10.5407H37.4383M29.8158 13.8597H37.4383M29.8158 17.1787H37.4383" stroke="#002147" stroke-width="1.31836" stroke-miterlimit="10" stroke-linecap="round" stroke-linejoin="round"/>
<path d="M29.1281 39.5502C33.7768 39.5502 37.5453 35.7817 37.5453 31.133C37.5453 26.4843 33.7768 22.7158 29.1281 22.7158C24.4794 22.7158 20.7109 26.4843 20.7109 31.133C20.7109 35.7817 24.4794 39.5502 29.1281 39.5502Z" stroke="#002147" stroke-width="1.31836" stroke-miterlimit="10" stroke-linecap="round" stroke-linejoin="round"/>
<path d="M26.3179 30.1826C27.1363 30.1826 27.7998 29.5191 27.7998 28.7007C27.7998 27.8822 27.1363 27.2188 26.3179 27.2188C25.4994 27.2188 24.8359 27.8822 24.8359 28.7007C24.8359 29.5191 25.4994 30.1826 26.3179 30.1826Z" stroke="#002147" stroke-width="1.31836" stroke-miterlimit="10" stroke-linecap="round" stroke-linejoin="round"/>
<path d="M31.939 35.0469C32.7574 35.0469 33.4209 34.3834 33.4209 33.5649C33.4209 32.7465 32.7574 32.083 31.939 32.083C31.1205 32.083 30.457 32.7465 30.457 33.5649C30.457 34.3834 31.1205 35.0469 31.939 35.0469Z" stroke="#002147" stroke-width="1.31836" stroke-miterlimit="10" stroke-linecap="round" stroke-linejoin="round"/>
<path d="M26.8431 33.8237L31.3765 28.5841M11.3359 22.7158H21.3667M11.3359 25.9686H19.2608M11.3359 29.2213H17.4233M11.3359 32.4741H17.4233M11.3359 35.7268H19.2608M11.3359 38.9795H21.3667" stroke="#002147" stroke-width="1.31836" stroke-miterlimit="10" stroke-linecap="round" stroke-linejoin="round"/>
</svg>
