<svg width="73" height="73" viewBox="0 0 73 73" fill="none" xmlns="http://www.w3.org/2000/svg">
<rect x="0.384766" y="0.467773" width="72" height="72" rx="36" fill="white" fill-opacity="0.07"/>
<path fill-rule="evenodd" clip-rule="evenodd" d="M38.779 23.1195C37.6573 21.4029 35.1106 21.4029 33.989 23.1195L28.3223 31.7862L23.9923 29.3312C21.8223 28.1012 19.214 30.0279 19.8006 32.4245L22.744 44.4262C22.81 44.6905 22.9629 44.925 23.178 45.0921C23.3932 45.2592 23.6582 45.3493 23.9306 45.3479H48.8373C49.1097 45.3493 49.3748 45.2592 49.5899 45.0921C49.8051 44.925 49.9579 44.6905 50.024 44.4262L52.9656 32.4262C53.554 30.0262 50.9456 28.1012 48.7756 29.3312L44.4456 31.7845L38.779 23.1195ZM36.7256 24.4229C36.6882 24.3665 36.6375 24.3202 36.5779 24.2882C36.5182 24.2562 36.4516 24.2395 36.384 24.2395C36.3163 24.2395 36.2497 24.2562 36.1901 24.2882C36.1305 24.3202 36.0797 24.3665 36.0423 24.4229L29.7473 34.0512C29.5749 34.3112 29.3103 34.4961 29.0069 34.5688C28.7035 34.6415 28.3838 34.5965 28.1123 34.4429L22.774 31.4195C22.464 31.2445 22.0906 31.5195 22.1756 31.8612L24.8923 42.9429H47.8757L50.5923 31.8612C50.6756 31.5195 50.304 31.2445 49.9923 31.4195L44.6556 34.4429C44.3843 34.596 44.065 34.6407 43.762 34.568C43.459 34.4954 43.1947 34.3107 43.0223 34.0512L36.7256 24.4229Z" fill="white"/>
<path d="M24.9834 47.7559C24.824 47.7548 24.6661 47.7851 24.5184 47.8451C24.3708 47.905 24.2364 47.9935 24.123 48.1054C24.0095 48.2173 23.9192 48.3504 23.8573 48.4972C23.7953 48.644 23.7628 48.8015 23.7617 48.9609C23.7617 49.6259 24.3101 50.1642 24.9834 50.1642H47.7834C48.1049 50.1664 48.4141 50.041 48.6432 49.8153C48.8723 49.5897 49.0024 49.2824 49.0051 48.9609C49.004 48.8015 48.9715 48.644 48.9095 48.4972C48.8475 48.3504 48.7572 48.2173 48.6438 48.1054C48.5304 47.9935 48.396 47.905 48.2483 47.8451C48.1007 47.7851 47.9427 47.7548 47.7834 47.7559H24.9834Z" fill="white"/>
</svg>
