<svg width="46" height="46" viewBox="0 0 46 46" fill="none" xmlns="http://www.w3.org/2000/svg">
<path d="M37.321 44.2863H9.34805C9.02549 44.2863 8.71614 44.1582 8.48806 43.9301C8.25997 43.702 8.13184 43.3927 8.13184 43.0701V2.93497C8.13184 2.61241 8.25997 2.30306 8.48806 2.07497C8.71614 1.84689 9.02549 1.71875 9.34805 1.71875H37.321C37.6436 1.71875 37.9529 1.84689 38.181 2.07497C38.4091 2.30306 38.5372 2.61241 38.5372 2.93497V43.0701C38.5372 43.3927 38.4091 43.702 38.181 43.9301C37.9529 44.1582 37.6436 44.2863 37.321 44.2863ZM9.34805 2.93497V43.0701H37.321V2.93497H9.34805Z" fill="#002147"/>
<path d="M16.6937 20.6178H16.6451C16.558 20.6115 16.4732 20.5865 16.3966 20.5446C16.32 20.5026 16.2534 20.4446 16.2012 20.3745C15.1288 18.9199 14.5531 17.1588 14.5593 15.3516C14.5697 13.3234 15.2998 11.3647 16.6195 9.82453C17.9391 8.28434 19.7627 7.26264 21.7654 6.94144C21.853 6.92723 21.9426 6.93237 22.028 6.9565C22.1134 6.98063 22.1925 7.02316 22.2598 7.08111C22.327 7.13907 22.3807 7.21103 22.4172 7.29195C22.4536 7.37288 22.4719 7.4608 22.4708 7.54954V14.8468C22.4704 14.9273 22.4541 15.0069 22.4228 15.081C22.3915 15.1551 22.3458 15.2223 22.2883 15.2786L17.1255 20.4354C17.0692 20.4928 17.002 20.5385 16.9279 20.5698C16.8538 20.6012 16.7742 20.6175 16.6937 20.6178ZM21.2545 8.28536C19.6927 8.69823 18.3103 9.61407 17.321 10.8913C16.3317 12.1685 15.7907 13.7361 15.7816 15.3516C15.777 16.6546 16.1259 17.9345 16.791 19.055L21.2545 14.6036V8.28536ZM23.0789 23.8651C21.2717 23.8713 19.5105 23.2956 18.0559 22.2232C17.9858 22.171 17.9279 22.1043 17.8859 22.0277C17.8439 21.9511 17.8189 21.8664 17.8127 21.7793C17.8063 21.6922 17.8187 21.6047 17.8491 21.5229C17.8796 21.441 17.9273 21.3667 17.989 21.3049L23.1458 16.1421C23.258 16.0275 23.411 15.962 23.5714 15.9597H30.8687C30.9575 15.9585 31.0454 15.9768 31.1263 16.0133C31.2073 16.0497 31.2792 16.1035 31.3372 16.1707C31.3951 16.2379 31.4377 16.317 31.4618 16.4024C31.4859 16.4878 31.4911 16.5775 31.4768 16.6651C31.1547 18.6646 30.1342 20.4851 28.5967 21.8033C27.0591 23.1215 25.1041 23.852 23.0789 23.8651ZM19.3755 21.6394C20.496 22.3045 21.7758 22.6534 23.0789 22.6489C24.6944 22.6397 26.2619 22.0987 27.5391 21.1094C28.8164 20.1202 29.7322 18.7378 30.1451 17.1759H23.8268L19.3755 21.6394ZM30.887 14.7435H24.2951C24.1338 14.7435 23.9791 14.6794 23.8651 14.5654C23.751 14.4513 23.687 14.2966 23.687 14.1354V7.54346C23.6862 7.4561 23.7043 7.36959 23.74 7.28984C23.7757 7.21009 23.8281 7.13896 23.8937 7.0813C23.9607 7.02357 24.0395 6.98115 24.1246 6.957C24.2097 6.93284 24.299 6.92753 24.3863 6.94144C26.1734 7.21193 27.827 8.04735 29.105 9.32541C30.3831 10.6035 31.2185 12.2571 31.489 14.0441C31.5029 14.1315 31.4976 14.2208 31.4734 14.3059C31.4493 14.3909 31.4069 14.4697 31.3491 14.5367C31.2915 14.6023 31.2204 14.6548 31.1406 14.6905C31.0608 14.7261 30.9743 14.7442 30.887 14.7435ZM24.9032 13.5272H30.1451C29.81 12.2695 29.1489 11.1224 28.2285 10.202C27.308 9.28157 26.161 8.62043 24.9032 8.28536V13.5272ZM33.3681 29.3381H13.3005C13.1392 29.3381 12.9845 29.274 12.8705 29.1599C12.7565 29.0459 12.6924 28.8912 12.6924 28.7299C12.6924 28.5687 12.7565 28.414 12.8705 28.3C12.9845 28.1859 13.1392 28.1218 13.3005 28.1218H33.3681C33.5293 28.1218 33.684 28.1859 33.7981 28.3C33.9121 28.414 33.9762 28.5687 33.9762 28.7299C33.9762 28.8912 33.9121 29.0459 33.7981 29.1599C33.684 29.274 33.5293 29.3381 33.3681 29.3381ZM33.3681 34.2029H13.3005C13.1392 34.2029 12.9845 34.1389 12.8705 34.0248C12.7565 33.9108 12.6924 33.7561 12.6924 33.5948C12.6924 33.4335 12.7565 33.2789 12.8705 33.1648C12.9845 33.0508 13.1392 32.9867 13.3005 32.9867H33.3681C33.5293 32.9867 33.684 33.0508 33.7981 33.1648C33.9121 33.2789 33.9762 33.4335 33.9762 33.5948C33.9762 33.7561 33.9121 33.9108 33.7981 34.0248C33.684 34.1389 33.5293 34.2029 33.3681 34.2029ZM33.3681 39.0678H13.3005C13.1392 39.0678 12.9845 39.0037 12.8705 38.8897C12.7565 38.7756 12.6924 38.621 12.6924 38.4597C12.6924 38.2984 12.7565 38.1437 12.8705 38.0297C12.9845 37.9156 13.1392 37.8516 13.3005 37.8516H33.3681C33.5293 37.8516 33.684 37.9156 33.7981 38.0297C33.9121 38.1437 33.9762 38.2984 33.9762 38.4597C33.9762 38.621 33.9121 38.7756 33.7981 38.8897C33.684 39.0037 33.5293 39.0678 33.3681 39.0678Z" fill="#002147"/>
</svg>
