<svg width="46" height="46" viewBox="0 0 46 46" fill="none" xmlns="http://www.w3.org/2000/svg">
<path d="M4.24316 36.7831C4.24316 34.5725 4.24316 33.4672 5.06725 32.7805C5.89133 32.0938 7.21768 32.0938 9.87036 32.0938C12.523 32.0938 13.8494 32.0938 14.6735 32.7805C15.4976 33.4672 15.4976 34.5725 15.4976 36.7831C15.4976 38.9937 15.4976 40.0989 14.6735 40.7857C13.8494 41.4724 12.523 41.4724 9.87036 41.4724C7.21768 41.4724 5.89133 41.4724 5.06725 40.7857C4.24316 40.0989 4.24316 38.9937 4.24316 36.7831Z" stroke="#002147" stroke-width="2.25088"/>
<path d="M30.5039 36.7831C30.5039 34.5725 30.5039 33.4672 31.328 32.7805C32.1521 32.0938 33.4784 32.0938 36.1311 32.0938C38.7838 32.0938 40.1101 32.0938 40.9342 32.7805C41.7583 33.4672 41.7583 34.5725 41.7583 36.7831C41.7583 38.9937 41.7583 40.0989 40.9342 40.7857C40.1101 41.4724 38.7838 41.4724 36.1311 41.4724C33.4784 41.4724 32.1521 41.4724 31.328 40.7857C30.5039 40.0989 30.5039 38.9937 30.5039 36.7831Z" stroke="#002147" stroke-width="2.25088"/>
<path d="M36.1304 32.0959C36.1304 27.4404 34.7352 26.4687 28.0503 26.4687H17.9502C11.2653 26.4688 9.87012 27.4404 9.87012 32.0959" stroke="#002147" stroke-width="2.25088" stroke-linecap="round" stroke-linejoin="round"/>
<path d="M23.0004 12.4017L24.8761 9.58814M31.4412 12.4017C31.4412 17.0635 27.6621 20.8425 23.0004 20.8425C18.3386 20.8425 14.5596 17.0635 14.5596 12.4017C14.5596 7.74001 18.3386 3.96094 23.0004 3.96094C27.6621 3.96094 31.4412 7.74001 31.4412 12.4017Z" stroke="#002147" stroke-width="2.25088" stroke-linecap="round"/>
</svg>
