<svg width="72" height="73" viewBox="0 0 72 73" fill="none" xmlns="http://www.w3.org/2000/svg">
<g clip-path="url(#clip0_1067_1204)">
<rect y="0.292969" width="72" height="72" rx="36" fill="white" fill-opacity="0.07"/>
<g clip-path="url(#clip1_1067_1204)">
<path d="M43.3958 22.7539C43.3958 22.5771 43.3256 22.4075 43.2006 22.2825C43.0755 22.1575 42.906 22.0872 42.7292 22.0872H24.084C23.7164 22.0872 23.4173 21.7882 23.4173 21.4206V16.7539C23.4173 16.3863 23.7164 16.0872 24.084 16.0872H43.4173C43.7849 16.0872 44.084 16.3863 44.084 16.7539V20.0335C44.084 20.2103 44.1542 20.3799 44.2792 20.5049C44.4043 20.6299 44.5738 20.7002 44.7507 20.7002C44.9275 20.7002 45.097 20.6299 45.2221 20.5049C45.3471 20.3799 45.4173 20.2103 45.4173 20.0335V16.7539C45.4173 15.6512 44.5201 14.7539 43.4173 14.7539H24.084C22.9812 14.7539 22.084 15.6512 22.084 16.7539V21.4206C22.084 22.5233 22.9812 23.4206 24.084 23.4206H42.7292C42.906 23.4206 43.0755 23.3503 43.2006 23.2253C43.3256 23.1003 43.3958 22.9307 43.3958 22.7539ZM28.5007 27.5137C28.5007 26.5433 27.7112 25.7539 26.7409 25.7539H23.8437C22.8734 25.7539 22.084 26.5433 22.084 27.5137V29.5775C22.084 30.5478 22.8734 31.3372 23.8437 31.3372H26.7409C27.7112 31.3372 28.5007 30.5478 28.5007 29.5775V27.5137ZM27.1673 29.5775C27.1672 29.6905 27.1222 29.7989 27.0423 29.8789C26.9624 29.9588 26.854 30.0038 26.7409 30.0039H23.8437C23.7307 30.0038 23.6223 29.9588 23.5423 29.8789C23.4624 29.7989 23.4174 29.6905 23.4173 29.5775V27.5137C23.4174 27.4006 23.4624 27.2922 23.5423 27.2123C23.6223 27.1323 23.7307 27.0874 23.8437 27.0872H26.7409C26.854 27.0874 26.9624 27.1323 27.0423 27.2123C27.1222 27.2922 27.1672 27.4006 27.1673 27.5137V29.5775ZM36.9173 27.5137C36.9173 26.5433 36.1279 25.7539 35.1576 25.7539H32.2604C31.2901 25.7539 30.5007 26.5433 30.5007 27.5137V29.5775C30.5007 30.5478 31.2901 31.3372 32.2604 31.3372H35.1576C36.1279 31.3372 36.9173 30.5478 36.9173 29.5775V27.5137ZM35.584 29.5775C35.5839 29.6905 35.5389 29.7989 35.459 29.8789C35.379 29.9588 35.2706 30.0038 35.1576 30.0039H32.2604C32.1473 30.0038 32.0389 29.9588 31.959 29.8789C31.8791 29.7989 31.8341 29.6905 31.834 29.5775V27.5137C31.8341 27.4006 31.8791 27.2922 31.959 27.2123C32.0389 27.1323 32.1473 27.0874 32.2604 27.0872H35.1576C35.2706 27.0874 35.379 27.1323 35.459 27.2123C35.5389 27.2922 35.5839 27.4006 35.584 27.5137V29.5775ZM43.6576 25.7539H40.7604C39.7901 25.7539 39.0007 26.5433 39.0007 27.5137V29.5775C39.0007 30.5478 39.7901 31.3372 40.7604 31.3372H43.6576C44.628 31.3372 45.4173 30.5478 45.4173 29.5775V27.5137C45.4173 26.5433 44.6279 25.7539 43.6576 25.7539ZM44.084 29.5775C44.0839 29.6905 44.0389 29.7989 43.9589 29.8789C43.879 29.9588 43.7706 30.0038 43.6576 30.0039H40.7604C40.6474 30.0038 40.539 29.9588 40.459 29.8789C40.3791 29.7989 40.3341 29.6905 40.334 29.5775V27.5137C40.3341 27.4006 40.3791 27.2922 40.459 27.2123C40.539 27.1323 40.6474 27.0874 40.7604 27.0872H43.6576C43.7706 27.0874 43.879 27.1323 43.9589 27.2123C44.0389 27.2922 44.0839 27.4006 44.084 27.5137V29.5775ZM28.5007 35.5137C28.5007 34.5433 27.7112 33.7539 26.7409 33.7539H23.8437C22.8734 33.7539 22.084 34.5433 22.084 35.5137V37.5775C22.084 38.5478 22.8734 39.3372 23.8437 39.3372H26.7409C27.7112 39.3372 28.5007 38.5478 28.5007 37.5775V35.5137ZM27.1673 37.5775C27.1672 37.6905 27.1222 37.7989 27.0423 37.8789C26.9624 37.9588 26.854 38.0038 26.7409 38.0039H23.8437C23.7307 38.0038 23.6223 37.9588 23.5423 37.8789C23.4624 37.7989 23.4174 37.6905 23.4173 37.5775V35.5137C23.4174 35.4006 23.4624 35.2922 23.5423 35.2123C23.6223 35.1323 23.7307 35.0874 23.8437 35.0872H26.7409C26.854 35.0874 26.9624 35.1323 27.0423 35.2123C27.1222 35.2922 27.1672 35.4006 27.1673 35.5137V37.5775ZM36.9173 35.5137C36.9173 34.5433 36.1279 33.7539 35.1576 33.7539H32.2604C31.2901 33.7539 30.5007 34.5433 30.5007 35.5137V37.5775C30.5007 38.5478 31.2901 39.3372 32.2604 39.3372H35.1576C36.1279 39.3372 36.9173 38.5478 36.9173 37.5775V35.5137ZM35.584 37.5775C35.5839 37.6905 35.5389 37.7989 35.459 37.8789C35.379 37.9588 35.2706 38.0038 35.1576 38.0039H32.2604C32.1473 38.0038 32.0389 37.9588 31.959 37.8789C31.8791 37.7989 31.8341 37.6905 31.834 37.5775V35.5137C31.8341 35.4006 31.8791 35.2922 31.959 35.2123C32.0389 35.1323 32.1473 35.0874 32.2604 35.0872H35.1576C35.2706 35.0874 35.379 35.1323 35.459 35.2123C35.5389 35.2922 35.5839 35.4006 35.584 35.5137V37.5775ZM26.7409 41.7539H23.8437C22.8734 41.7539 22.084 42.5433 22.084 43.5137V45.5775C22.084 46.5478 22.8734 47.3372 23.8437 47.3372H26.7409C27.7112 47.3372 28.5007 46.5478 28.5007 45.5775V43.5137C28.5007 42.5433 27.7112 41.7539 26.7409 41.7539ZM27.1673 45.5775C27.1672 45.6905 27.1222 45.7989 27.0423 45.8789C26.9624 45.9588 26.854 46.0038 26.7409 46.0039H23.8437C23.7307 46.0038 23.6223 45.9588 23.5423 45.8789C23.4624 45.7989 23.4174 45.6905 23.4173 45.5775V43.5137C23.4174 43.4006 23.4624 43.2922 23.5423 43.2123C23.6223 43.1323 23.7307 43.0874 23.8437 43.0872H26.7409C26.854 43.0874 26.9624 43.1323 27.0423 43.2123C27.1222 43.2922 27.1672 43.4006 27.1673 43.5137V45.5775ZM35.1576 41.7539H32.2604C31.2901 41.7539 30.5007 42.5433 30.5007 43.5137V45.5775C30.5007 46.5478 31.2901 47.3372 32.2604 47.3372H35.1576C36.1279 47.3372 36.9173 46.5478 36.9173 45.5775V43.5137C36.9173 42.5433 36.1279 41.7539 35.1576 41.7539ZM35.584 45.5775C35.5839 45.6905 35.5389 45.7989 35.459 45.8789C35.379 45.9588 35.2706 46.0038 35.1576 46.0039H32.2604C32.1473 46.0038 32.0389 45.9588 31.959 45.8789C31.8791 45.7989 31.8341 45.6905 31.834 45.5775V43.5137C31.8341 43.4006 31.8791 43.2922 31.959 43.2123C32.0389 43.1323 32.1473 43.0874 32.2604 43.0872H35.1576C35.2706 43.0874 35.379 43.1323 35.459 43.2123C35.5389 43.2922 35.5839 43.4006 35.584 43.5137V45.5775ZM49.1673 36.2539C49.1673 36.0771 49.0971 35.9075 48.9721 35.7825C48.847 35.6575 48.6775 35.5872 48.5007 35.5872C48.3238 35.5872 48.1543 35.6575 48.0292 35.7825C47.9042 35.9075 47.834 36.0771 47.834 36.2539V37.0918C46.4161 37.344 45.3502 38.3827 45.3502 39.6226C45.3502 41.5809 47.0937 41.938 48.3669 42.1987C49.8546 42.5033 50.3177 42.7182 50.3177 43.4685C50.3177 44.1495 49.4857 44.7248 48.5006 44.7248C47.8277 44.7248 47.2101 44.4617 46.8886 44.0383C46.7814 43.8983 46.6231 43.8064 46.4483 43.7829C46.2736 43.7593 46.0966 43.8059 45.9561 43.9126C45.8157 44.0192 45.7232 44.1771 45.6989 44.3518C45.6746 44.5264 45.7205 44.7036 45.8266 44.8445C46.2839 45.4469 47.0072 45.8557 47.8339 45.9998V46.8372C47.8339 47.0141 47.9041 47.1836 48.0292 47.3086C48.1542 47.4337 48.3238 47.5039 48.5006 47.5039C48.6774 47.5039 48.847 47.4337 48.972 47.3086C49.097 47.1836 49.1672 47.0141 49.1672 46.8372V45.9993C50.5852 45.7472 51.6511 44.7085 51.6511 43.4686C51.6511 41.5102 49.9075 41.1532 48.6343 40.8925C47.1467 40.5878 46.6835 40.373 46.6835 39.6227C46.6835 38.9417 47.5156 38.3663 48.5007 38.3663C49.1735 38.3663 49.7912 38.6294 50.1127 39.0528C50.2198 39.1929 50.3781 39.2847 50.5529 39.3083C50.7277 39.3318 50.9047 39.2852 51.0451 39.1786C51.1856 39.072 51.2781 38.914 51.3023 38.7394C51.3266 38.5647 51.2807 38.3875 51.1747 38.2467C50.7173 37.6442 49.9941 37.2354 49.1673 37.0913V36.2539Z" fill="white"/>
<path d="M52.7676 33.0142C52.6894 32.9749 52.6042 32.9513 52.5169 32.9448C52.4296 32.9383 52.3419 32.9491 52.2587 32.9766C52.1756 33.004 52.0987 33.0476 52.0324 33.1048C51.9661 33.1619 51.9117 33.2316 51.8723 33.3098C51.8329 33.388 51.8093 33.4732 51.8029 33.5605C51.7964 33.6478 51.8072 33.7355 51.8346 33.8186C51.8621 33.9018 51.9056 33.9787 51.9628 34.045C52.02 34.1113 52.0896 34.1657 52.1678 34.2051C54.9428 35.6026 56.6667 38.3993 56.6667 41.5039C56.6667 46.0071 53.0031 49.6706 48.5 49.6706C43.9969 49.6706 40.3333 46.0071 40.3333 41.5039C40.3333 37.0007 43.9969 33.3372 48.5 33.3372C48.7828 33.3372 48.9561 33.3789 49.1727 33.2502C49.2687 33.1934 49.3489 33.1133 49.4059 33.0175C49.463 32.9216 49.4952 32.813 49.4995 32.7015C49.5002 32.6809 49.5 14.3795 49.5 14.3372C49.5 12.4992 48.0047 11.0039 46.1667 11.0039H21.3333C19.4953 11.0039 18 12.4992 18 14.3372V47.6706C18 49.5086 19.4953 51.0039 21.3333 51.0039H40.1264C40.3032 51.0039 40.4728 50.9337 40.5978 50.8086C40.7228 50.6836 40.7931 50.5141 40.7931 50.3372C40.7931 50.1604 40.7228 49.9909 40.5978 49.8658C40.4728 49.7408 40.3032 49.6706 40.1264 49.6706H21.3333C20.2306 49.6706 19.3333 48.7733 19.3333 47.6706V14.3372C19.3333 13.2345 20.2306 12.3372 21.3333 12.3372H46.1667C47.2694 12.3372 48.1667 13.2345 48.1667 14.3372V32.0104C43.0822 32.1867 39 36.3772 39 41.5039C39 46.7422 43.2618 51.0039 48.5 51.0039C53.7383 51.0039 58 46.7422 58 41.5039C58 37.8927 55.995 34.6396 52.7676 33.0142Z" fill="white"/>
<path d="M41.3333 21.0033C41.5101 21.0033 41.6797 20.933 41.8047 20.808C41.9298 20.683 42 20.5134 42 20.3366V17.8366C42 17.6598 41.9298 17.4902 41.8047 17.3652C41.6797 17.2402 41.5101 17.1699 41.3333 17.1699H40.6667C40.4899 17.1699 40.3203 17.2402 40.1953 17.3652C40.0702 17.4902 40 17.6598 40 17.8366C40 18.0134 40.0702 18.183 40.1953 18.308C40.3203 18.433 40.4899 18.5033 40.6667 18.5033V20.3366C40.6667 20.5134 40.7369 20.683 40.8619 20.808C40.987 20.933 41.1565 21.0033 41.3333 21.0033Z" fill="white"/>
</g>
</g>
<defs>
<clipPath id="clip0_1067_1204">
<rect width="72" height="72" fill="white" transform="translate(0 0.292969)"/>
</clipPath>
<clipPath id="clip1_1067_1204">
<rect width="40" height="40" fill="white" transform="translate(18 11.0039)"/>
</clipPath>
</defs>
</svg>
