<svg width="73" height="73" viewBox="0 0 73 73" fill="none" xmlns="http://www.w3.org/2000/svg">
<rect x="0.537109" y="0.467773" width="72" height="72" rx="36" fill="white" fill-opacity="0.07"/>
<g clip-path="url(#clip0_1058_677)">
<path d="M42.7345 39.9089C42.7037 39.8781 42.6672 39.8537 42.627 39.837C42.5868 39.8204 42.5437 39.8118 42.5002 39.8118C42.4567 39.8118 42.4136 39.8204 42.3734 39.837C42.3332 39.8537 42.2967 39.8781 42.266 39.9089C42.2352 39.9396 42.2108 39.9762 42.1941 40.0163C42.1775 40.0565 42.1689 40.0996 42.1689 40.1431C42.1689 40.1866 42.1775 40.2297 42.1941 40.2699C42.2108 40.3101 42.2352 40.3466 42.266 40.3774L42.892 41.0035C42.9227 41.0343 42.9593 41.0587 42.9994 41.0753C43.0396 41.092 43.0827 41.1006 43.1262 41.1006C43.1697 41.1006 43.2128 41.092 43.253 41.0753C43.2932 41.0587 43.3297 41.0343 43.3605 41.0035C43.3912 40.9727 43.4156 40.9362 43.4323 40.896C43.449 40.8558 43.4575 40.8128 43.4575 40.7693C43.4575 40.7258 43.449 40.6827 43.4323 40.6425C43.4156 40.6023 43.3912 40.5658 43.3605 40.535L42.7345 39.9089ZM41.3722 38.5467C41.2428 38.4173 41.0331 38.4173 40.9037 38.5467C40.7743 38.6761 40.7743 38.8858 40.9037 39.0152L41.5297 39.6412C41.6591 39.7706 41.8688 39.7706 41.9982 39.6412C42.1276 39.5118 42.1276 39.3021 41.9982 39.1727L41.3722 38.5467ZM46.6756 29.8334L45.1473 31.3418L43.0816 30.5691C43.0381 30.5528 42.9916 30.5458 42.9451 30.5487C42.8987 30.5515 42.8534 30.5642 42.8121 30.5857L41.5423 31.2488C41.3006 31.3749 41.3069 31.7246 41.5536 31.8417L43.7914 32.904L43.09 33.5963L41.9205 33.3887C41.8455 33.3756 41.7683 33.3887 41.7018 33.4256C41.6353 33.4626 41.5834 33.5212 41.5549 33.5918L41.1564 34.5873C41.0777 34.7835 41.2019 35.0052 41.4135 35.0377L42.7338 35.2417L42.9004 36.541C42.9301 36.7681 43.1742 36.8968 43.378 36.7949L44.2773 36.3428C44.3396 36.3115 44.3905 36.2613 44.4226 36.1994C44.4547 36.1374 44.4665 36.067 44.4562 35.998L44.3016 34.9603L45.0425 34.2293L46.0917 36.1744C46.2038 36.383 46.5283 36.4306 46.6707 36.1819L47.2929 35.0958C47.3169 35.0538 47.3315 35.007 47.3355 34.9587C47.3395 34.9105 47.3329 34.8619 47.3162 34.8165L46.5553 32.7539L48.0762 31.253C48.4682 30.866 48.4728 30.2353 48.0856 29.843C47.6964 29.4484 47.0661 29.4485 46.6756 29.8334ZM47.6109 30.7813L45.938 32.4322C45.8926 32.477 45.8611 32.5338 45.8473 32.596C45.8334 32.6582 45.8377 32.723 45.8597 32.7828L46.641 34.9007L46.3919 35.3355L45.4159 33.5257C45.3124 33.3338 45.051 33.2899 44.8918 33.4471L43.7168 34.6067C43.6796 34.6434 43.6517 34.6882 43.6351 34.7377C43.6186 34.7872 43.614 34.8398 43.6216 34.8914L43.7656 35.8584L43.4984 35.9927L43.3596 34.9102C43.3504 34.8389 43.3184 34.7725 43.2682 34.721C43.218 34.6695 43.1524 34.6358 43.0814 34.6248L41.9264 34.4464L42.07 34.0882L43.1428 34.2785C43.1949 34.2878 43.2485 34.2844 43.299 34.2687C43.3496 34.253 43.3956 34.2254 43.4333 34.1883L44.5935 33.0434C44.7566 32.8824 44.7113 32.6069 44.5029 32.5083L42.4385 31.5284L42.9879 31.2414L45.1134 32.0364C45.2337 32.0817 45.37 32.0526 45.4621 31.962L47.1409 30.3051C47.1722 30.2742 47.2092 30.2498 47.2499 30.2333C47.2906 30.2167 47.3342 30.2084 47.3781 30.2087C47.422 30.209 47.4654 30.2179 47.5059 30.235C47.5464 30.2521 47.5831 30.277 47.6139 30.3083C47.6448 30.3395 47.6693 30.3766 47.6859 30.4173C47.7024 30.4579 47.7108 30.5015 47.7105 30.5455C47.7103 30.5894 47.7013 30.6328 47.6842 30.6733C47.6671 30.7138 47.6422 30.7505 47.6109 30.7813Z" fill="white"/>
<path d="M51.7377 32.4291L51.7377 32.429L45.3929 26.0841L51.7377 32.4291ZM51.7377 32.4291C51.7586 32.4499 51.7751 32.4746 51.7864 32.5018C51.7976 32.529 51.8034 32.5582 51.8034 32.5876C51.8034 32.6171 51.7976 32.6463 51.7864 32.6735C51.7751 32.7007 51.7586 32.7254 51.7377 32.7462L51.7377 32.7463M51.7377 32.4291L51.7377 32.7463M51.7377 32.7463L40.6317 43.8521V30.5276M51.7377 32.7463L40.6317 30.5276M40.6317 30.5276L45.0751 26.0842L40.6317 30.5276ZM46.1441 25.3324L46.144 25.3323C45.6424 24.8314 44.8262 24.8308 44.324 25.3325L44.3239 25.3326L40.6317 29.0249V23.7083C40.6317 22.5461 39.6865 21.6008 38.5242 21.6008H20.1859C19.3527 21.6008 18.675 22.2783 18.675 23.1115V47.6992C18.675 48.8614 19.6202 49.8066 20.7824 49.8066H38.5242C39.6864 49.8066 40.6317 48.8614 40.6317 47.6991V45.3546L52.4889 33.4975C52.9908 32.9956 52.9908 32.1796 52.4889 31.6776L52.3475 31.819L52.4889 31.6776L46.1441 25.3324ZM45.0752 26.0841C45.1629 25.9968 45.3054 25.9968 45.3928 26.084L45.0752 26.0841ZM19.7376 23.1115C19.7376 22.8647 19.9389 22.6634 20.1859 22.6634H38.5243C39.1003 22.6634 39.5692 23.1322 39.5692 23.7083V47.6992C39.5692 48.2753 39.1003 48.7441 38.5243 48.7441H20.7824C20.2064 48.7441 19.7375 48.2753 19.7375 47.6992L19.7376 23.1115Z" fill="white" stroke="white" stroke-width="0.4"/>
<path d="M29.6531 37.7585C33.2118 37.7585 36.107 34.8634 36.107 31.3046C36.107 27.7459 33.2119 24.8506 29.6531 24.8506C26.0944 24.8506 23.1992 27.7459 23.1992 31.3046C23.1992 34.8633 26.0944 37.7585 29.6531 37.7585ZM31.1941 36.8814C32.0491 35.8243 32.6239 33.9028 32.6756 31.636H35.4276C35.2845 34.148 33.5378 36.2327 31.1941 36.8814ZM35.4277 30.9734H32.6756C32.6239 28.7066 32.0491 26.7849 31.1941 25.7278C33.5378 26.3764 35.2845 28.4612 35.4277 30.9734ZM29.9844 25.5833C30.9834 25.9642 31.945 28.0212 32.0133 30.9734H29.9844V25.5833ZM29.9844 31.636H32.0133C31.9451 34.5882 30.9834 36.645 29.9844 37.0259V31.636ZM29.3218 37.0258C28.3228 36.645 27.3612 34.5881 27.2929 31.6359H29.3218V37.0258ZM29.3218 25.5833V30.9734H27.293C27.3612 28.0212 28.3229 25.9642 29.3218 25.5833ZM28.1122 25.7278C27.2572 26.7849 26.6824 28.7066 26.6307 30.9734H23.8786C24.0218 28.4612 25.7685 26.3764 28.1122 25.7278ZM26.6307 31.636C26.6824 33.9028 27.2572 35.8243 28.1122 36.8814C25.7684 36.2328 24.0218 34.1481 23.8786 31.636H26.6307ZM35.6454 40.1526H23.6609C23.6174 40.1526 23.5743 40.1612 23.5341 40.1778C23.4939 40.1945 23.4574 40.2189 23.4267 40.2496C23.3959 40.2804 23.3715 40.3169 23.3548 40.3571C23.3382 40.3973 23.3296 40.4404 23.3296 40.4839V46.2246C23.3296 46.4075 23.4778 46.5559 23.6609 46.5559H35.6454C35.8285 46.5559 35.9767 46.4075 35.9767 46.2246V40.4839C35.9767 40.396 35.9418 40.3118 35.8796 40.2496C35.8175 40.1875 35.7332 40.1526 35.6454 40.1526ZM35.3141 45.8933H23.9922V40.8152H35.3141V45.8933Z" fill="white"/>
<path d="M25.386 42.7768H33.9224C34.1054 42.7768 34.2536 42.6285 34.2536 42.4455C34.2536 42.2626 34.1054 42.1143 33.9224 42.1143H25.386C25.2029 42.1143 25.0547 42.2626 25.0547 42.4455C25.0547 42.6285 25.2029 42.7768 25.386 42.7768ZM25.386 44.6033H30.614C30.7971 44.6033 30.9453 44.4549 30.9453 44.272C30.9453 44.089 30.7971 43.9407 30.614 43.9407H25.386C25.2029 43.9407 25.0547 44.089 25.0547 44.272C25.0547 44.4549 25.2029 44.6033 25.386 44.6033Z" fill="white"/>
</g>
<defs>
<clipPath id="clip0_1058_677">
<rect width="34.6166" height="34.6166" fill="white" transform="translate(18.4609 18.3936)"/>
</clipPath>
</defs>
</svg>
