<svg width="61" height="61" viewBox="0 0 61 61" fill="none" xmlns="http://www.w3.org/2000/svg">
<g clip-path="url(#clip0_205_3867)">
<path d="M31.3663 0.664062H28.833C13.0929 0.664062 0.333008 13.424 0.333008 29.1641V31.6974C0.333008 47.4375 13.0929 60.1974 28.833 60.1974H31.3663C47.1065 60.1974 59.8663 47.4375 59.8663 31.6974V29.1641C59.8663 13.424 47.1065 0.664062 31.3663 0.664062Z" fill="#EBF3FC"/>
<path d="M39.4467 28.2508L37.0939 30.6035C37.0908 29.7191 36.7373 28.8719 36.1108 28.2477C35.4842 27.6234 34.6358 27.2729 33.7513 27.273H24.9232C24.547 27.272 24.1743 27.3457 23.8267 27.4897C23.4791 27.6337 23.1635 27.8453 22.8982 28.1121L17.4896 33.5211L16.6955 32.727C16.5672 32.5988 16.3934 32.5269 16.2121 32.5269C16.0308 32.5269 15.8569 32.5988 15.7287 32.727L12.2717 36.1844C12.2081 36.2478 12.1578 36.3231 12.1234 36.406C12.089 36.4889 12.0713 36.5778 12.0713 36.6676C12.0713 36.7573 12.089 36.8462 12.1234 36.9291C12.1578 37.012 12.2081 37.0874 12.2717 37.1508L22.3971 47.2762C22.4605 47.3397 22.5358 47.3901 22.6187 47.4245C22.7016 47.4588 22.7905 47.4765 22.8803 47.4765C22.97 47.4765 23.0589 47.4588 23.1418 47.4245C23.2247 47.3901 23.3 47.3397 23.3635 47.2762L26.8209 43.8191C26.949 43.6909 27.021 43.517 27.021 43.3357C27.021 43.1545 26.949 42.9806 26.8209 42.8523L26.2174 42.2488L28.6064 39.8598C28.6878 39.778 28.7846 39.7131 28.8912 39.669C28.9978 39.6249 29.1121 39.6023 29.2275 39.6027H36.5049C36.9824 39.604 37.4554 39.5105 37.8965 39.3278C38.3376 39.145 38.7381 38.8765 39.0748 38.5379L48.3951 29.2176C48.4586 29.1541 48.509 29.0788 48.5434 28.9958C48.5778 28.9129 48.5955 28.824 48.5955 28.7342C48.5955 28.6444 48.5778 28.5555 48.5434 28.4725C48.509 28.3896 48.4586 28.3142 48.3951 28.2508C47.2076 27.0658 45.5985 26.4003 43.9209 26.4003C42.2433 26.4003 40.6342 27.0658 39.4467 28.2508ZM22.8803 45.8262L13.7217 36.6676L16.2123 34.1758L25.3721 43.3355L22.8803 45.8262ZM38.1064 37.5715C37.8966 37.7825 37.647 37.9498 37.3721 38.0638C37.0972 38.1777 36.8025 38.2361 36.5049 38.2355H29.2275C28.9325 38.2347 28.6403 38.2924 28.3677 38.4052C28.0952 38.5181 27.8477 38.6838 27.6396 38.893L25.2514 41.2816L18.4666 34.4777L23.8654 29.0785C24.0042 28.9392 24.1692 28.8287 24.3509 28.7535C24.5326 28.6783 24.7274 28.6398 24.924 28.6402H33.7521C34.0282 28.6402 34.3012 28.6981 34.5535 28.81C34.8058 28.922 35.0319 29.0855 35.2172 29.2902C35.4024 29.4948 35.5428 29.736 35.6291 29.9982C35.7155 30.2604 35.7459 30.5378 35.7185 30.8125C35.6511 31.3131 35.4017 31.7713 35.0178 32.0996C34.634 32.4279 34.1426 32.6032 33.6377 32.5922H29.3252C29.1439 32.5922 28.97 32.6642 28.8418 32.7924C28.7136 32.9206 28.6416 33.0945 28.6416 33.2758C28.6416 33.4571 28.7136 33.631 28.8418 33.7592C28.97 33.8874 29.1439 33.9594 29.3252 33.9594H35.3885C35.5698 33.9593 35.7438 33.8872 35.8721 33.759L40.4135 29.2176C41.2607 28.3725 42.3844 27.8616 43.5782 27.7789C44.7719 27.6961 45.9554 28.0471 46.9111 28.7672L38.1064 37.5715ZM23.6506 17.6355C23.6506 18.9572 24.0425 20.2492 24.7768 21.3481C25.511 22.447 26.5547 23.3035 27.7757 23.8093C28.9968 24.3151 30.3404 24.4474 31.6367 24.1896C32.9329 23.9317 34.1236 23.2953 35.0582 22.3607C35.9927 21.4262 36.6292 20.2355 36.887 18.9392C37.1449 17.643 37.0125 16.2993 36.5067 15.0783C36.001 13.8572 35.1445 12.8136 34.0455 12.0793C32.9466 11.345 31.6546 10.9531 30.333 10.9531C28.5613 10.9552 26.8628 11.6599 25.6101 12.9126C24.3573 14.1654 23.6526 15.8639 23.6506 17.6355ZM35.6482 17.6355C35.6482 18.6868 35.3365 19.7144 34.7524 20.5885C34.1684 21.4626 33.3383 22.1439 32.367 22.5462C31.3958 22.9485 30.3271 23.0537 29.296 22.8486C28.265 22.6436 27.3179 22.1373 26.5746 21.394C25.8312 20.6506 25.325 19.7036 25.1199 18.6725C24.9148 17.6414 25.0201 16.5727 25.4224 15.6015C25.8247 14.6303 26.5059 13.8001 27.38 13.2161C28.2541 12.632 29.2817 12.3203 30.333 12.3203C31.7422 12.322 33.0932 12.8825 34.0896 13.8789C35.086 14.8754 35.6466 16.2264 35.6482 17.6355Z" fill="#002147"/>
<path d="M29.6493 14.0887V14.4938C29.1765 14.582 28.7538 14.8436 28.4637 15.2273C28.1737 15.6109 28.0374 16.089 28.0813 16.568C28.1253 17.0469 28.3465 17.4921 28.7015 17.8166C29.0566 18.141 29.5199 18.3212 30.0009 18.3219H30.6649C30.7392 18.3219 30.8127 18.3365 30.8812 18.3649C30.9498 18.3933 31.0121 18.4349 31.0646 18.4874C31.1171 18.5399 31.1587 18.6022 31.1871 18.6708C31.2155 18.7394 31.2302 18.8129 31.2302 18.8871C31.2302 18.9613 31.2155 19.0348 31.1871 19.1034C31.1587 19.172 31.1171 19.2343 31.0646 19.2868C31.0121 19.3393 30.9498 19.3809 30.8812 19.4093C30.8127 19.4377 30.7392 19.4523 30.6649 19.4523H29.0829C28.9016 19.4523 28.7277 19.5244 28.5995 19.6526C28.4713 19.7808 28.3993 19.9546 28.3993 20.1359C28.3993 20.3172 28.4713 20.4911 28.5995 20.6193C28.7277 20.7475 28.9016 20.8195 29.0829 20.8195H29.6493V21.1891C29.6493 21.3704 29.7213 21.5442 29.8495 21.6724C29.9777 21.8006 30.1516 21.8727 30.3329 21.8727C30.5142 21.8727 30.6881 21.8006 30.8163 21.6724C30.9445 21.5442 31.0165 21.3704 31.0165 21.1891V20.7848C31.4893 20.6965 31.912 20.4349 32.2021 20.0512C32.4921 19.6676 32.6285 19.1895 32.5845 18.7106C32.5405 18.2316 32.3193 17.7864 31.9643 17.462C31.6092 17.1376 31.1459 16.9573 30.6649 16.9566H30.0009C29.9254 16.9586 29.8503 16.9455 29.78 16.918C29.7098 16.8905 29.6457 16.8492 29.5916 16.7965C29.5376 16.7438 29.4946 16.6809 29.4652 16.6113C29.4359 16.5418 29.4208 16.4671 29.4208 16.3916C29.4208 16.3161 29.4359 16.2414 29.4652 16.1719C29.4946 16.1023 29.5376 16.0394 29.5916 15.9867C29.6457 15.934 29.7098 15.8927 29.78 15.8652C29.8503 15.8377 29.9254 15.8246 30.0009 15.8266H31.5829C31.7642 15.8266 31.9381 15.7545 32.0663 15.6263C32.1945 15.4981 32.2665 15.3243 32.2665 15.143C32.2665 14.9617 32.1945 14.7878 32.0663 14.6596C31.9381 14.5314 31.7642 14.4594 31.5829 14.4594H31.0165V14.0898C31.0165 13.9085 30.9445 13.7347 30.8163 13.6065C30.6881 13.4783 30.5142 13.4062 30.3329 13.4062C30.1516 13.4062 29.9777 13.4783 29.8495 13.6065C29.7213 13.7347 29.6493 13.9085 29.6493 14.0898V14.0887Z" fill="#002147"/>
</g>
<defs>
<clipPath id="clip0_205_3867">
<rect width="60" height="60" fill="white" transform="translate(0.333008 0.210938)"/>
</clipPath>
</defs>
</svg>
