<svg width="49" height="49" viewBox="0 0 49 49" fill="none" xmlns="http://www.w3.org/2000/svg">
<path d="M40.301 34.9775C41.7065 34.9775 42.8244 34.0931 43.8282 32.8564C45.883 30.3247 42.5093 28.3015 41.2226 27.3107C39.9146 26.3034 38.4541 25.7328 36.9734 25.5989M35.0977 21.8474C37.6875 21.8474 39.787 19.7479 39.787 17.1581C39.787 14.5682 37.6875 12.4688 35.0977 12.4688" stroke="#002147" stroke-width="2.25088" stroke-linecap="round"/>
<path d="M7.38526 34.9775C5.97977 34.9775 4.86186 34.0931 3.85811 32.8564C1.80333 30.3247 5.17699 28.3015 6.46369 27.3107C7.7717 26.3034 9.23215 25.7328 10.7129 25.5989M11.6508 21.8474C9.06091 21.8474 6.96143 19.7479 6.96143 17.1581C6.96143 14.5682 9.06091 12.4687 11.6508 12.4687" stroke="#002147" stroke-width="2.25088" stroke-linecap="round"/>
<path d="M16.4969 29.5609C14.5803 30.746 9.55517 33.1658 12.6158 36.1939C14.1109 37.6731 15.7761 38.731 17.8696 38.731L29.8157 38.731C31.9092 38.731 33.5744 37.6731 35.0695 36.1939C38.1301 33.1658 33.105 30.746 31.1884 29.5609C26.694 26.7818 20.9913 26.7818 16.4969 29.5609Z" stroke="#002147" stroke-width="2.25088" stroke-linecap="round" stroke-linejoin="round"/>
<path d="M30.4084 15.2838C30.4084 18.9096 27.4692 21.8489 23.8434 21.8489C20.2176 21.8489 17.2783 18.9096 17.2783 15.2838C17.2783 11.658 20.2176 8.71875 23.8434 8.71875C27.4692 8.71875 30.4084 11.658 30.4084 15.2838Z" stroke="#002147" stroke-width="2.25088"/>
</svg>
