<svg width="46" height="46" viewBox="0 0 46 46" fill="none" xmlns="http://www.w3.org/2000/svg">
<path d="M39.4582 34.2549C40.8637 34.2549 41.9816 33.3704 42.9854 32.1337C45.0402 29.602 41.6665 27.5789 40.3798 26.588C39.0718 25.5808 37.6114 25.0102 36.1306 24.8762M34.2549 21.1248C36.8447 21.1248 38.9442 19.0253 38.9442 16.4354C38.9442 13.8456 36.8447 11.7461 34.2549 11.7461" stroke="#617975" stroke-opacity="0.1" stroke-width="2.25088" stroke-linecap="round"/>
<path d="M6.54249 34.2549C5.137 34.2549 4.01908 33.3704 3.01534 32.1337C0.960554 29.602 4.33421 27.5789 5.62092 26.588C6.92892 25.5808 8.38938 25.0102 9.87012 24.8762M10.808 21.1248C8.21814 21.1248 6.11865 19.0253 6.11865 16.4354C6.11865 13.8456 8.21814 11.7461 10.808 11.7461" stroke="#617975" stroke-opacity="0.1" stroke-width="2.25088" stroke-linecap="round"/>
<path d="M15.6541 28.8382C13.7376 30.0233 8.7124 32.4432 11.7731 35.4712C13.2682 36.9504 14.9333 38.0083 17.0268 38.0083L28.9729 38.0083C31.0664 38.0083 32.7316 36.9504 34.2267 35.4712C37.2874 32.4432 32.2622 30.0233 30.3456 28.8382C25.8513 26.0591 20.1485 26.0591 15.6541 28.8382Z" stroke="#617975" stroke-opacity="0.1" stroke-width="2.25088" stroke-linecap="round" stroke-linejoin="round"/>
<path d="M29.5657 14.5612C29.5657 18.1869 26.6264 21.1262 23.0006 21.1262C19.3748 21.1262 16.4355 18.1869 16.4355 14.5612C16.4355 10.9354 19.3748 7.99609 23.0006 7.99609C26.6264 7.99609 29.5657 10.9354 29.5657 14.5612Z" stroke="#617975" stroke-opacity="0.1" stroke-width="2.25088"/>
</svg>
