<svg width="72" height="73" viewBox="0 0 72 73" fill="none" xmlns="http://www.w3.org/2000/svg">
<g filter="url(#filter0_d_1058_824)">
<path d="M6 36.7988C6 20.2303 19.4315 6.79883 36 6.79883V6.79883C52.5685 6.79883 66 20.2303 66 36.7988V36.7988C66 53.3674 52.5685 66.7988 36 66.7988V66.7988C19.4315 66.7988 6 53.3674 6 36.7988V36.7988Z" fill="#002146" fill-opacity="0.1" shape-rendering="crispEdges"/>
<path d="M34.9095 26.2725C32.7003 26.2889 30.5648 27.0697 28.8661 28.4824C27.1674 29.8951 26.0103 31.8524 25.5914 34.0217C25.1725 36.191 25.5177 38.4384 26.5684 40.382C27.619 42.3255 29.3102 43.8453 31.3545 44.6831V49.0143C31.3545 49.9577 31.7289 50.8625 32.3954 51.5301C33.062 52.1977 33.9662 52.5735 34.9095 52.575C35.8534 52.5735 36.7582 52.1979 37.4256 51.5304C38.0931 50.863 38.4687 49.9582 38.4702 49.0143V44.6831C40.515 43.8451 42.2064 42.3249 43.2569 40.3807C44.3075 38.4366 44.6523 36.1886 44.2327 34.019C43.8131 31.8494 42.655 29.8921 40.9553 28.4798C39.2556 27.0676 37.1193 26.2876 34.9095 26.2725ZM32.4795 47.6475H37.3452V48.8906H32.4795V47.6475ZM34.9095 51.4275C34.2742 51.419 33.6678 51.1603 33.222 50.7075C33.0053 50.5122 32.8277 50.2774 32.6989 50.0156H37.1258C36.9339 50.4428 36.6226 50.8055 36.2294 51.06C35.8363 51.3145 35.3779 51.4499 34.9095 51.45V51.4275ZM37.722 43.7381C37.6123 43.7765 37.5171 43.8479 37.4496 43.9426C37.3821 44.0373 37.3456 44.1506 37.3452 44.2668V46.5168H35.4045V41.0156L37.9527 39.9918L37.5308 38.9512L34.842 40.0256L32.1477 38.9512L31.7314 39.9918L34.2795 41.0156V46.5337H32.4795V44.2837C32.4791 44.1674 32.4426 44.0542 32.3751 43.9595C32.3076 43.8648 32.2124 43.7933 32.1027 43.755C30.2261 43.0915 28.6445 41.786 27.6375 40.0692C26.6304 38.3525 26.2626 36.3349 26.5992 34.3732C26.9358 32.4115 27.955 30.6319 29.4768 29.349C30.9985 28.0661 32.9248 27.3625 34.9152 27.3625C36.9055 27.3625 38.8318 28.0661 40.3536 29.349C41.8753 30.6319 42.8946 32.4115 43.2312 34.3732C43.5677 36.3349 43.2 38.3525 42.1929 40.0692C41.1858 41.786 39.6042 43.0915 37.7277 43.755L37.722 43.7381Z" fill="#002147"/>
<path d="M41.5423 33.7648C41.0709 32.3208 40.1047 31.0896 38.8142 30.2885L38.2517 31.2391C38.8977 31.6422 39.4495 32.1793 39.8699 32.8141C40.2903 33.4489 40.5694 34.1666 40.6883 34.9186C40.8072 35.6706 40.7632 36.4394 40.5593 37.173C40.3553 37.9065 39.9961 38.5877 39.5061 39.1704L40.3442 39.8904C41.0501 39.0565 41.5307 38.0557 41.7405 36.9835C41.9502 35.9113 41.882 34.8032 41.5423 33.7648ZM34.4661 20.3379H35.5911V24.236H34.4661V20.3379ZM43.7946 27.4985L46.309 24.5167L47.1696 25.2423L44.6552 28.2241L43.7946 27.4985ZM23.566 47.9268L26.0803 44.9445L26.941 45.6701L24.4266 48.6525L23.566 47.9268ZM44.257 44.3746L44.9826 43.5151L47.9605 46.0295L47.2348 46.889L44.257 44.3746ZM23.8489 24.1365L24.5745 23.277L27.553 25.7913L26.8273 26.6508L23.8489 24.1365ZM48.375 34.8009L52.258 34.4696L52.3536 35.5901L48.4706 35.922L48.375 34.8009ZM19.6504 34.9426L23.5333 34.6113L23.629 35.7318L19.746 36.0637L19.6504 34.9426Z" fill="#002147"/>
</g>
<defs>
<filter id="filter0_d_1058_824" x="0" y="0.798828" width="72" height="72" filterUnits="userSpaceOnUse" color-interpolation-filters="sRGB">
<feFlood flood-opacity="0" result="BackgroundImageFix"/>
<feColorMatrix in="SourceAlpha" type="matrix" values="0 0 0 0 0 0 0 0 0 0 0 0 0 0 0 0 0 0 127 0" result="hardAlpha"/>
<feMorphology radius="6" operator="dilate" in="SourceAlpha" result="effect1_dropShadow_1058_824"/>
<feOffset/>
<feComposite in2="hardAlpha" operator="out"/>
<feColorMatrix type="matrix" values="0 0 0 0 0.960784 0 0 0 0 0.968627 0 0 0 0 0.996078 0 0 0 1 0"/>
<feBlend mode="normal" in2="BackgroundImageFix" result="effect1_dropShadow_1058_824"/>
<feBlend mode="normal" in="SourceGraphic" in2="effect1_dropShadow_1058_824" result="shape"/>
</filter>
</defs>
</svg>
