<svg width="48" height="48" viewBox="0 0 48 48" fill="none" xmlns="http://www.w3.org/2000/svg">
<g clip-path="url(#clip0_205_7472)">
<path d="M24.8267 0.363281H22.8C10.2079 0.363281 0 10.5712 0 23.1633V25.1899C0 37.782 10.2079 47.9899 22.8 47.9899H24.8267C37.4188 47.9899 47.6267 37.782 47.6267 25.1899V23.1633C47.6267 10.5712 37.4188 0.363281 24.8267 0.363281Z" fill="#EBF3FC"/>
<path d="M37.6243 12H10.2356C8.45147 12 7 13.3753 7 15.0657V32.9343C7 34.6247 8.45147 36 10.2356 36H37.6243C39.4084 36 40.8598 34.6247 40.8598 32.9343V15.0657C40.8598 13.3753 39.4084 12 37.6243 12ZM29.1165 22.8688L39.3463 14.2374C39.4898 14.485 39.5714 14.7667 39.5714 15.0657V32.9343C39.5714 33.1871 39.5129 33.4276 39.4082 33.6455L29.1165 22.8688ZM37.6243 13.2884C37.873 13.2884 38.1107 13.3317 38.3295 13.4096L23.9299 25.5592L9.53031 13.4096C9.74918 13.3317 9.98688 13.2884 10.2356 13.2884H37.6243V13.2884ZM8.4516 33.6455C8.34691 33.4276 8.2884 33.1871 8.2884 32.9343V15.0657C8.2884 14.7667 8.37005 14.485 8.51353 14.2374L18.7434 22.8688L8.4516 33.6455ZM10.2356 34.7116C9.93097 34.7116 9.64259 34.6473 9.38558 34.533L19.73 23.7012L23.4074 26.8041C23.4135 26.8119 23.4189 26.8201 23.4254 26.8277C23.5528 26.9788 23.7348 27.0565 23.9181 27.0565C23.922 27.0565 23.926 27.0561 23.9299 27.056C23.9339 27.0561 23.9378 27.0565 23.9418 27.0565C24.125 27.0565 24.307 26.9788 24.4344 26.8277C24.4409 26.8201 24.4464 26.8119 24.4524 26.8041L28.1299 23.7012L38.4743 34.533C38.2173 34.6473 37.9289 34.7116 37.6243 34.7116H10.2356Z" fill="#002147"/>
</g>
<defs>
<clipPath id="clip0_205_7472">
<rect width="48" height="48" fill="white"/>
</clipPath>
</defs>
</svg>
