<svg width="59" height="59" viewBox="0 0 59 59" fill="none" xmlns="http://www.w3.org/2000/svg">
<g clip-path="url(#clip0_157_2176)">
<path d="M30.1082 0.4375H27.6504C12.3795 0.4375 0 12.817 0 28.0879V30.5457C0 45.8166 12.3795 58.1961 27.6504 58.1961H30.1082C45.3791 58.1961 57.7586 45.8166 57.7586 30.5457V28.0879C57.7586 12.817 45.3791 0.4375 30.1082 0.4375Z" fill="#EBF3FC"/>
<path d="M33.6175 20.5703C33.6173 19.657 33.3464 18.7643 32.8389 18.005C32.3314 17.2457 31.6102 16.6539 30.7664 16.3045C29.9226 15.955 28.9941 15.8637 28.0984 16.0419C27.2027 16.2202 26.3799 16.66 25.7341 17.3059C25.0884 17.9517 24.6487 18.7745 24.4705 19.6703C24.2924 20.566 24.3839 21.4945 24.7334 22.3382C25.0829 23.182 25.6748 23.9032 26.4342 24.4106C27.1936 24.9179 28.0864 25.1888 28.9997 25.1888C30.224 25.1873 31.3978 24.7002 32.2635 23.8344C33.1292 22.9685 33.6161 21.7947 33.6175 20.5703ZM25.4756 20.5703C25.4757 19.8733 25.6825 19.1921 26.0698 18.6126C26.4571 18.0332 27.0075 17.5816 27.6515 17.315C28.2954 17.0483 29.004 16.9786 29.6875 17.1147C30.3711 17.2507 30.999 17.5864 31.4918 18.0793C31.9845 18.5721 32.3201 19.2001 32.456 19.8837C32.592 20.5672 32.5221 21.2758 32.2554 21.9197C31.9887 22.5636 31.537 23.1139 30.9575 23.5011C30.3779 23.8883 29.6966 24.095 28.9997 24.095C28.0652 24.0939 27.1694 23.7222 26.5087 23.0614C25.8481 22.4006 25.4765 21.5047 25.4756 20.5703Z" fill="#002147"/>
<path d="M47.5401 46.8311L43.0819 35.1436C43.0424 35.0401 42.9724 34.9511 42.8811 34.8882C42.7899 34.8254 42.6818 34.7918 42.571 34.7917H34.1335C34.1851 34.7077 34.2363 34.6261 34.2879 34.5417C37.5344 29.1667 39.1682 24.4648 39.1447 20.5686C39.1452 17.878 38.0768 15.2974 36.1746 13.3945C34.2723 11.4916 31.6921 10.4223 29.0015 10.4219C26.3108 10.4214 23.7302 11.4898 21.8274 13.3921C19.9245 15.2943 18.8552 17.8745 18.8547 20.5652C18.8313 24.4648 20.4651 29.1673 23.7116 34.5417C23.7632 34.627 23.8144 34.7086 23.866 34.7917H15.4285C15.3177 34.7918 15.2096 34.8254 15.1183 34.8882C15.0271 34.9511 14.9571 35.0401 14.9176 35.1436L10.4601 46.8311C10.4283 46.9139 10.4172 47.0032 10.4277 47.0913C10.4381 47.1793 10.4699 47.2635 10.5202 47.3366C10.5705 47.4096 10.6378 47.4693 10.7164 47.5105C10.7949 47.5517 10.8823 47.5731 10.971 47.573H47.0291C47.1178 47.5731 47.2052 47.5517 47.2837 47.5105C47.3623 47.4693 47.4296 47.4096 47.4799 47.3366C47.5302 47.2635 47.562 47.1793 47.5725 47.0913C47.5829 47.0032 47.5718 46.9139 47.5401 46.8311ZM19.9488 20.5661C19.949 19.3775 20.1833 18.2005 20.6384 17.1024C21.0935 16.0044 21.7603 15.0067 22.601 14.1664C23.4416 13.326 24.4395 12.6595 25.5377 12.2048C26.636 11.7501 27.813 11.5162 29.0016 11.5164C30.1902 11.5166 31.3672 11.7509 32.4653 12.206C33.5633 12.661 34.561 13.3279 35.4014 14.1686C36.2417 15.0092 36.9082 16.0071 37.3629 17.1053C37.8176 18.2036 38.0515 19.3806 38.0513 20.5692C38.0982 28.3373 30.8357 37.9183 29.0001 40.2158C27.1644 37.9192 19.9016 28.3408 19.9488 20.5661ZM28.5835 41.4345C28.6348 41.4949 28.6987 41.5434 28.7706 41.5766C28.8425 41.6099 28.9208 41.6271 29.0001 41.6271C29.0793 41.6271 29.1576 41.6099 29.2295 41.5766C29.3014 41.5434 29.3653 41.4949 29.4166 41.4345C30.8686 39.6657 32.2147 37.8126 33.4479 35.8848H42.1938L42.8938 37.7208L25.8029 43.7992L19.711 35.8839H24.5516C25.785 37.812 27.1313 39.6654 28.5835 41.4345ZM25.7838 44.9658H25.7869L35.9829 41.3408L39.9376 46.4792H21.5313L25.7838 44.9658ZM15.8057 35.8839H18.3307L24.7188 44.1845L18.2679 46.4789H11.7647L15.8057 35.8839ZM41.3191 46.4792L37.0663 40.9536L43.2851 38.742L46.236 46.4792H41.3191Z" fill="#002147"/>
</g>
<defs>
<clipPath id="clip0_157_2176">
<rect width="58.2114" height="58.2114" fill="white"/>
</clipPath>
</defs>
</svg>
