<svg width="49" height="48" viewBox="0 0 49 48" fill="none" xmlns="http://www.w3.org/2000/svg">
<path d="M26.0137 16.2286V15.8059C26.5293 15.6747 26.9867 15.3758 27.3139 14.9561C27.641 14.5364 27.8192 14.0198 27.8205 13.4877C27.8205 12.165 26.7432 11.0809 25.4137 11.0809C24.7455 11.0809 24.2 10.5354 24.2 9.86726C24.2 9.19908 24.7455 8.65362 25.4137 8.65362C26.0818 8.65362 26.6273 9.19908 26.6273 9.86726C26.6273 10.1945 26.8932 10.4673 27.2273 10.4673C27.5614 10.4673 27.8273 10.2013 27.8273 9.86726C27.8273 8.74908 27.0568 7.81499 26.0205 7.54908V7.11953C26.0205 6.79226 25.7546 6.51953 25.4205 6.51953C25.0864 6.51953 24.8205 6.78544 24.8205 7.11953V7.54226C24.3048 7.67343 23.8474 7.9724 23.5203 8.39208C23.1932 8.81177 23.0149 9.32834 23.0137 9.86044C23.0137 11.1832 24.0909 12.2673 25.4205 12.2673C26.0887 12.2673 26.6341 12.8127 26.6341 13.4809C26.6341 14.1491 26.0887 14.6945 25.4205 14.6945C24.7523 14.6945 24.2068 14.1491 24.2068 13.4809C24.2068 13.1536 23.9409 12.8809 23.6068 12.8809C23.2727 12.8809 23.0068 13.1468 23.0068 13.4809C23.0068 14.5991 23.7773 15.5332 24.8137 15.7991V16.2218C24.8137 16.5491 25.0796 16.8218 25.4137 16.8218C25.7477 16.8218 26.0137 16.5559 26.0137 16.2286Z" fill="#002147"/>
<path d="M32.5935 11.6756C32.5935 7.71428 29.3685 4.49609 25.4139 4.49609C21.4526 4.49609 18.2344 7.72109 18.2344 11.6756C18.2344 15.637 21.4594 18.8552 25.4139 18.8552C29.3753 18.862 32.5935 15.637 32.5935 11.6756ZM19.4276 11.6756C19.4276 8.37564 22.1139 5.68928 25.4139 5.68928C28.7139 5.68928 31.4003 8.37564 31.4003 11.6756C31.4003 14.9756 28.7139 17.662 25.4139 17.662C22.1139 17.6688 19.4276 14.9825 19.4276 11.6756Z" fill="#002147"/>
<path d="M43.175 20.1776H37.5363V16.8776H40.1272C40.4545 16.8776 40.7272 16.6117 40.7272 16.2776V5.04126C40.7272 4.71399 40.4613 4.44126 40.1272 4.44126H37.5363V3.04354C37.5363 2.34126 36.9636 1.76172 36.2545 1.76172H10.5977C8.0136 1.76854 5.90678 3.86854 5.90678 6.45263V7.46172H5.82496C4.74769 7.46172 3.86133 8.34126 3.86133 9.42536C3.86133 10.5094 4.74087 11.389 5.82496 11.389H5.90678V13.8026H5.82496C4.74769 13.8026 3.86133 14.6822 3.86133 15.7663C3.86133 16.8504 4.74087 17.7299 5.82496 17.7299H5.90678V20.1435H5.82496C4.74769 20.1435 3.86133 21.0231 3.86133 22.1072C3.86133 23.1913 4.74087 24.0708 5.82496 24.0708H5.90678V26.4844H5.82496C4.74769 26.4844 3.86133 27.364 3.86133 28.4481C3.86133 29.5322 4.74087 30.4117 5.82496 30.4117H5.90678V32.8254H5.82496C4.74769 32.8254 3.86133 33.7049 3.86133 34.789C3.86133 35.8731 4.74087 36.7526 5.82496 36.7526H5.90678V37.7685C5.90678 40.3526 8.00678 42.4594 10.5977 42.4594H25.3318V43.2708C25.3318 44.3481 26.2113 45.2344 27.2954 45.2344H43.1818C44.2591 45.2344 45.1454 44.3549 45.1454 43.2708V22.1413C45.1318 21.0572 44.2522 20.1776 43.175 20.1776ZM43.9386 22.1413V26.7299H26.525V22.1413C26.525 21.7185 26.8659 21.3708 27.2954 21.3708H43.1818C43.5977 21.3708 43.9386 21.7185 43.9386 22.1413ZM39.5272 15.6844H37.5363V11.2594H39.5272V15.6844ZM39.5272 5.63445V10.0594H37.5363V5.63445H39.5272ZM5.06133 9.42536C5.06133 9.00263 5.40224 8.6549 5.83178 8.6549H8.55906C8.98178 8.6549 9.32951 8.99581 9.32951 9.42536C9.32951 9.8549 8.9886 10.1958 8.55906 10.1958H5.83178C5.40224 10.189 5.06133 9.84808 5.06133 9.42536ZM5.06133 15.7594C5.06133 15.3367 5.40224 14.989 5.83178 14.989H8.55906C8.98178 14.989 9.32951 15.3299 9.32951 15.7594C9.32951 16.189 8.9886 16.5299 8.55906 16.5299H5.83178C5.40224 16.5299 5.06133 16.1822 5.06133 15.7594ZM5.06133 22.1004C5.06133 21.6776 5.40224 21.3299 5.83178 21.3299H8.55906C8.98178 21.3299 9.32951 21.6708 9.32951 22.1004C9.32951 22.5299 8.9886 22.8708 8.55906 22.8708H5.82496C5.40224 22.864 5.06133 22.5231 5.06133 22.1004ZM5.06133 28.4345C5.06133 28.0117 5.40224 27.664 5.83178 27.664H8.55906C8.98178 27.664 9.32951 28.0049 9.32951 28.4345C9.32951 28.864 8.9886 29.2049 8.55906 29.2049H5.83178C5.40224 29.1981 5.06133 28.8572 5.06133 28.4345ZM5.06133 34.7685C5.06133 34.3458 5.40224 33.9981 5.83178 33.9981H8.55906C8.98178 33.9981 9.32951 34.339 9.32951 34.7685C9.32951 35.1981 8.9886 35.539 8.55906 35.539H5.83178C5.40224 35.539 5.06133 35.1913 5.06133 34.7685ZM7.09996 37.7481V36.7322H8.54542C9.62269 36.7322 10.5091 35.8526 10.5091 34.7685C10.5091 33.6844 9.62951 32.8049 8.54542 32.8049H7.09996V30.3913H8.54542C9.62269 30.3913 10.5091 29.5117 10.5091 28.4276C10.5091 27.3435 9.62951 26.464 8.54542 26.464H7.09996V24.0504H8.54542C9.62269 24.0504 10.5091 23.1708 10.5091 22.0867C10.5091 21.0026 9.62951 20.1231 8.54542 20.1231H7.09996V17.7094H8.54542C9.62269 17.7094 10.5091 16.8299 10.5091 15.7458C10.5091 14.6617 9.62951 13.7822 8.54542 13.7822H7.09996V11.3685H8.54542C9.62269 11.3685 10.5091 10.489 10.5091 9.4049C10.5091 8.32081 9.62951 7.44126 8.54542 7.44126H7.09996V6.45263C7.09996 4.52308 8.66815 2.9549 10.5977 2.9549H13.2909V41.239H10.5977C8.66815 41.239 7.09996 39.6776 7.09996 37.7481ZM14.4841 41.239V2.96172H36.2613C36.3091 2.96172 36.35 3.00263 36.35 3.05036V20.1844H27.2886C26.2113 20.1844 25.325 21.064 25.325 22.1481V41.2526H14.4841V41.239ZM43.9386 43.2708C43.9386 43.6935 43.5977 44.0413 43.1681 44.0413H27.2818C26.8591 44.0413 26.5113 43.7004 26.5113 43.2708V27.9163H43.9318V43.2708H43.9386Z" fill="#002147"/>
<path d="M28.6518 33.2362H31.2222C31.5495 33.2362 31.8222 32.9703 31.8222 32.6362V30.0453C31.8222 29.718 31.5563 29.4453 31.2222 29.4453H28.6518C28.3245 29.4453 28.0518 29.7112 28.0518 30.0453V32.6362C28.0518 32.9703 28.3245 33.2362 28.6518 33.2362ZM29.2449 30.6453H30.6222V32.043H29.2449V30.6453ZM33.9495 33.2362H36.5199C36.8472 33.2362 37.1199 32.9703 37.1199 32.6362V30.0453C37.1199 29.718 36.854 29.4453 36.5199 29.4453H33.9495C33.6222 29.4453 33.3495 29.7112 33.3495 30.0453V32.6362C33.3495 32.9703 33.6154 33.2362 33.9495 33.2362ZM34.5427 30.6453H35.9199V32.043H34.5427V30.6453ZM39.2404 33.2362H41.8109C42.1381 33.2362 42.4109 32.9703 42.4109 32.6362V30.0453C42.4109 29.718 42.1449 29.4453 41.8109 29.4453H39.2404C38.9131 29.4453 38.6404 29.7112 38.6404 30.0453V32.6362C38.6472 32.9703 38.9131 33.2362 39.2404 33.2362ZM39.8404 30.6453H41.2177V32.043H39.8404V30.6453ZM28.6518 37.8726H31.2222C31.5495 37.8726 31.8222 37.6067 31.8222 37.2726V34.6817C31.8222 34.3544 31.5563 34.0817 31.2222 34.0817H28.6518C28.3245 34.0817 28.0518 34.3476 28.0518 34.6817V37.2726C28.0518 37.6067 28.3245 37.8726 28.6518 37.8726ZM29.2449 35.2817H30.6222V36.6794H29.2449V35.2817ZM33.9495 37.8726H36.5199C36.8472 37.8726 37.1199 37.6067 37.1199 37.2726V34.6817C37.1199 34.3544 36.854 34.0817 36.5199 34.0817H33.9495C33.6222 34.0817 33.3495 34.3476 33.3495 34.6817V37.2726C33.3495 37.6067 33.6154 37.8726 33.9495 37.8726ZM34.5427 35.2817H35.9199V36.6794H34.5427V35.2817ZM28.6518 42.5021H31.2222C31.5495 42.5021 31.8222 42.2362 31.8222 41.9021V39.3112C31.8222 38.9839 31.5563 38.7112 31.2222 38.7112H28.6518C28.3245 38.7112 28.0518 38.9771 28.0518 39.3112V41.9089C28.0518 42.2362 28.3245 42.5021 28.6518 42.5021ZM29.2449 39.918H30.6222V41.3158H29.2449V39.918ZM33.9495 42.5021H36.5199C36.8472 42.5021 37.1199 42.2362 37.1199 41.9021V39.3112C37.1199 38.9839 36.854 38.7112 36.5199 38.7112H33.9495C33.6222 38.7112 33.3495 38.9771 33.3495 39.3112V41.9089C33.3495 42.2362 33.6154 42.5021 33.9495 42.5021ZM34.5427 39.918H35.9199V41.3158H34.5427V39.918ZM39.2404 42.5021H41.8109C42.1381 42.5021 42.4109 42.2362 42.4109 41.9021V34.6885C42.4109 34.3612 42.1449 34.0885 41.8109 34.0885H39.2404C38.9131 34.0885 38.6404 34.3544 38.6404 34.6885V41.9089C38.6472 42.2362 38.9131 42.5021 39.2404 42.5021ZM39.8404 35.2817H41.2177V41.3089H39.8404V35.2817Z" fill="#002147"/>
</svg>
