<svg width="59" height="59" viewBox="0 0 59 59" fill="none" xmlns="http://www.w3.org/2000/svg">
<g clip-path="url(#clip0_144_5990)">
<path d="M30.1082 0.4375H27.6504C12.3795 0.4375 0 12.817 0 28.0879V30.5457C0 45.8166 12.3795 58.1961 27.6504 58.1961H30.1082C45.3791 58.1961 57.7586 45.8166 57.7586 30.5457V28.0879C57.7586 12.817 45.3791 0.4375 30.1082 0.4375Z" fill="#EBF3FC"/>
<path d="M43.0226 26.4688C43.1363 24.7811 42.9031 23.088 42.3375 21.4939C41.7718 19.8997 40.8856 18.4384 39.7335 17.1999C38.5814 15.9614 37.1879 14.9719 35.6388 14.2926C34.0897 13.6133 32.4178 13.2585 30.7264 13.25H27.3907C24.13 13.253 21.0035 14.5492 18.6973 16.8544C16.391 19.1596 15.0933 22.2855 15.0889 25.5463V26.1605C14.5244 26.4813 14.0548 26.9457 13.7279 27.5067C13.401 28.0676 13.2283 28.7051 13.2275 29.3544V34.7296C13.2287 35.7049 13.6167 36.6398 14.3064 37.3294C14.996 38.0189 15.931 38.4068 16.9063 38.4078H18.7935C19.1433 38.4074 19.4787 38.2682 19.7261 38.0208C19.9735 37.7734 20.1127 37.438 20.1131 37.0882V26.9953C20.1077 26.7968 20.0596 26.6018 19.9718 26.4236C19.8841 26.2455 19.759 26.0884 19.6049 25.9632C19.4508 25.8379 19.2715 25.7474 19.0793 25.6979C18.887 25.6483 18.6863 25.6409 18.4909 25.6762C18.5719 23.3179 19.5647 21.083 21.2604 19.4419C22.956 17.8009 25.2223 16.8818 27.582 16.8781H30.3326C32.6922 16.8818 34.9584 17.8009 36.654 19.4417C38.3497 21.0826 39.3426 23.3174 39.4237 25.6756H39.2055C38.8557 25.6759 38.5203 25.815 38.2729 26.0623C38.0255 26.3096 37.8863 26.6449 37.8859 26.9947V37.0876C37.8863 37.4375 38.0255 37.7729 38.2729 38.0202C38.5202 38.2676 38.8556 38.4068 39.2055 38.4072H40.5791C40.5954 38.4072 40.6106 38.405 40.6264 38.4044V38.4776C40.6255 39.268 40.3111 40.0257 39.7522 40.5846C39.1933 41.1435 38.4355 41.4579 37.6451 41.4588H33.1265C32.9966 40.8474 32.6609 40.2991 32.1755 39.9053C31.69 39.5116 31.0842 39.2963 30.4592 39.2954H27.2591C23.6597 39.4057 23.6535 44.6364 27.2591 44.7494H30.4597C31.0851 44.7484 31.6912 44.5328 32.1767 44.1387C32.6621 43.7445 32.9977 43.1956 33.1271 42.5838H37.6451C38.2043 42.5817 38.7572 42.466 39.2703 42.2437C39.7833 42.0215 40.2459 41.6973 40.6299 41.2908C41.0139 40.8843 41.3113 40.4041 41.5041 39.8792C41.6969 39.3543 41.781 38.7958 41.7514 38.2374C42.6217 37.9832 43.3863 37.4541 43.9307 36.729C44.4751 36.004 44.7701 35.1222 44.7714 34.2155V29.8674C44.7707 29.2027 44.6118 28.5478 44.3077 27.9568C44.0036 27.3657 43.563 26.8557 43.0226 26.4688ZM30.4592 43.625H27.2591C26.8342 43.625 26.4268 43.4562 26.1263 43.1558C25.8259 42.8554 25.6571 42.4479 25.6571 42.023C25.6571 41.5981 25.8259 41.1906 26.1263 40.8902C26.4268 40.5898 26.8342 40.421 27.2591 40.421H30.4597C30.8846 40.421 31.2921 40.5898 31.5925 40.8902C31.8929 41.1906 32.0617 41.5981 32.0617 42.023C32.0617 42.4479 31.8929 42.8554 31.5925 43.1558C31.2921 43.4562 30.884 43.625 30.4592 43.625ZM18.9881 26.9953V37.0882C18.9881 37.1398 18.9676 37.1893 18.9311 37.2258C18.8946 37.2623 18.8451 37.2828 18.7935 37.2828H16.9057C16.2287 37.2821 15.5796 37.0128 15.101 36.534C14.6223 36.0552 14.3531 35.4061 14.3525 34.7291V29.3544C14.3531 28.6773 14.6224 28.0281 15.1012 27.5493C15.58 27.0705 16.2292 26.8012 16.9063 26.8006H18.7935C18.8191 26.8006 18.8444 26.8055 18.868 26.8153C18.8917 26.825 18.9132 26.8394 18.9313 26.8575C18.9494 26.8756 18.9637 26.897 18.9734 26.9207C18.9832 26.9443 18.9882 26.9697 18.9881 26.9953ZM30.3326 15.7531H27.582C24.9242 15.7573 22.3722 16.7949 20.4656 18.6467C18.5591 20.4984 17.4475 23.0191 17.3659 25.6756H16.9057C16.6735 25.6762 16.4418 25.6988 16.2139 25.7431V25.5463C16.218 22.5838 17.3971 19.7439 19.4924 17.6496C21.5878 15.5553 24.4282 14.3777 27.3907 14.375H30.7264C33.6881 14.3784 36.5276 15.5565 38.6218 17.6508C40.7161 19.745 41.8942 22.5845 41.8976 25.5463V25.8916C41.4629 25.7462 41.0071 25.6735 40.5487 25.6762C40.4672 23.0195 39.3557 20.4988 37.4491 18.6469C35.5426 16.795 32.9905 15.7573 30.3326 15.7531ZM43.647 34.2155C43.6461 35.0287 43.3226 35.8084 42.7476 36.3834C42.1726 36.9585 41.3929 37.2819 40.5797 37.2828H39.206C39.1544 37.2828 39.1049 37.2623 39.0684 37.2258C39.0319 37.1893 39.0114 37.1398 39.0114 37.0882V26.9953C39.0114 26.9697 39.0165 26.9444 39.0262 26.9209C39.036 26.8973 39.0504 26.8759 39.0685 26.8578C39.0865 26.8398 39.108 26.8255 39.1316 26.8158C39.1552 26.8061 39.1805 26.8011 39.206 26.8012H40.5797C41.3928 26.8021 42.1724 27.1255 42.7474 27.7004C43.3224 28.2753 43.6459 29.0548 43.647 29.8679V34.2155Z" fill="#002147"/>
</g>
<defs>
<clipPath id="clip0_144_5990">
<rect width="58.2114" height="58.2114" fill="white"/>
</clipPath>
</defs>
</svg>
