<svg width="72" height="73" viewBox="0 0 72 73" fill="none" xmlns="http://www.w3.org/2000/svg">
<g filter="url(#filter0_d_1058_836)">
<path d="M6 36.7988C6 20.2303 19.4315 6.79883 36 6.79883V6.79883C52.5685 6.79883 66 20.2303 66 36.7988V36.7988C66 53.3674 52.5685 66.7988 36 66.7988V66.7988C19.4315 66.7988 6 53.3674 6 36.7988V36.7988Z" fill="#002146" fill-opacity="0.1" shape-rendering="crispEdges"/>
<g clip-path="url(#clip0_1058_836)">
<path d="M53.8001 30.6091L49.5161 26.325C49.4106 26.2195 49.2676 26.1603 49.1184 26.1602H31.9825C31.8333 26.1603 31.6903 26.2195 31.5848 26.325L27.3008 30.6091C27.2484 30.6614 27.2069 30.7237 27.1786 30.7922C27.1503 30.8607 27.1359 30.9341 27.136 31.0082C27.1362 31.0823 27.151 31.1556 27.1796 31.2239C27.2082 31.2923 27.25 31.3543 27.3027 31.4065L40.2166 44.1963C40.3219 44.3008 40.4642 44.3593 40.6125 44.3592C40.6864 44.3593 40.7595 44.3448 40.8278 44.3165C40.896 44.2882 40.958 44.2467 41.0102 44.1944L53.8 31.4046C53.8523 31.3523 53.8937 31.2903 53.922 31.2221C53.9503 31.1538 53.9648 31.0807 53.9648 31.0068C53.9648 30.933 53.9503 30.8598 53.922 30.7916C53.8938 30.7233 53.8523 30.6613 53.8001 30.6091ZM44.054 31.5692L40.5558 42.0638L37.0477 31.5692H44.054ZM37.6245 30.4442L40.5506 27.5182L43.4765 30.4442H37.6245ZM41.9084 27.2852H47.7604L44.8344 30.2113L41.9084 27.2852ZM36.2666 30.2113L33.3406 27.2852H39.1926L36.2666 30.2113ZM35.8615 31.5692L39.2248 41.6305L29.0659 31.5692H35.8615ZM45.2398 31.5692H52.0444L41.8376 41.7761L45.2398 31.5692ZM46.1924 30.4442L49.1183 27.5182L52.0443 30.4442H46.1924ZM31.9826 27.5183L34.9085 30.4443H29.0566L31.9826 27.5183ZM39.988 24.0339V19.8301C39.988 19.6809 40.0472 19.5378 40.1527 19.4323C40.2582 19.3268 40.4013 19.2676 40.5505 19.2676C40.6997 19.2676 40.8427 19.3268 40.9482 19.4323C41.0537 19.5378 41.113 19.6809 41.113 19.8301V24.0339C41.113 24.183 41.0537 24.3261 40.9482 24.4316C40.8427 24.5371 40.6997 24.5964 40.5505 24.5964C40.4013 24.5964 40.2582 24.5371 40.1527 24.4316C40.0472 24.3261 39.988 24.183 39.988 24.0339ZM44.6754 24.4841L46.7655 21.089C46.845 20.9648 46.9701 20.8768 47.1139 20.8439C47.2576 20.8111 47.4085 20.836 47.5341 20.9133C47.6597 20.9906 47.7499 21.1141 47.7853 21.2572C47.8207 21.4004 47.7985 21.5517 47.7235 21.6787L45.6334 25.0738C45.5947 25.1367 45.544 25.1914 45.4841 25.2347C45.4243 25.2781 45.3565 25.3092 45.2846 25.3263C45.2127 25.3434 45.1382 25.3462 45.0653 25.3344C44.9923 25.3227 44.9224 25.2967 44.8595 25.2579C44.7966 25.2192 44.7419 25.1685 44.6986 25.1086C44.6553 25.0488 44.6242 24.981 44.6071 24.9091C44.59 24.8373 44.5872 24.7627 44.599 24.6898C44.6107 24.6169 44.6366 24.547 44.6754 24.4841ZM33.3774 21.6787C33.3007 21.5517 33.2772 21.3996 33.3122 21.2554C33.3471 21.1112 33.4376 20.9866 33.564 20.9088C33.6904 20.8311 33.8423 20.8063 33.9868 20.8401C34.1313 20.8738 34.2566 20.9633 34.3354 21.089L36.4255 24.4841C36.478 24.5693 36.5068 24.667 36.509 24.767C36.5111 24.867 36.4865 24.9658 36.4378 25.0532C36.389 25.1405 36.3178 25.2133 36.2316 25.264C36.1453 25.3147 36.0471 25.3415 35.9471 25.3415C35.8509 25.3416 35.7563 25.3171 35.6724 25.2702C35.5884 25.2234 35.5179 25.1558 35.4675 25.0738L33.3774 21.6787ZM51.1758 45.0676C50.4638 44.6566 49.6369 44.5466 48.8474 44.7582L39.5115 47.2596C39.6039 46.7752 39.5877 46.2712 39.4577 45.7781C39.2297 44.9135 38.6819 44.1913 37.9152 43.7446L29.5462 38.8687C29.5244 38.856 29.5019 38.8448 29.4787 38.8351C28.1821 38.297 26.8671 38.2958 25.5705 38.8316L22.567 40.0723V39.5655C22.567 38.9508 22.0669 38.4507 21.4522 38.4507H19.15C18.5353 38.4507 18.0352 38.9508 18.0352 39.5655V52.0218C18.0352 52.6366 18.5353 53.1367 19.15 53.1367H21.4521C22.0668 53.1367 22.5669 52.6366 22.5669 52.0218V51.4966C24.1455 50.8525 25.4235 50.8927 26.7954 51.6195L31.6486 54.1905C32.5034 54.6432 33.3439 54.8683 34.1916 54.8683C34.6267 54.8683 35.0638 54.8089 35.5054 54.6907L50.4368 50.69C52.0719 50.2519 53.0457 48.5649 52.6077 46.9296C52.3964 46.14 51.8879 45.4787 51.1758 45.0676ZM19.1602 52.0118V39.5757H21.442V52.0118H19.1602ZM50.1457 49.6033L35.2144 53.604C34.2002 53.8757 33.2061 53.7424 32.1754 53.1964L27.3222 50.6254C25.7728 49.8046 24.2807 49.6951 22.5671 50.2938V41.2896L26.0002 39.8714C27.0141 39.4524 28.0001 39.4487 29.0134 39.8603L37.3489 44.7167C37.8559 45.0121 38.2185 45.4909 38.3699 46.065C38.5213 46.6391 38.442 47.2344 38.1466 47.7414C37.8507 48.2493 37.372 48.6122 36.7987 48.7634C36.2254 48.9146 35.6299 48.8348 35.122 48.539L30.6514 45.9344C30.5225 45.8598 30.3694 45.8394 30.2255 45.8776C30.0816 45.9158 29.9587 46.0095 29.8837 46.1381C29.8088 46.2668 29.7879 46.4199 29.8256 46.5639C29.8634 46.7079 29.9567 46.8311 30.0851 46.9064L34.5557 49.511C35.0698 49.8105 35.6425 49.9636 36.2244 49.9636C36.5112 49.9636 36.8002 49.9264 37.0856 49.8512C37.8449 49.6509 38.4945 49.203 38.9444 48.5763L49.1387 45.8449C49.638 45.7112 50.1616 45.7811 50.6134 46.0419C51.0652 46.3027 51.3875 46.7214 51.5212 47.2206C51.7987 48.2569 51.1817 49.3258 50.1457 49.6033Z" fill="#002147"/>
</g>
</g>
<defs>
<filter id="filter0_d_1058_836" x="0" y="0.798828" width="72" height="72" filterUnits="userSpaceOnUse" color-interpolation-filters="sRGB">
<feFlood flood-opacity="0" result="BackgroundImageFix"/>
<feColorMatrix in="SourceAlpha" type="matrix" values="0 0 0 0 0 0 0 0 0 0 0 0 0 0 0 0 0 0 127 0" result="hardAlpha"/>
<feMorphology radius="6" operator="dilate" in="SourceAlpha" result="effect1_dropShadow_1058_836"/>
<feOffset/>
<feComposite in2="hardAlpha" operator="out"/>
<feColorMatrix type="matrix" values="0 0 0 0 0.960784 0 0 0 0 0.968627 0 0 0 0 0.996078 0 0 0 1 0"/>
<feBlend mode="normal" in2="BackgroundImageFix" result="effect1_dropShadow_1058_836"/>
<feBlend mode="normal" in="SourceGraphic" in2="effect1_dropShadow_1058_836" result="shape"/>
</filter>
<clipPath id="clip0_1058_836">
<rect width="36" height="36" fill="white" transform="translate(18 19.0723)"/>
</clipPath>
</defs>
</svg>
