<svg width="73" height="73" viewBox="0 0 73 73" fill="none" xmlns="http://www.w3.org/2000/svg">
<rect x="0.740234" y="0.467773" width="72" height="72" rx="36" fill="white" fill-opacity="0.07"/>
<path d="M49.7059 23.3927H23.7747C22.0853 23.3927 20.7109 24.7671 20.7109 26.4563V45.5455C20.7109 47.2348 22.0853 48.6092 23.7747 48.6092H49.7059C51.3953 48.6092 52.7697 47.2348 52.7697 45.5455V26.4563C52.7697 24.767 51.3953 23.3927 49.7059 23.3927ZM23.7747 24.5927H49.7059C50.7336 24.5927 51.5697 25.4287 51.5697 26.4563V29.0229H21.9109V26.4563C21.9109 25.4287 22.747 24.5927 23.7747 24.5927ZM49.7059 47.4092H23.7747C22.747 47.4092 21.9109 46.5731 21.9109 45.5455V30.2229H51.5697V45.5455C51.5697 46.5731 50.7336 47.4091 49.7059 47.4091V47.4092Z" fill="white"/>
<path d="M23.5015 27.0972C23.5159 27.1332 23.5351 27.1684 23.5567 27.2012C23.6 27.2671 23.6564 27.3235 23.7223 27.3668C23.7543 27.3884 23.7895 27.4068 23.8255 27.422C23.8623 27.4372 23.8999 27.4484 23.9383 27.4564C24.035 27.4752 24.1348 27.4702 24.2291 27.4416C24.3233 27.413 24.4092 27.3618 24.4791 27.2924C24.5071 27.2644 24.5319 27.234 24.5543 27.2012C24.5759 27.1684 24.5943 27.1332 24.6095 27.0972C24.6247 27.0612 24.6359 27.0236 24.6439 26.9852C24.6629 26.8883 24.6578 26.7883 24.6291 26.6938C24.6003 26.5994 24.5488 26.5134 24.4791 26.4436C24.4516 26.4154 24.421 26.3904 24.3879 26.3692C24.3559 26.3476 24.3207 26.3284 24.2847 26.314C24.1753 26.2681 24.0546 26.2561 23.9383 26.2796C23.8999 26.2876 23.8623 26.2988 23.8255 26.314C23.7895 26.3284 23.7543 26.3476 23.7223 26.3692C23.6895 26.3908 23.6583 26.4156 23.6311 26.4436C23.5187 26.5561 23.4555 26.7086 23.4551 26.8676C23.4554 26.9464 23.4712 27.0244 23.5015 27.0972ZM25.7359 27.0972C25.7511 27.1332 25.7695 27.1684 25.7911 27.2012C25.8127 27.234 25.8383 27.2644 25.8655 27.2924C25.9786 27.4042 26.1312 27.4671 26.2903 27.4676C26.4479 27.4676 26.6031 27.4036 26.7143 27.2924C26.7423 27.2644 26.7671 27.234 26.7887 27.2012C26.8103 27.1684 26.8295 27.1332 26.8439 27.0972C26.8591 27.0612 26.8711 27.0236 26.8783 26.9852C26.8863 26.946 26.8903 26.9068 26.8903 26.8676C26.8903 26.8284 26.8863 26.7892 26.8783 26.7508C26.8711 26.7124 26.8591 26.6748 26.8439 26.638C26.8295 26.602 26.8103 26.5676 26.7887 26.5348C26.7671 26.502 26.7423 26.4708 26.7143 26.4436C26.6017 26.3312 26.4493 26.268 26.2903 26.2676C26.1319 26.2676 25.9775 26.3316 25.8655 26.4436C25.8383 26.4708 25.8127 26.502 25.7911 26.5348C25.7695 26.5676 25.7511 26.602 25.7359 26.638C25.7207 26.6748 25.7095 26.7124 25.7015 26.7508C25.6943 26.7892 25.6903 26.8284 25.6903 26.8676C25.6903 26.9068 25.6943 26.946 25.7015 26.9852C25.7095 27.0236 25.7207 27.0612 25.7359 27.0972ZM28.0015 27.0972C28.0167 27.1332 28.0351 27.1684 28.0567 27.2012C28.0783 27.234 28.1039 27.2644 28.1311 27.2924C28.1591 27.3196 28.1895 27.3444 28.2223 27.3668C28.2551 27.3884 28.2895 27.4068 28.3263 27.422C28.3623 27.4372 28.3999 27.4484 28.4383 27.4564C28.4767 27.4636 28.5167 27.4676 28.5559 27.4676C28.5943 27.4676 28.6343 27.4636 28.6727 27.4564C28.7111 27.4484 28.7487 27.4372 28.7847 27.422C28.8215 27.4068 28.8559 27.3884 28.8887 27.3668C28.9215 27.3444 28.9519 27.3196 28.9799 27.2924C29.0071 27.2644 29.0327 27.234 29.0543 27.2012C29.0759 27.1684 29.0943 27.1332 29.1095 27.0972C29.1398 27.0244 29.1555 26.9464 29.1559 26.8676C29.1559 26.71 29.0919 26.5548 28.9799 26.4436C28.9519 26.4156 28.9215 26.3908 28.8887 26.3692C28.8231 26.3258 28.7497 26.2954 28.6727 26.2796C28.5953 26.2644 28.5157 26.2644 28.4383 26.2796C28.3612 26.2954 28.2879 26.3258 28.2223 26.3692C28.1895 26.3908 28.1591 26.4156 28.1311 26.4436C28.0191 26.5564 27.9559 26.7086 27.9551 26.8676C27.9555 26.9464 27.9712 27.0244 28.0015 27.0972ZM33.4232 27.4678H48.0872C48.2463 27.4678 48.3989 27.4046 48.5114 27.2921C48.6239 27.1796 48.6872 27.0269 48.6872 26.8678C48.6872 26.7087 48.6239 26.5561 48.5114 26.4436C48.3989 26.331 48.2463 26.2678 48.0872 26.2678H33.4232C33.264 26.2678 33.1114 26.331 32.9989 26.4436C32.8864 26.5561 32.8232 26.7087 32.8232 26.8678C32.8232 27.0269 32.8864 27.1796 32.9989 27.2921C33.1114 27.4046 33.264 27.4678 33.4232 27.4678ZM41.8071 39.537C41.7514 39.4813 41.6852 39.4371 41.6124 39.4069C41.5396 39.3768 41.4616 39.3612 41.3828 39.3612C41.304 39.3612 41.2259 39.3768 41.1531 39.4069C41.0803 39.4371 41.0142 39.4813 40.9584 39.537L38.7996 41.6958C38.6871 41.8083 38.6239 41.9609 38.6239 42.1201C38.6239 42.2792 38.6871 42.4318 38.7996 42.5443L40.9584 44.7031C41.0756 44.8203 41.2292 44.8789 41.3828 44.8789C41.5363 44.8789 41.6899 44.8203 41.8071 44.7031C41.9196 44.5906 41.9828 44.438 41.9828 44.2789C41.9828 44.1197 41.9196 43.9671 41.8071 43.8546L40.0724 42.1201L41.8071 40.3855C41.9196 40.273 41.9828 40.1204 41.9828 39.9613C41.9828 39.8021 41.9196 39.6495 41.8071 39.537ZM48.082 39.537C47.9689 39.4276 47.8173 39.3671 47.6599 39.3684C47.5025 39.3697 47.3519 39.4328 47.2406 39.5441C47.1293 39.6554 47.0662 39.8059 47.0649 39.9633C47.0635 40.1207 47.1241 40.2723 47.2335 40.3855L48.9681 42.1201L47.2335 43.8546C47.1774 43.9102 47.1328 43.9764 47.1023 44.0493C47.0718 44.1222 47.0561 44.2004 47.0559 44.2794C47.0557 44.3584 47.0712 44.4367 47.1013 44.5097C47.1315 44.5828 47.1758 44.6491 47.2317 44.705C47.2875 44.7609 47.3539 44.8052 47.4269 44.8353C47.5 44.8655 47.5782 44.8809 47.6572 44.8807C47.7363 44.8805 47.8145 44.8648 47.8874 44.8343C47.9603 44.8038 48.0264 44.7592 48.082 44.7031L50.2409 42.5443C50.3534 42.4318 50.4166 42.2792 50.4166 42.1201C50.4166 41.9609 50.3534 41.8083 50.2409 41.6958L48.082 39.537ZM45.5314 38.4367C45.4558 38.4144 45.3766 38.4072 45.2982 38.4156C45.2198 38.4239 45.1439 38.4477 45.0747 38.4854C45.0055 38.5231 44.9444 38.5741 44.895 38.6354C44.8455 38.6968 44.8086 38.7673 44.7864 38.8429L42.872 45.3463C42.8456 45.4358 42.8405 45.5302 42.857 45.6221C42.8735 45.7139 42.9112 45.8007 42.9671 45.8754C43.023 45.9501 43.0956 46.0108 43.1791 46.0525C43.2625 46.0943 43.3546 46.116 43.4479 46.1159C43.5774 46.1158 43.7034 46.0738 43.8071 45.9961C43.9108 45.9185 43.9866 45.8094 44.0232 45.6851L45.9375 39.1817C45.9824 39.0291 45.9649 38.8648 45.8887 38.7251C45.8126 38.5854 45.684 38.4816 45.5314 38.4367ZM24.5834 33.9273H25.2722C25.4313 33.9273 25.5839 33.8641 25.6965 33.7516C25.809 33.6391 25.8722 33.4865 25.8722 33.3273C25.8722 33.1682 25.809 33.0156 25.6965 32.9031C25.5839 32.7906 25.4313 32.7273 25.2722 32.7273H24.5834C24.4243 32.7273 24.2717 32.7906 24.1591 32.9031C24.0466 33.0156 23.9834 33.1682 23.9834 33.3273C23.9834 33.4865 24.0466 33.6391 24.1591 33.7516C24.2717 33.8641 24.4243 33.9273 24.5834 33.9273ZM35.6732 32.7273H28.3259C28.1667 32.7273 28.0141 32.7906 27.9016 32.9031C27.7891 33.0156 27.7259 33.1682 27.7259 33.3273C27.7259 33.4865 27.7891 33.6391 27.9016 33.7516C28.0141 33.8641 28.1667 33.9273 28.3259 33.9273H35.6732C35.8324 33.9273 35.985 33.8641 36.0975 33.7516C36.21 33.6391 36.2732 33.4865 36.2732 33.3273C36.2732 33.1682 36.21 33.0156 36.0975 32.9031C35.985 32.7906 35.8324 32.7273 35.6732 32.7273ZM24.5834 37.0193H28.5555C28.7146 37.0193 28.8672 36.9561 28.9797 36.8436C29.0923 36.7311 29.1555 36.5785 29.1555 36.4193C29.1555 36.2602 29.0923 36.1076 28.9797 35.9951C28.8672 35.8826 28.7146 35.8193 28.5555 35.8193H24.5834C24.4243 35.8193 24.2717 35.8826 24.1591 35.9951C24.0466 36.1076 23.9834 36.2602 23.9834 36.4193C23.9834 36.5785 24.0466 36.7311 24.1591 36.8436C24.2717 36.9561 24.4243 37.0193 24.5834 37.0193ZM31.5556 37.0193C31.7148 37.0193 31.8674 36.9561 31.9799 36.8436C32.0924 36.7311 32.1556 36.5785 32.1556 36.4193C32.1556 36.2602 32.0924 36.1076 31.9799 35.9951C31.8674 35.8826 31.7148 35.8193 31.5556 35.8193H30.9434C30.7843 35.8193 30.6317 35.8826 30.5191 35.9951C30.4066 36.1076 30.3434 36.2602 30.3434 36.4193C30.3434 36.5785 30.4066 36.7311 30.5191 36.8436C30.6317 36.9561 30.7843 37.0193 30.9434 37.0193H31.5556ZM35.6732 35.8193H33.9742C33.8954 35.8193 33.8174 35.8349 33.7446 35.865C33.6718 35.8952 33.6056 35.9394 33.5499 35.9951C33.4942 36.0508 33.45 36.1169 33.4199 36.1897C33.3897 36.2625 33.3742 36.3405 33.3742 36.4193C33.3742 36.4981 33.3897 36.5762 33.4199 36.6489C33.45 36.7217 33.4942 36.7879 33.5499 36.8436C33.6056 36.8993 33.6718 36.9435 33.7446 36.9737C33.8174 37.0038 33.8954 37.0193 33.9742 37.0193H35.6732C35.8324 37.0193 35.985 36.9561 36.0975 36.8436C36.21 36.7311 36.2732 36.5785 36.2732 36.4193C36.2732 36.2602 36.21 36.1076 36.0975 35.9951C35.985 35.8826 35.8324 35.8193 35.6732 35.8193ZM24.5834 40.1113H25.2722C25.4313 40.1113 25.5839 40.0481 25.6965 39.9356C25.809 39.8231 25.8722 39.6705 25.8722 39.5113C25.8722 39.3522 25.809 39.1996 25.6965 39.0871C25.5839 38.9746 25.4313 38.9113 25.2722 38.9113H24.5834C24.4243 38.9113 24.2717 38.9746 24.1591 39.0871C24.0466 39.1996 23.9834 39.3522 23.9834 39.5113C23.9834 39.6705 24.0466 39.8231 24.1591 39.9356C24.2717 40.0481 24.4243 40.1113 24.5834 40.1113ZM35.6732 38.9113H28.3259C28.1667 38.9113 28.0141 38.9746 27.9016 39.0871C27.7891 39.1996 27.7259 39.3522 27.7259 39.5113C27.7259 39.6705 27.7891 39.8231 27.9016 39.9356C28.0141 40.0481 28.1667 40.1113 28.3259 40.1113H35.6732C35.8324 40.1113 35.985 40.0481 36.0975 39.9356C36.21 39.8231 36.2732 39.6705 36.2732 39.5113C36.2732 39.3522 36.21 39.1996 36.0975 39.0871C35.985 38.9746 35.8324 38.9113 35.6732 38.9113ZM28.5555 42.0033H24.5834C24.4243 42.0033 24.2717 42.0666 24.1591 42.1791C24.0466 42.2916 23.9834 42.4442 23.9834 42.6033C23.9834 42.7625 24.0466 42.9151 24.1591 43.0276C24.2717 43.1401 24.4243 43.2033 24.5834 43.2033H28.5555C28.7146 43.2033 28.8672 43.1401 28.9797 43.0276C29.0923 42.9151 29.1555 42.7625 29.1555 42.6033C29.1555 42.4442 29.0923 42.2916 28.9797 42.1791C28.8672 42.0666 28.7146 42.0033 28.5555 42.0033ZM31.5556 42.0033H30.9434C30.7843 42.0033 30.6317 42.0666 30.5191 42.1791C30.4066 42.2916 30.3434 42.4442 30.3434 42.6033C30.3434 42.7625 30.4066 42.9151 30.5191 43.0276C30.6317 43.1401 30.7843 43.2033 30.9434 43.2033H31.5556C31.7148 43.2033 31.8674 43.1401 31.9799 43.0276C32.0924 42.9151 32.1556 42.7625 32.1556 42.6033C32.1556 42.4442 32.0924 42.2916 31.9799 42.1791C31.8674 42.0666 31.7148 42.0033 31.5556 42.0033ZM35.6732 42.0033H33.9742C33.8151 42.0033 33.6625 42.0666 33.5499 42.1791C33.4374 42.2916 33.3742 42.4442 33.3742 42.6033C33.3742 42.7625 33.4374 42.9151 33.5499 43.0276C33.6625 43.1401 33.8151 43.2033 33.9742 43.2033H35.6732C35.8324 43.2033 35.985 43.1401 36.0975 43.0276C36.21 42.9151 36.2732 42.7625 36.2732 42.6033C36.2732 42.4442 36.21 42.2916 36.0975 42.1791C35.985 42.0666 35.8324 42.0033 35.6732 42.0033Z" fill="white"/>
</svg>
