<svg width="72" height="73" viewBox="0 0 72 73" fill="none" xmlns="http://www.w3.org/2000/svg">
<rect x="-0.00195312" y="0.467773" width="72" height="72" rx="36" fill="white" fill-opacity="0.07"/>
<g clip-path="url(#clip0_1058_731)">
<path d="M28.4409 31.534C28.2276 31.3207 27.8809 31.3207 27.6676 31.534C27.4538 31.7478 27.4538 32.094 27.6676 32.3073C27.8809 32.5211 28.2276 32.5211 28.4409 32.3073C28.6546 32.094 28.6546 31.7478 28.4409 31.534ZM35.8468 46.4841C36.0879 46.1575 36.2183 45.764 36.2183 45.3503C36.2183 44.2949 35.3597 43.4363 34.3043 43.4363H25.0077C24.4962 43.4363 24.0156 43.6353 23.6542 43.9968C23.2928 44.3581 23.0937 44.8388 23.0937 45.3503C23.0933 45.7582 23.224 46.1554 23.4664 46.4834C22.5956 46.9413 22 47.8545 22 48.9048V49.4517C22 49.7537 22.2449 49.9986 22.5469 49.9986H36.7651C37.0671 49.9986 37.312 49.7537 37.312 49.4517V48.9048C37.312 47.855 36.717 46.9421 35.8468 46.4841ZM24.4276 44.7701C24.5036 44.6937 24.594 44.6331 24.6936 44.5919C24.7932 44.5507 24.8999 44.5296 25.0077 44.5299H34.3043C34.7566 44.5299 35.1245 44.8979 35.1245 45.3502C35.1245 45.5695 35.0392 45.7755 34.8843 45.9304C34.8083 46.0068 34.7179 46.0673 34.6183 46.1085C34.5187 46.1498 34.412 46.1708 34.3042 46.1705H25.0077C24.5554 46.1705 24.1874 45.8025 24.1874 45.3502C24.1874 45.131 24.2727 44.9249 24.4276 44.7701ZM23.0937 48.9048C23.0937 48.0002 23.8297 47.2642 24.7343 47.2642H34.5777C35.4823 47.2642 36.2183 48.0002 36.2183 48.9048H23.0937Z" fill="white"/>
<path d="M49.4918 44.9745C49.3061 44.6867 49.0845 44.4322 48.8331 44.218L46.2778 41.9893C46.2576 41.9588 46.2343 41.9304 46.2084 41.9045C46.1653 41.8615 46.1152 41.8261 46.0602 41.7996L44.5149 40.4518L37.3624 34.2125C37.6552 33.9064 37.8164 33.5061 37.8164 33.0805C37.8164 32.642 37.6457 32.23 37.3355 31.9198C37.2037 31.7882 37.0504 31.6802 36.882 31.6006L37.5438 30.9388C37.7281 30.988 37.9181 31.013 38.109 31.0132C38.669 31.0131 39.2291 30.7999 39.6555 30.3736C40.0688 29.9603 40.2964 29.411 40.2964 28.8268C40.2964 28.2425 40.0688 27.6932 39.6555 27.2799L35.0154 22.6399C34.6021 22.2266 34.0527 21.999 33.4683 21.999C32.8842 21.999 32.335 22.2266 31.9218 22.6399C31.3506 23.2111 31.1626 24.022 31.3565 24.7517L24.7544 31.3538C24.5697 31.3046 24.3793 31.2797 24.1882 31.2797C23.6037 31.2797 23.0546 31.5071 22.6416 31.92C21.7887 32.7729 21.7887 34.1607 22.6416 35.0137L27.2817 39.6538C27.7082 40.0802 28.2684 40.2935 28.8285 40.2935C29.3888 40.2935 29.9489 40.0802 30.3754 39.6538C30.9466 39.0826 31.1346 38.2717 30.9407 37.542L31.601 36.8816C31.6815 37.0495 31.79 37.2025 31.9218 37.3339C32.2317 37.6438 32.6436 37.8145 33.082 37.8145C33.5072 37.8145 33.9073 37.6535 34.2138 37.3611L41.8321 46.114C41.8531 46.1468 41.8776 46.1781 41.9063 46.2067C41.9161 46.2165 41.9265 46.2254 41.9368 46.2343L44.2069 48.8425C44.264 48.9099 44.3239 48.9749 44.3863 49.0373C45.0098 49.6606 45.8333 49.9988 46.698 49.9988C46.8504 49.9988 47.0042 49.9883 47.1583 49.967C48.188 49.8245 49.0779 49.2085 49.5997 48.2767C50.1714 47.2555 50.1288 45.959 49.4918 44.9745ZM32.6952 23.4133C32.7965 23.3114 32.917 23.2306 33.0497 23.1756C33.1824 23.1206 33.3247 23.0924 33.4684 23.0928C33.6121 23.0924 33.7545 23.1205 33.8873 23.1755C34.0201 23.2306 34.1407 23.3114 34.2421 23.4133L38.8822 28.0534C38.9841 28.1547 39.0649 28.2752 39.1199 28.408C39.1749 28.5408 39.203 28.6831 39.2026 28.8268C39.203 28.9705 39.1749 29.1129 39.1199 29.2456C39.0649 29.3784 38.984 29.4989 38.8821 29.6003C38.4558 30.0267 37.7621 30.0267 37.3358 29.6003L32.6955 24.96L32.6952 24.9597C32.2688 24.5334 32.2688 23.8396 32.6952 23.4133ZM29.602 38.8804C29.1756 39.3069 28.4815 39.3069 28.0551 38.8804L23.415 34.2403C22.9885 33.8138 22.9885 33.1199 23.415 32.6934C23.6213 32.487 23.8959 32.3734 24.1882 32.3734C24.4804 32.3734 24.7549 32.487 24.9611 32.6932L29.602 37.3341C30.0284 37.7603 30.0284 38.4541 29.602 38.8804ZM31.9045 35.0315L30.3754 36.5607L25.7348 31.9201L31.9218 25.733L36.5623 30.3736L35.0304 31.9056C35.0254 31.9103 35.0205 31.9149 35.0153 31.92L31.9234 35.012C31.917 35.0183 31.9108 35.0249 31.9045 35.0315ZM33.8572 36.1723L33.8539 36.1756L33.4688 36.5607C33.4181 36.6116 33.3578 36.652 33.2914 36.6795C33.225 36.707 33.1538 36.721 33.082 36.7208C33.0101 36.721 32.9389 36.707 32.8725 36.6795C32.8061 36.652 32.7458 36.6116 32.6952 36.5606C32.6442 36.5099 32.6037 36.4496 32.5762 36.3831C32.5487 36.3167 32.5346 36.2454 32.5348 36.1735C32.5348 36.0303 32.5895 35.8956 32.6886 35.794L35.7949 32.6877C36.0078 32.4806 36.352 32.4832 36.5624 32.6934C36.6134 32.7441 36.6538 32.8044 36.6813 32.8709C36.7088 32.9373 36.7229 33.0086 36.7227 33.0805C36.7229 33.1524 36.7089 33.2235 36.6813 33.2899C36.6538 33.3563 36.6134 33.4165 36.5623 33.4671L36.1795 33.85C36.1768 33.8525 36.1742 33.8552 36.1716 33.8578L33.8572 36.1723ZM34.9896 36.5866L36.5879 34.9883L43.3551 40.891L40.8857 43.3604L34.9896 36.5866ZM41.6055 44.1874L44.1812 41.6116L45.0073 42.3322L42.3252 45.0144L41.6055 44.1874ZM48.6455 47.7424C48.2925 48.3726 47.6958 48.7885 47.0084 48.8836C46.3225 48.9786 45.6486 48.7526 45.1595 48.2638C45.1178 48.2221 45.0778 48.1787 45.0397 48.1336L45.0344 48.1275L43.0449 45.8414L45.8335 43.0528L48.1167 45.0443L48.1219 45.0489C48.2928 45.1942 48.4445 45.3687 48.5731 45.5681C48.9867 46.2071 49.0157 47.081 48.6455 47.7424Z" fill="white"/>
<path d="M32.3085 27.666C32.0949 27.4525 31.7487 27.4525 31.5351 27.666L29.2149 29.9863C29.0013 30.1999 29.0013 30.5461 29.2149 30.7596C29.2656 30.8105 29.3259 30.8508 29.3922 30.8783C29.4586 30.9058 29.5297 30.9199 29.6015 30.9198C29.6734 30.9199 29.7445 30.9058 29.8109 30.8783C29.8772 30.8508 29.9375 30.8105 29.9882 30.7596L32.3085 28.4394C32.5221 28.2259 32.5221 27.8796 32.3085 27.666Z" fill="white"/>
</g>
<defs>
<clipPath id="clip0_1058_731">
<rect width="28" height="28" fill="white" transform="translate(22 21.999)"/>
</clipPath>
</defs>
</svg>
