<svg width="15" height="16" viewBox="0 0 15 16" fill="none" xmlns="http://www.w3.org/2000/svg">
<g clip-path="url(#clip0_1088_7257)">
<path fill-rule="evenodd" clip-rule="evenodd" d="M1.30648e-06 0V9V9.03292C-2.48004e-05 9.47616 -4.61984e-05 9.85807 0.0410716 10.1639C0.0851375 10.4917 0.18451 10.8058 0.439341 11.0607C0.694172 11.3155 1.00835 11.4149 1.33611 11.4589C1.64194 11.5 2.02385 11.5 2.4671 11.5L2.5 11.5H12.3L8.5 15.3L9.2 16L14.2 11L9.2 6L8.5 6.7L12.3 10.5H2.5C2.01446 10.5 1.70061 10.4989 1.46935 10.4678C1.25248 10.4387 1.18451 10.3916 1.14645 10.3536C1.10839 10.3155 1.06131 10.2475 1.03215 10.0306C1.00106 9.79939 1 9.48554 1 9V0H1.30648e-06Z" fill="white"/>
</g>
<defs>
<clipPath id="clip0_1088_7257">
<rect width="14.2002" height="16" fill="white"/>
</clipPath>
</defs>
</svg>
