<svg width="59" height="59" viewBox="0 0 59 59" fill="none" xmlns="http://www.w3.org/2000/svg">
<g clip-path="url(#clip0_144_5999)">
<path d="M30.1082 0.4375H27.6504C12.3795 0.4375 0 12.817 0 28.0879V30.5457C0 45.8166 12.3795 58.1961 27.6504 58.1961H30.1082C45.3791 58.1961 57.7586 45.8166 57.7586 30.5457V28.0879C57.7586 12.817 45.3791 0.4375 30.1082 0.4375Z" fill="#EBF3FC"/>
<path d="M21.6345 33.2293C20.1018 34.177 16.0833 36.1121 18.5308 38.5336C19.7265 39.7165 21.0581 40.5625 22.7322 40.5625H32.2853C33.9595 40.5625 35.2911 39.7165 36.4867 38.5336C38.9343 36.1121 34.9158 34.177 33.3831 33.2293C29.789 31.0069 25.2286 31.0069 21.6345 33.2293Z" stroke="#002147" stroke-width="1.8" stroke-linecap="round" stroke-linejoin="round"/>
<path d="M32.7588 21.8125C32.7588 24.712 30.4083 27.0625 27.5088 27.0625C24.6093 27.0625 22.2588 24.712 22.2588 21.8125C22.2588 18.913 24.6093 16.5625 27.5088 16.5625C30.4083 16.5625 32.7588 18.913 32.7588 21.8125Z" stroke="#002147" stroke-width="1.8"/>
</g>
<defs>
<clipPath id="clip0_144_5999">
<rect width="58.2114" height="58.2114" fill="white"/>
</clipPath>
</defs>
</svg>
