<svg width="72" height="73" viewBox="0 0 72 73" fill="none" xmlns="http://www.w3.org/2000/svg">
<g filter="url(#filter0_d_1058_811)">
<path d="M6 36.7988C6 20.2303 19.4315 6.79883 36 6.79883V6.79883C52.5685 6.79883 66 20.2303 66 36.7988V36.7988C66 53.3674 52.5685 66.7988 36 66.7988V66.7988C19.4315 66.7988 6 53.3674 6 36.7988V36.7988Z" fill="#002146" fill-opacity="0.1" shape-rendering="crispEdges"/>
<path d="M36.0005 52.8223C38.7134 52.8222 41.3803 52.1214 43.7427 50.7878C46.1052 49.4542 48.0831 47.5329 49.4849 45.2102C50.8866 42.8875 51.6646 40.2421 51.7436 37.5304C51.8225 34.8186 51.1996 32.1325 49.9353 29.7322C49.8637 29.6034 49.7445 29.5078 49.6032 29.4659C49.4619 29.4241 49.3098 29.4394 49.1797 29.5085C49.0495 29.5777 48.9517 29.6951 48.9072 29.8356C48.8628 29.9761 48.8752 30.1284 48.9419 30.2598C50.0492 32.3598 50.6271 34.6983 50.6255 37.0723C49.8239 56.4712 22.177 56.4712 21.3755 37.0723C21.2405 26.2261 33.3005 18.9564 42.8135 24.1314C42.8787 24.166 42.9502 24.1874 43.0237 24.1944C43.0972 24.2014 43.1714 24.1939 43.2421 24.1722C43.3127 24.1505 43.3783 24.1151 43.4353 24.0681C43.4922 24.021 43.5394 23.9632 43.574 23.898C43.6086 23.8327 43.63 23.7613 43.637 23.6877C43.644 23.6142 43.6364 23.54 43.6148 23.4694C43.5931 23.3987 43.5577 23.3331 43.5107 23.2761C43.4636 23.2192 43.4058 23.1721 43.3405 23.1375C41.0781 21.9439 38.5584 21.3208 36.0005 21.3223C15.1092 22.1857 15.1092 51.9594 36.0005 52.8223Z" fill="#002147"/>
<path d="M36.0003 32.5723C36.4872 32.5719 36.9708 32.6527 37.4313 32.8113C37.5723 32.8599 37.7269 32.8504 37.861 32.785C37.995 32.7196 38.0976 32.6036 38.1462 32.4626C38.3937 31.4686 36.6415 31.508 36.0003 31.4473C28.5387 31.7555 28.5393 42.389 36.0003 42.6973C37.4916 42.6956 38.9214 42.1025 39.9759 41.0479C41.0305 39.9934 41.6236 38.5636 41.6253 37.0723C41.5679 36.4198 41.6056 34.6856 40.615 34.932C40.4741 34.9805 40.3582 35.083 40.2928 35.217C40.2274 35.3509 40.2179 35.5053 40.2663 35.6463C40.4229 36.1053 40.502 36.5873 40.5003 37.0723C40.2747 43.0331 31.7253 43.0331 31.5003 37.0723C31.5017 35.8792 31.9763 34.7355 32.8199 33.8919C33.6635 33.0483 34.8072 32.5738 36.0003 32.5723Z" fill="#002147"/>
<path d="M41.3852 28.4857C41.4211 28.4211 41.4438 28.35 41.4522 28.2766C41.4606 28.2032 41.4544 28.1288 41.4341 28.0577C41.4137 27.9867 41.3795 27.9204 41.3335 27.8625C41.2875 27.8047 41.2305 27.7565 41.1658 27.7207C39.5844 26.8454 37.8068 26.3858 35.9993 26.3848C21.8232 26.9709 21.8232 47.1742 35.9993 47.7598C37.8584 47.7609 39.6857 47.2767 41.3003 46.3551C42.915 45.4335 44.2612 44.1065 45.2057 42.5051C46.1503 40.9038 46.6605 39.0837 46.6859 37.2247C46.7114 35.3657 46.2512 33.5323 45.3508 31.9057C45.2785 31.7752 45.1572 31.6787 45.0138 31.6376C44.8703 31.5964 44.7164 31.614 44.5858 31.6863C44.4553 31.7587 44.3589 31.8799 44.3177 32.0234C44.2766 32.1669 44.2941 32.3208 44.3665 32.4513C47.9327 38.6343 43.143 46.7585 35.9993 46.6348C33.464 46.6319 31.0334 45.6236 29.2407 43.8309C27.448 42.0381 26.4396 39.6075 26.4368 37.0723C26.3142 29.9291 34.4361 25.1388 40.6202 28.7051C40.6848 28.7411 40.7559 28.764 40.8293 28.7724C40.9028 28.7809 40.9772 28.7748 41.0483 28.7544C41.1194 28.734 41.1858 28.6998 41.2436 28.6537C41.3014 28.6075 41.3495 28.5505 41.3852 28.4857Z" fill="#002147"/>
<path d="M42.4832 26.8886L42.6896 29.5869L35.6032 36.6733C35.5007 36.7794 35.4441 36.9214 35.4453 37.0689C35.4466 37.2164 35.5058 37.3575 35.6101 37.4618C35.7144 37.5661 35.8554 37.6252 36.0029 37.6265C36.1504 37.6278 36.2925 37.5711 36.3986 37.4686L43.485 30.3823L46.1833 30.5887C46.2641 30.5949 46.3453 30.5835 46.4213 30.5553C46.4974 30.5272 46.5664 30.4829 46.6237 30.4256L50.7176 26.3317C50.792 26.255 50.8432 26.1588 50.8653 26.0543C50.8874 25.9497 50.8794 25.841 50.8424 25.7408C50.8053 25.6406 50.7407 25.5529 50.6559 25.4878C50.5711 25.4228 50.4696 25.383 50.3632 25.3732L47.8882 25.1836L47.6987 22.7086C47.6888 22.6022 47.6491 22.5008 47.584 22.416C47.519 22.3312 47.4313 22.2665 47.331 22.2295C47.2308 22.1924 47.1221 22.1845 47.0176 22.2066C46.913 22.2286 46.8168 22.2798 46.7402 22.3543L42.6463 26.4481C42.5889 26.5054 42.5446 26.5745 42.5164 26.6505C42.4883 26.7265 42.4769 26.8077 42.4832 26.8886ZM46.6704 24.0148C46.8954 26.6343 46.4522 26.1731 49.0571 26.4015L46.0112 29.4474L43.7943 29.2775L43.6245 27.0613L46.6704 24.0148Z" fill="#002147"/>
</g>
<defs>
<filter id="filter0_d_1058_811" x="0" y="0.798828" width="72" height="72" filterUnits="userSpaceOnUse" color-interpolation-filters="sRGB">
<feFlood flood-opacity="0" result="BackgroundImageFix"/>
<feColorMatrix in="SourceAlpha" type="matrix" values="0 0 0 0 0 0 0 0 0 0 0 0 0 0 0 0 0 0 127 0" result="hardAlpha"/>
<feMorphology radius="6" operator="dilate" in="SourceAlpha" result="effect1_dropShadow_1058_811"/>
<feOffset/>
<feComposite in2="hardAlpha" operator="out"/>
<feColorMatrix type="matrix" values="0 0 0 0 0.960784 0 0 0 0 0.968627 0 0 0 0 0.996078 0 0 0 1 0"/>
<feBlend mode="normal" in2="BackgroundImageFix" result="effect1_dropShadow_1058_811"/>
<feBlend mode="normal" in="SourceGraphic" in2="effect1_dropShadow_1058_811" result="shape"/>
</filter>
</defs>
</svg>
