<svg width="48" height="48" viewBox="0 0 48 48" fill="none" xmlns="http://www.w3.org/2000/svg">
<g clip-path="url(#clip0_205_4791)">
<path d="M44.7841 28.3198C44.3791 27.6436 42.7173 25.6354 38.3391 28.1851L30.6481 32.6647C30.2797 32.8793 29.9052 33.0333 29.5153 33.1286C29.6555 32.8944 29.7661 32.6317 29.8435 32.3429C30.2395 30.8649 29.3614 29.3219 27.8443 28.83C27.8142 28.8204 27.7834 28.8126 27.7523 28.8069C25.5436 28.4086 23.3628 27.6201 21.6107 26.9867C21.0015 26.7665 20.4261 26.5584 19.9367 26.3997C17.9598 25.7584 16.1748 26.5513 14.6894 27.4113L8.98552 30.7137L8.37073 29.6272C8.12991 29.2016 7.7366 28.8949 7.26322 28.7637C6.79002 28.6327 6.29484 28.6929 5.86927 28.9338L3.71138 30.1552C2.83063 30.6536 2.5195 31.7757 3.01801 32.6566L9.36222 43.8663C9.60313 44.2919 9.99644 44.5985 10.4697 44.7297C10.6334 44.7751 10.7998 44.7975 10.9649 44.7975C11.2772 44.7975 11.5853 44.7172 11.8638 44.5596L14.0217 43.3382C14.9024 42.8397 15.2135 41.7176 14.715 40.8368L14.1567 39.8503L15.4359 39.1118L25.2781 41.7491C25.8364 41.8987 26.3843 41.9735 26.9206 41.9735C27.9896 41.9734 29.0116 41.6764 29.9734 41.0844L43.9306 32.4901C45.2118 31.7011 45.6188 29.7133 44.7841 28.3198ZM13.3289 42.1145L11.171 43.3358C10.9685 43.4503 10.7006 43.3761 10.586 43.1735L4.2418 31.964C4.12719 31.7614 4.20146 31.4935 4.40396 31.3789L6.56185 30.1575C6.6254 30.1215 6.6972 30.1026 6.77024 30.1027C6.80926 30.1027 6.84873 30.1081 6.88758 30.1189C6.94192 30.1336 6.99281 30.1589 7.03731 30.1933C7.08182 30.2278 7.11905 30.2708 7.14685 30.3197V30.3198L13.4911 41.5295C13.6057 41.732 13.5313 41.9998 13.3289 42.1145ZM43.1932 31.2925L29.236 39.8868C28.1342 40.5651 26.9251 40.7347 25.642 40.3907L15.5184 37.6781C15.4293 37.6541 15.3362 37.648 15.2447 37.66C15.1531 37.6721 15.0649 37.7021 14.9849 37.7484L13.4641 38.6265L9.67837 31.9376L15.3942 28.6283C16.6727 27.888 18.0551 27.2678 19.503 27.7373C19.9703 27.8889 20.509 28.0836 21.1328 28.3091C22.9216 28.9558 25.1447 29.7596 27.452 30.1816C28.2445 30.4592 28.6875 31.2245 28.4854 31.9789C28.2195 32.9713 27.3918 33.095 26.7325 33.0196C25.6004 32.7867 24.5242 32.4797 23.3856 32.1544C22.8454 32.0002 22.287 31.8407 21.7129 31.6868C21.6237 31.6629 21.5307 31.6569 21.4391 31.6689C21.3476 31.681 21.2593 31.7109 21.1793 31.7571C21.0994 31.8033 21.0293 31.8647 20.9731 31.938C20.9169 32.0112 20.8756 32.0949 20.8517 32.184C20.8278 32.2732 20.8217 32.3663 20.8338 32.4578C20.8458 32.5494 20.8758 32.6376 20.922 32.7176C20.9681 32.7976 21.0296 32.8676 21.1029 32.9239C21.1761 32.9801 21.2597 33.0213 21.3489 33.0452C21.912 33.196 22.4648 33.354 22.9995 33.5066C24.1739 33.842 25.2833 34.1589 26.4781 34.4032C26.4827 34.4042 27.4625 34.5638 27.4625 34.5638C28.8981 34.7933 30.1715 34.5696 31.356 33.8799L39.0469 29.4003C41.2498 28.1171 42.9436 27.9835 43.5778 29.0424C44.0141 29.771 43.82 30.9066 43.1932 31.2925ZM7.26357 32.4561C7.29312 32.6583 7.24112 32.8639 7.11903 33.0278C6.99693 33.1917 6.81474 33.3004 6.61252 33.3299C6.41031 33.3595 6.20464 33.3075 6.04076 33.1854C5.87688 33.0633 5.76821 32.8811 5.73867 32.6789C5.72404 32.5787 5.72927 32.4767 5.75408 32.3786C5.77888 32.2805 5.82276 32.1882 5.88321 32.1071C5.94367 32.026 6.01951 31.9575 6.10642 31.9057C6.19333 31.8538 6.28959 31.8196 6.38972 31.805C6.48985 31.7904 6.59187 31.7956 6.68998 31.8204C6.78808 31.8452 6.88034 31.8891 6.96148 31.9496C7.04263 32.01 7.11107 32.0859 7.1629 32.1728C7.21473 32.2597 7.24894 32.3559 7.26357 32.4561ZM17.7525 17.3729L19.5748 18.0743C19.8389 19.0469 20.2265 19.9818 20.728 20.856L19.9349 22.6417C19.8773 22.7715 19.8603 22.9158 19.8862 23.0555C19.9122 23.1952 19.9798 23.3238 20.0803 23.4242L22.5771 25.9209C22.6776 26.0213 22.8062 26.089 22.9459 26.1149C23.0855 26.1409 23.2298 26.1239 23.3597 26.0662L25.146 25.2729C26.02 25.7743 26.9546 26.1618 27.927 26.4259L28.6286 28.2487C28.6797 28.3813 28.7697 28.4953 28.8868 28.5757C29.004 28.6561 29.1427 28.6992 29.2848 28.6992H32.8157C32.9578 28.6992 33.0965 28.6561 33.2136 28.5757C33.3308 28.4953 33.4208 28.3813 33.4719 28.2487L34.1732 26.4264C35.1459 26.1623 36.0808 25.7748 36.9551 25.2732L38.7407 26.0662C38.8706 26.1239 39.0149 26.1409 39.1546 26.115C39.2943 26.089 39.4228 26.0213 39.5233 25.9209L42.02 23.4242C42.1205 23.3237 42.1881 23.1951 42.2141 23.0554C42.24 22.9157 42.2231 22.7714 42.1654 22.6416L41.372 20.8553C41.8734 19.9813 42.2609 19.0467 42.525 18.0743L44.3478 17.3727C44.4804 17.3217 44.5944 17.2316 44.6748 17.1145C44.7553 16.9974 44.7983 16.8586 44.7983 16.7165V13.1856C44.7983 13.0435 44.7553 12.9048 44.6748 12.7876C44.5944 12.6705 44.4804 12.5805 44.3478 12.5294L42.5256 11.828C42.2614 10.8554 41.8739 9.92052 41.3723 9.04631L42.1653 7.26063C42.223 7.13078 42.24 6.98649 42.214 6.84679C42.1881 6.70709 42.1204 6.57854 42.0199 6.47806L39.5231 3.98144C39.4226 3.881 39.2941 3.81336 39.1544 3.78741C39.0147 3.76146 38.8704 3.77842 38.7405 3.83606L36.9543 4.62936C36.0803 4.12805 35.1457 3.74059 34.1734 3.47642L33.4718 1.65365C33.4207 1.52105 33.3307 1.40702 33.2136 1.3266C33.0964 1.24617 32.9577 1.20312 32.8156 1.20313H29.2848C29.1427 1.20314 29.004 1.24619 28.8869 1.32661C28.7697 1.40703 28.6797 1.52106 28.6286 1.65365L27.9269 3.47642C26.9546 3.74056 26.02 4.12802 25.146 4.62936L23.3597 3.83606C23.2298 3.77837 23.0855 3.76138 22.9458 3.78733C22.8061 3.81328 22.6776 3.88096 22.5771 3.98144L20.0804 6.47814C19.9799 6.57862 19.9123 6.70717 19.8863 6.84687C19.8603 6.98657 19.8773 7.13086 19.9349 7.26072L20.7282 9.04675C20.2268 9.92086 19.8393 10.8555 19.5751 11.828L17.7525 12.5296C17.6199 12.5806 17.5059 12.6707 17.4255 12.7878C17.345 12.9049 17.302 13.0437 17.302 13.1858V16.7167C17.302 16.8588 17.345 16.9976 17.4254 17.1147C17.5059 17.2318 17.6199 17.3219 17.7525 17.3729ZM18.7082 13.6687L20.4193 13.01C20.5259 12.969 20.6209 12.9026 20.696 12.8166C20.7712 12.7307 20.8243 12.6277 20.8508 12.5166C21.1075 11.4375 21.535 10.4064 22.117 9.46221C22.1769 9.36496 22.2122 9.25458 22.2198 9.14063C22.2274 9.02668 22.2072 8.91259 22.1609 8.80821L21.4161 7.13126L23.23 5.31729L24.9073 6.06216C25.0116 6.10854 25.1257 6.12879 25.2397 6.12114C25.3536 6.1135 25.464 6.0782 25.5613 6.0183C26.5054 5.4363 27.5365 5.00884 28.6155 4.75206C28.7265 4.72565 28.8295 4.67257 28.9155 4.59741C29.0014 4.52224 29.0678 4.42727 29.1088 4.32069L29.7675 2.60946H32.3328L32.9915 4.32069C33.0325 4.42727 33.0989 4.52224 33.1848 4.59741C33.2708 4.67257 33.3738 4.72565 33.4849 4.75206C34.5638 5.00889 35.5949 5.43635 36.5391 6.0183C36.6363 6.07822 36.7467 6.11354 36.8606 6.12118C36.9746 6.12882 37.0887 6.10856 37.1931 6.06216L38.8703 5.31729L40.6843 7.13117L39.9397 8.80777C39.8934 8.91216 39.8731 9.02628 39.8808 9.14025C39.8884 9.25422 39.9238 9.3646 39.9837 9.46185C40.5658 10.4062 40.9934 11.4374 41.2501 12.5167C41.2765 12.6278 41.3296 12.7308 41.4048 12.8167C41.48 12.9027 41.575 12.9691 41.6815 13.0101L43.3922 13.6686V16.2339L41.681 16.8927C41.5745 16.9337 41.4795 17 41.4043 17.086C41.3291 17.1719 41.276 17.2749 41.2496 17.386C40.9928 18.465 40.5653 19.496 39.9833 20.4401C39.9234 20.5373 39.8881 20.6477 39.8805 20.7617C39.8729 20.8756 39.8931 20.9897 39.9395 21.0941L40.6843 22.7713L38.8704 24.5853L37.1938 23.8407C37.0895 23.7943 36.9753 23.7741 36.8614 23.7817C36.7474 23.7894 36.637 23.8247 36.5398 23.8846C35.5954 24.4668 34.5641 24.8943 33.4849 25.151C33.3738 25.1774 33.2708 25.2305 33.1848 25.3057C33.0988 25.3808 33.0324 25.4758 32.9914 25.5824L32.333 27.2931H29.7675L29.1089 25.5819C29.0679 25.4753 29.0015 25.3803 28.9155 25.3051C28.8296 25.23 28.7266 25.1769 28.6155 25.1505C27.5365 24.8937 26.5054 24.4662 25.5613 23.8843C25.464 23.8244 25.3536 23.789 25.2397 23.7814C25.1257 23.7738 25.0116 23.794 24.9073 23.8404L23.23 24.5853L21.416 22.7714L22.1606 21.0948C22.207 20.9904 22.2272 20.8763 22.2195 20.7623C22.2119 20.6483 22.1766 20.538 22.1166 20.4407C21.5345 19.4964 21.107 18.4651 20.8502 17.3859C20.8238 17.2748 20.7707 17.1718 20.6955 17.0858C20.6203 16.9999 20.5254 16.9335 20.4188 16.8925L18.7081 16.234V13.6687H18.7082ZM32.2674 16.9623C32.3708 16.8426 32.4072 16.7085 32.3852 16.5276C32.3467 16.21 32.1478 15.82 30.9421 15.6221C29.0073 15.3045 28.555 14.2854 28.5162 13.4865C28.4636 12.4022 29.1969 11.4928 30.3471 11.2053V10.919C30.3471 10.7325 30.4212 10.5537 30.553 10.4218C30.6849 10.2899 30.8637 10.2159 31.0502 10.2159C31.2367 10.2159 31.4155 10.2899 31.5474 10.4218C31.6792 10.5537 31.7533 10.7325 31.7533 10.919V11.1989C32.4985 11.3767 33.2028 11.8583 33.5744 12.7433C33.6451 12.915 33.645 13.1076 33.5742 13.2792C33.5033 13.4508 33.3676 13.5874 33.1964 13.6592C33.0253 13.7311 32.8327 13.7324 32.6606 13.6628C32.4885 13.5932 32.3509 13.4584 32.2779 13.2877C31.992 12.6071 31.2908 12.4322 30.7226 12.5613C30.5833 12.5929 29.8899 12.7828 29.9208 13.4183C29.929 13.5868 29.9506 14.0343 31.1698 14.2344C32.7632 14.4961 33.6417 15.2104 33.7811 16.3581C33.8509 16.9339 33.6953 17.4609 33.3309 17.8822C32.9689 18.3008 32.4027 18.5972 31.7532 18.7213V18.9834C31.7532 19.1699 31.6792 19.3487 31.5473 19.4806C31.4154 19.6124 31.2366 19.6865 31.0501 19.6865C30.8636 19.6865 30.6848 19.6124 30.5529 19.4806C30.4211 19.3487 30.347 19.1699 30.347 18.9834V18.7094C29.3358 18.4867 28.5626 17.7939 28.3237 16.8354C28.2804 16.6552 28.3101 16.4651 28.4063 16.3066C28.5025 16.1482 28.6574 16.0341 28.8373 15.9892C29.0172 15.9444 29.2075 15.9724 29.3668 16.0671C29.5261 16.1619 29.6416 16.3158 29.6881 16.4952C29.856 17.1689 30.5615 17.3956 31.1165 17.3793C31.5992 17.3678 32.0616 17.2002 32.2674 16.9623ZM31.0502 22.0264C34.9515 22.0264 38.1254 18.8525 38.1254 14.9512C38.1254 11.05 34.9515 7.87604 31.0502 7.87604C27.1489 7.87604 23.975 11.05 23.975 14.9512C23.975 18.8525 27.1489 22.0264 31.0502 22.0264ZM31.0502 9.28229C34.176 9.28229 36.7191 11.8254 36.7191 14.9512C36.7191 18.0771 34.176 20.6202 31.0502 20.6202C27.9244 20.6202 25.3813 18.0771 25.3813 14.9512C25.3813 11.8254 27.9243 9.28229 31.0502 9.28229Z" fill="#002147"/>
</g>
<defs>
<clipPath id="clip0_205_4791">
<rect width="45" height="45" fill="white" transform="translate(1.33301 1)"/>
</clipPath>
</defs>
</svg>
