<svg width="46" height="46" viewBox="0 0 46 46" fill="none" xmlns="http://www.w3.org/2000/svg">
<g clip-path="url(#clip0_205_3510)">
<path d="M4.85449 17.5859H29.2295C29.4781 17.5859 29.7166 17.4872 29.8924 17.3114C30.0682 17.1355 30.167 16.8971 30.167 16.6484C30.167 16.3998 30.0682 16.1613 29.8924 15.9855C29.7166 15.8097 29.4781 15.7109 29.2295 15.7109H4.85449C4.60585 15.7109 4.3674 15.8097 4.19158 15.9855C4.01576 16.1613 3.91699 16.3998 3.91699 16.6484C3.91699 16.8971 4.01576 17.1355 4.19158 17.3114C4.3674 17.4872 4.60585 17.5859 4.85449 17.5859ZM4.85449 23.2109H20.792C21.0406 23.2109 21.2791 23.1122 21.4549 22.9364C21.6307 22.7605 21.7295 22.5221 21.7295 22.2734C21.7295 22.0248 21.6307 21.7863 21.4549 21.6105C21.2791 21.4347 21.0406 21.3359 20.792 21.3359H4.85449C4.60585 21.3359 4.3674 21.4347 4.19158 21.6105C4.01576 21.7863 3.91699 22.0248 3.91699 22.2734C3.91699 22.5221 4.01576 22.7605 4.19158 22.9364C4.3674 23.1122 4.60585 23.2109 4.85449 23.2109ZM4.85449 28.8359H17.5107C17.7594 28.8359 17.9978 28.7372 18.1737 28.5614C18.3495 28.3855 18.4482 28.1471 18.4482 27.8984C18.4482 27.6498 18.3495 27.4113 18.1737 27.2355C17.9978 27.0597 17.7594 26.9609 17.5107 26.9609H4.85449C4.60585 26.9609 4.3674 27.0597 4.19158 27.2355C4.01576 27.4113 3.91699 27.6498 3.91699 27.8984C3.91699 28.1471 4.01576 28.3855 4.19158 28.5614C4.3674 28.7372 4.60585 28.8359 4.85449 28.8359ZM4.85449 34.4609H20.792C21.0406 34.4609 21.2791 34.3622 21.4549 34.1864C21.6307 34.0105 21.7295 33.7721 21.7295 33.5234C21.7295 33.2748 21.6307 33.0363 21.4549 32.8605C21.2791 32.6847 21.0406 32.5859 20.792 32.5859H4.85449C4.60585 32.5859 4.3674 32.6847 4.19158 32.8605C4.01576 33.0363 3.91699 33.2748 3.91699 33.5234C3.91699 33.7721 4.01576 34.0105 4.19158 34.1864C4.3674 34.3622 4.60585 34.4609 4.85449 34.4609ZM29.2295 38.2109H4.85449C4.60585 38.2109 4.3674 38.3097 4.19158 38.4855C4.01576 38.6613 3.91699 38.8998 3.91699 39.1484C3.91699 39.3971 4.01576 39.6355 4.19158 39.8114C4.3674 39.9872 4.60585 40.0859 4.85449 40.0859H29.2295C29.4781 40.0859 29.7166 39.9872 29.8924 39.8114C30.0682 39.6355 30.167 39.3971 30.167 39.1484C30.167 38.8998 30.0682 38.6613 29.8924 38.4855C29.7166 38.3097 29.4781 38.2109 29.2295 38.2109ZM28.0295 25.2734C27.5055 25.7981 27.1487 26.4662 27.0044 27.1936C26.86 27.9209 26.9345 28.6747 27.2185 29.3596C27.5024 30.0446 27.9831 30.63 28.5997 31.0419C29.2163 31.4538 29.9411 31.6736 30.6826 31.6736C31.4241 31.6736 32.149 31.4538 32.7656 31.0419C33.3822 30.63 33.8628 30.0446 34.1468 29.3596C34.4307 28.6747 34.5052 27.9209 34.3609 27.1936C34.2165 26.4662 33.8598 25.7981 33.3357 25.2734C32.6208 24.5914 31.6707 24.2109 30.6826 24.2109C29.6946 24.2109 28.7444 24.5914 28.0295 25.2734ZM32.042 29.2484C31.6907 29.5977 31.2155 29.7937 30.7201 29.7937C30.2248 29.7937 29.7495 29.5977 29.3982 29.2484C29.1349 28.9867 28.9552 28.6526 28.882 28.2886C28.8087 27.9246 28.8452 27.547 28.9868 27.2037C29.1284 26.8605 29.3687 26.567 29.6773 26.3604C29.9858 26.1539 30.3488 26.0437 30.7201 26.0437C31.0914 26.0437 31.4544 26.1539 31.763 26.3604C32.0716 26.567 32.3119 26.8605 32.4535 27.2037C32.595 27.547 32.6315 27.9246 32.5583 28.2886C32.485 28.6526 32.3053 28.9867 32.042 29.2484Z" fill="#002147"/>
<path d="M44.5014 30.2797L39.1201 28.6766C39.2324 27.4423 39.0713 26.1984 38.6484 25.0334C38.2255 23.8684 37.5511 22.8108 36.6732 21.9359C35.8858 21.1369 34.9494 20.4999 33.917 20.0609V11.4359C33.9075 11.189 33.8113 10.9533 33.6451 10.7703L23.8576 0.982812C23.6747 0.816678 23.4389 0.720405 23.192 0.710938L4.62012 0.710938C3.43908 0.710938 2.30641 1.1801 1.47128 2.01523C0.636159 2.85035 0.166992 3.98302 0.166992 5.16406L0.166992 41.2578C0.166992 42.4389 0.636159 43.5715 1.47128 44.4066C2.30641 45.2418 3.43908 45.7109 4.62012 45.7109H29.4639C30.4465 45.7076 31.4004 45.3794 32.177 44.7775C32.9537 44.1755 33.5094 43.3336 33.7576 42.3828C33.9635 42.4233 34.1769 42.3936 34.3639 42.2984C34.5509 42.2032 34.7005 42.0481 34.7889 41.8578L36.1295 38.9141L39.1857 39.9828C39.3667 40.0455 39.5626 40.0513 39.747 39.9993C39.9313 39.9474 40.0954 39.8402 40.217 39.6922C40.3381 39.5459 40.4119 39.3663 40.4286 39.1771C40.4454 38.9879 40.4043 38.7981 40.3107 38.6328L38.8951 36.1391L41.417 37.5547C41.5823 37.6482 41.7721 37.6893 41.9613 37.6726C42.1504 37.6558 42.3301 37.582 42.4764 37.4609C42.6244 37.3393 42.7316 37.1753 42.7835 36.9909C42.8355 36.8065 42.8297 36.6107 42.767 36.4297L41.6982 33.3734L44.642 32.0328C44.8164 31.9547 44.9628 31.8251 45.0615 31.6615C45.1602 31.4978 45.2065 31.3079 45.1943 31.1172C45.1821 30.9265 45.1118 30.7441 44.993 30.5944C44.8742 30.4447 44.7125 30.3349 44.5295 30.2797H44.5014ZM35.342 32.5859C34.4221 33.4983 33.2527 34.118 31.9812 34.3669C30.7096 34.6157 29.3929 34.4826 28.1969 33.9844C27.0009 33.4861 25.9791 32.6449 25.2604 31.5669C24.5417 30.4889 24.1582 29.2222 24.1582 27.9266C24.1582 26.6309 24.5417 25.3643 25.2604 24.2862C25.9791 23.2082 27.0009 22.367 28.1969 21.8688C29.3929 21.3705 30.7096 21.2374 31.9812 21.4863C33.2527 21.7351 34.4221 22.3548 35.342 23.2672C35.9571 23.8773 36.4453 24.6031 36.7785 25.4028C37.1116 26.2025 37.2832 27.0602 37.2832 27.9266C37.2832 28.7929 37.1116 29.6506 36.7785 30.4503C36.4453 31.25 35.9571 31.9759 35.342 32.5859ZM24.092 3.90781L30.6545 10.4703H24.092V3.90781ZM29.4639 43.8359H4.62012C3.93636 43.8359 3.2806 43.5643 2.79711 43.0808C2.31362 42.5973 2.04199 41.9416 2.04199 41.2578V5.16406C2.04199 4.4803 2.31362 3.82455 2.79711 3.34105C3.2806 2.85756 3.93636 2.58594 4.62012 2.58594H22.2545V11.4359C22.2545 11.6846 22.3533 11.923 22.5291 12.0989C22.7049 12.2747 22.9434 12.3734 23.192 12.3734H32.042V19.5734C30.7173 19.354 29.3593 19.4538 28.0809 19.8647C26.8026 20.2756 25.6407 20.9857 24.692 21.9359C23.4528 23.1605 22.6231 24.7387 22.3167 26.4537C22.0104 28.1688 22.2424 29.9366 22.981 31.5145C23.7196 33.0924 24.9286 34.4029 26.4418 35.2662C27.9551 36.1295 29.6985 36.5032 31.4326 36.3359L32.042 38.3984V41.2109C32.0482 41.5534 31.9861 41.8937 31.8594 42.2119C31.7326 42.5302 31.5437 42.8199 31.3037 43.0643C31.0636 43.3087 30.7773 43.5028 30.4614 43.6353C30.1455 43.7678 29.8064 43.836 29.4639 43.8359ZM35.942 36.8609C35.7212 36.7838 35.4795 36.792 35.2644 36.8839C35.0493 36.9759 34.8763 37.1449 34.7795 37.3578L34.1232 38.8016L33.2795 35.9891C34.2192 35.6899 35.0984 35.2264 35.8764 34.6203L37.4514 37.4328L35.942 36.8609ZM40.1139 32.0234C39.901 32.1203 39.7319 32.2932 39.64 32.5083C39.5481 32.7234 39.5399 32.9651 39.617 33.1859L40.142 34.6859L37.3295 33.1109C37.936 32.3367 38.3995 31.4605 38.6982 30.5234L41.5107 31.3672L40.1139 32.0234Z" fill="#002147"/>
</g>
<defs>
<clipPath id="clip0_205_3510">
<rect width="45" height="45" fill="white" transform="translate(0.166992 0.710938)"/>
</clipPath>
</defs>
</svg>
