<svg width="59" height="59" viewBox="0 0 59 59" fill="none" xmlns="http://www.w3.org/2000/svg">
<g clip-path="url(#clip0_144_5981)">
<path d="M30.1082 0.4375H27.6504C12.3795 0.4375 0 12.817 0 28.0879V30.5457C0 45.8166 12.3795 58.1961 27.6504 58.1961H30.1082C45.3791 58.1961 57.7586 45.8166 57.7586 30.5457V28.0879C57.7586 12.817 45.3791 0.4375 30.1082 0.4375Z" fill="#EBF3FC"/>
<g clip-path="url(#clip1_144_5981)">
<path d="M28.9998 20.2831C29.933 20.2831 30.6919 19.5239 30.6919 18.5909C30.6919 17.6576 29.9328 16.8984 28.9998 16.8984C28.0667 16.8984 27.3076 17.6576 27.3076 18.5909C27.3076 19.5239 28.0667 20.2831 28.9998 20.2831ZM28.9998 17.9531C29.3513 17.9531 29.6372 18.2393 29.6372 18.5909C29.6372 18.9421 29.3513 19.2284 28.9998 19.2284C28.6482 19.2284 28.3623 18.9424 28.3623 18.5909C28.3623 18.2393 28.6482 17.9531 28.9998 17.9531Z" fill="#002147"/>
<path d="M46.4727 43.4677H45.8352V41.6654C45.8352 41.3743 45.599 41.1381 45.3079 41.1381H43.5055V39.3357C43.5055 39.1959 43.4499 39.0618 43.351 38.9629C43.2521 38.864 43.118 38.8084 42.9781 38.8084H42.3409V27.2681H42.9781C43.118 27.2681 43.2521 27.2125 43.351 27.1136C43.4499 27.0147 43.5055 26.8806 43.5055 26.7407V24.9384H45.3078C45.4477 24.9384 45.5818 24.8829 45.6807 24.784C45.7796 24.6851 45.8351 24.5509 45.8351 24.4111V22.0815C45.8351 21.9416 45.7796 21.8075 45.6807 21.7086C45.5818 21.6097 45.4477 21.5541 45.3078 21.5541H44.3077L29.3002 11.1641C29.212 11.103 29.1073 11.0703 29 11.0703C28.8927 11.0703 28.788 11.103 28.6998 11.1641L13.6925 21.5541H12.6921C12.5523 21.5541 12.4181 21.6097 12.3193 21.7086C12.2204 21.8075 12.1648 21.9416 12.1648 22.0815V24.4111C12.1648 24.7022 12.401 24.9384 12.6921 24.9384H14.4945V26.7407C14.4945 27.0318 14.7308 27.2681 15.0219 27.2681H15.6594V38.8085H15.0219C14.882 38.8085 14.7479 38.864 14.649 38.9629C14.5501 39.0618 14.4945 39.196 14.4945 39.3358V41.1381H12.6921C12.401 41.1381 12.1648 41.3743 12.1648 41.6654V43.4677H11.5273C11.4581 43.4677 11.3895 43.4813 11.3255 43.5078C11.2615 43.5343 11.2034 43.5732 11.1544 43.6221C11.1054 43.6711 11.0666 43.7292 11.0401 43.7932C11.0136 43.8572 11 43.9258 11 43.9951V46.3245C11 46.6158 11.2359 46.8518 11.5273 46.8518H46.4727C46.7641 46.8518 47 46.6158 47 46.3245V43.995C47 43.8551 46.9444 43.721 46.8455 43.6221C46.7467 43.5232 46.6125 43.4677 46.4727 43.4677V43.4677ZM42.4508 41.1381H37.6815V39.8631H42.4508V41.1381ZM38.8459 38.8084V27.2681H41.286V38.8085L38.8459 38.8084ZM42.4509 26.2134H37.6814V24.9384H42.4508L42.4509 26.2134ZM37.1541 27.2681H37.7912V38.8085H37.1541C37.0848 38.8084 37.0162 38.8221 36.9522 38.8486C36.8882 38.8751 36.8301 38.9139 36.7811 38.9629C36.7321 39.0118 36.6933 39.07 36.6668 39.134C36.6403 39.198 36.6267 39.2666 36.6267 39.3358V41.1381H32.4395V39.3357C32.4395 39.1959 32.384 39.0618 32.2851 38.9629C32.1862 38.864 32.0521 38.8084 31.9122 38.8084H31.2747V27.2681H31.9122C32.2033 27.2681 32.4395 27.0318 32.4395 26.7407V24.9384H36.6267V26.7407C36.6267 26.8806 36.6822 27.0147 36.7811 27.1136C36.88 27.2125 37.0141 27.2681 37.154 27.2681H37.1541ZM26.6154 24.9384H31.3849V26.2134H26.6154V24.9384ZM27.7799 27.2681H30.2201V38.8085H27.7799V27.2681ZM31.3849 39.8632V41.1381H26.6154V39.8631L31.3849 39.8632ZM13.2195 22.6088H22.4223C22.5621 22.6088 22.6963 22.5532 22.7952 22.4543C22.894 22.3554 22.9496 22.2213 22.9496 22.0814C22.9496 21.79 22.7137 21.5541 22.4223 21.5541H15.5454L29 12.2391L42.455 21.5541H24.5316C24.3918 21.5541 24.2576 21.6097 24.1588 21.7086C24.0599 21.8075 24.0043 21.9416 24.0043 22.0815C24.0043 22.2213 24.0599 22.3555 24.1588 22.4544C24.2576 22.5533 24.3918 22.6088 24.5316 22.6088H44.7805V23.8837H13.2195V22.6088ZM15.5492 24.9384H20.3189V26.2134H15.5492V24.9384ZM19.1541 27.2681V38.8085H16.714V27.2681H19.1541ZM15.5492 39.8632H20.3189V41.1381H15.5492V39.8632ZM20.8463 38.8085H20.2088V27.2681H20.8463C21.1374 27.2681 21.3736 27.0318 21.3736 26.7407V24.9384H25.5607V26.7407C25.5607 26.8806 25.6163 27.0147 25.7152 27.1136C25.8141 27.2125 25.9482 27.2681 26.0881 27.2681H26.7253V38.8085H26.0881C26.0189 38.8084 25.9503 38.8221 25.8863 38.8486C25.8223 38.8751 25.7642 38.9139 25.7152 38.9629C25.6662 39.0118 25.6274 39.07 25.6009 39.134C25.5744 39.198 25.5608 39.2666 25.5608 39.3358V41.1381H21.3737V39.3357C21.3737 39.1959 21.3181 39.0618 21.2192 38.9629C21.1203 38.864 20.9862 38.8084 20.8464 38.8084L20.8463 38.8085ZM13.2195 42.1927H44.7805V43.4677H13.2195V42.1927ZM45.9453 45.7974H12.0547V44.5224H45.9453V45.7974Z" fill="#002147"/>
</g>
</g>
<defs>
<clipPath id="clip0_144_5981">
<rect width="58.2114" height="58.2114" fill="white"/>
</clipPath>
<clipPath id="clip1_144_5981">
<rect width="36" height="36" fill="white" transform="translate(11 11)"/>
</clipPath>
</defs>
</svg>
