<svg width="46" height="45" viewBox="0 0 46 45" fill="none" xmlns="http://www.w3.org/2000/svg">
<g clip-path="url(#clip0_205_6495)">
<path d="M44.167 31.75H42.667V30.25C42.667 29.6533 42.4299 29.081 42.008 28.659C41.586 28.2371 41.0137 28 40.417 28H38.917C38.6609 28.0025 38.4072 28.0492 38.167 28.138V25.75C38.167 25.1533 37.9299 24.581 37.508 24.159C37.086 23.7371 36.5137 23.5 35.917 23.5H34.417C33.8203 23.5 33.248 23.7371 32.826 24.159C32.404 24.581 32.167 25.1533 32.167 25.75V31.75H14.167V25.75C14.167 25.1533 13.9299 24.581 13.508 24.159C13.086 23.7371 12.5137 23.5 11.917 23.5H10.417C9.82026 23.5 9.24796 23.7371 8.826 24.159C8.40404 24.581 8.16699 25.1533 8.16699 25.75V28.138C7.9268 28.0492 7.67307 28.0025 7.41699 28H5.91699C5.32026 28 4.74796 28.2371 4.326 28.659C3.90405 29.081 3.66699 29.6533 3.66699 30.25V31.75H2.16699C1.76917 31.75 1.38764 31.908 1.10633 32.1893C0.825027 32.4706 0.666992 32.8522 0.666992 33.25L0.666992 34.75C0.666992 35.1478 0.825027 35.5294 1.10633 35.8107C1.38764 36.092 1.76917 36.25 2.16699 36.25H3.66699V37.75C3.66699 38.3467 3.90405 38.919 4.326 39.341C4.74796 39.7629 5.32026 40 5.91699 40H7.41699C7.67307 39.9975 7.9268 39.9508 8.16699 39.862V42.25C8.16699 42.8467 8.40404 43.419 8.826 43.841C9.24796 44.2629 9.82026 44.5 10.417 44.5H11.917C12.5137 44.5 13.086 44.2629 13.508 43.841C13.9299 43.419 14.167 42.8467 14.167 42.25V36.25H32.167V42.25C32.167 42.8467 32.404 43.419 32.826 43.841C33.248 44.2629 33.8203 44.5 34.417 44.5H35.917C36.5137 44.5 37.086 44.2629 37.508 43.841C37.9299 43.419 38.167 42.8467 38.167 42.25V39.862C38.4072 39.9508 38.6609 39.9975 38.917 40H40.417C41.0137 40 41.586 39.7629 42.008 39.341C42.4299 38.919 42.667 38.3467 42.667 37.75V36.25H44.167C44.5648 36.25 44.9464 36.092 45.2277 35.8107C45.509 35.5294 45.667 35.1478 45.667 34.75V33.25C45.667 32.8522 45.509 32.4706 45.2277 32.1893C44.9464 31.908 44.5648 31.75 44.167 31.75ZM38.917 29.5H40.417C40.6159 29.5 40.8067 29.579 40.9473 29.7197C41.088 29.8603 41.167 30.0511 41.167 30.25V31.7695C40.5217 31.2731 39.7311 31.0028 38.917 31H38.167V30.25C38.167 30.0511 38.246 29.8603 38.3867 29.7197C38.5273 29.579 38.7181 29.5 38.917 29.5ZM34.417 25H35.917C36.1159 25 36.3067 25.079 36.4473 25.2197C36.588 25.3603 36.667 25.5511 36.667 25.75V27.2695C36.0217 26.7731 35.2311 26.5028 34.417 26.5H33.667V25.75C33.667 25.5511 33.746 25.3603 33.8867 25.2197C34.0273 25.079 34.2181 25 34.417 25ZM10.417 25H11.917C12.1159 25 12.3067 25.079 12.4473 25.2197C12.588 25.3603 12.667 25.5511 12.667 25.75V27.2695C12.0217 26.7731 11.2311 26.5028 10.417 26.5H9.66699V25.75C9.66699 25.5511 9.74601 25.3603 9.88666 25.2197C10.0273 25.079 10.2181 25 10.417 25ZM5.91699 29.5H7.41699C7.6159 29.5 7.80667 29.579 7.94732 29.7197C8.08797 29.8603 8.16699 30.0511 8.16699 30.25V31.7695C7.5217 31.2731 6.73109 31.0028 5.91699 31H5.16699V30.25C5.16699 30.0511 5.24601 29.8603 5.38666 29.7197C5.52731 29.579 5.71808 29.5 5.91699 29.5ZM2.16699 34.75V33.25H3.66699V34.75H2.16699ZM7.41699 38.5H5.91699C5.71808 38.5 5.52731 38.421 5.38666 38.2803C5.24601 38.1397 5.16699 37.9489 5.16699 37.75V32.5H5.91699C6.51373 32.5 7.08603 32.7371 7.50798 33.159C7.92994 33.581 8.16699 34.1533 8.16699 34.75V37.75C8.16699 37.9489 8.08797 38.1397 7.94732 38.2803C7.80667 38.421 7.6159 38.5 7.41699 38.5ZM12.667 42.25C12.667 42.4489 12.588 42.6397 12.4473 42.7803C12.3067 42.921 12.1159 43 11.917 43H10.417C10.2181 43 10.0273 42.921 9.88666 42.7803C9.74601 42.6397 9.66699 42.4489 9.66699 42.25V28H10.417C11.0137 28 11.586 28.2371 12.008 28.659C12.4299 29.081 12.667 29.6533 12.667 30.25V42.25ZM14.167 34.75V33.25H32.167V34.75H14.167ZM36.667 42.25C36.667 42.4489 36.588 42.6397 36.4473 42.7803C36.3067 42.921 36.1159 43 35.917 43H34.417C34.2181 43 34.0273 42.921 33.8867 42.7803C33.746 42.6397 33.667 42.4489 33.667 42.25V28H34.417C35.0137 28 35.586 28.2371 36.008 28.659C36.4299 29.081 36.667 29.6533 36.667 30.25V42.25ZM41.167 37.75C41.167 37.9489 41.088 38.1397 40.9473 38.2803C40.8067 38.421 40.6159 38.5 40.417 38.5H38.917C38.7181 38.5 38.5273 38.421 38.3867 38.2803C38.246 38.1397 38.167 37.9489 38.167 37.75V32.5H38.917C39.5137 32.5 40.086 32.7371 40.508 33.159C40.9299 33.581 41.167 34.1533 41.167 34.75V37.75ZM44.167 34.75H42.667V33.25H44.167V34.75Z" fill="#002147"/>
<path d="M21.787 28.9242C21.9671 29.1073 22.1819 29.2525 22.4189 29.3515C22.6558 29.4504 22.9102 29.5009 23.167 29.5002C23.424 29.5009 23.6785 29.4503 23.9156 29.3512C24.1527 29.2522 24.3677 29.1067 24.5477 28.9234L38.5727 14.7409C40.2317 13.0594 41.1619 10.7922 41.1619 8.43004C41.1619 6.06787 40.2317 3.80071 38.5727 2.11917C37.7583 1.29043 36.7869 0.632314 35.7152 0.183278C34.6436 -0.265758 33.4932 -0.496709 32.3312 -0.49608H32.3252C31.1605 -0.498124 30.0071 -0.267885 28.9325 0.181167C27.8578 0.630218 26.8835 1.28907 26.0665 2.11917L23.167 5.05017L20.2682 2.12517C19.4512 1.2958 18.4773 0.637194 17.4033 0.187647C16.3294 -0.261899 15.1767 -0.493405 14.0125 -0.493405C12.8482 -0.493405 11.6956 -0.261899 10.6216 0.187647C9.54769 0.637194 8.57384 1.2958 7.75674 2.12517C6.09797 3.80667 5.16797 6.07368 5.16797 8.43567C5.16797 10.7977 6.09797 13.0647 7.75674 14.7462L21.787 28.9242ZM8.82399 3.17517C9.5015 2.48655 10.3093 1.93966 11.2003 1.56635C12.0912 1.19304 13.0476 1.00078 14.0136 1.00078C14.9796 1.00078 15.936 1.19304 16.827 1.56635C17.718 1.93966 18.5257 2.48655 19.2032 3.17517L22.2122 6.21492C22.4689 6.46243 22.8116 6.60074 23.1681 6.60074C23.5247 6.60074 23.8673 6.46243 24.124 6.21492L27.1322 3.17517C27.8102 2.48632 28.6188 1.93957 29.5105 1.56688C30.4023 1.1942 31.3595 1.00307 32.326 1.00467H32.3305C33.2957 1.00422 34.2513 1.19635 35.1413 1.56982C36.0313 1.94329 36.8379 2.49059 37.5137 3.17967C38.8941 4.58038 39.6679 6.46798 39.6679 8.43455C39.6679 10.4011 38.8941 12.2887 37.5137 13.6894L23.4827 27.8689C23.4416 27.9108 23.3924 27.944 23.3382 27.9666C23.2839 27.9891 23.2257 28.0005 23.167 28.0002C23.1084 28.0004 23.0503 27.989 22.9962 27.9664C22.9421 27.9439 22.8931 27.9107 22.852 27.8689L8.82324 13.6842C7.44195 12.2841 6.66758 10.3963 6.66772 8.42952C6.66786 6.46272 7.4425 4.57509 8.82399 3.17517Z" fill="#002147"/>
<path d="M15.667 15.2501H19.1627C19.3878 15.2503 19.6077 15.183 19.794 15.0569C19.9804 14.9308 20.1247 14.7518 20.2082 14.5428L20.8945 12.8261L22.0652 15.9483C22.1456 16.1629 22.2896 16.3479 22.4779 16.4784C22.6662 16.609 22.8899 16.6789 23.119 16.6788H23.167C23.4039 16.6696 23.6319 16.5857 23.8183 16.4391C24.0047 16.2926 24.14 16.0909 24.205 15.8628L24.862 13.5611L25.3967 14.6298C25.4895 14.8163 25.6324 14.9731 25.8094 15.0827C25.9864 15.1923 26.1905 15.2502 26.3987 15.2501H30.667C30.8659 15.2501 31.0567 15.1711 31.1973 15.0304C31.338 14.8898 31.417 14.699 31.417 14.5001C31.417 14.3012 31.338 14.1104 31.1973 13.9698C31.0567 13.8291 30.8659 13.7501 30.667 13.7501H26.6297L25.7695 12.0251C25.6683 11.8221 25.5081 11.6544 25.3099 11.544C25.1117 11.4337 24.8848 11.3859 24.6589 11.4068C24.433 11.4277 24.2187 11.5164 24.0442 11.6613C23.8696 11.8062 23.7429 12.0004 23.6807 12.2186L23.071 14.3553L21.9595 11.3936C21.8807 11.1802 21.7387 10.9959 21.5524 10.8654C21.3661 10.7349 21.1445 10.6643 20.917 10.6631H20.9035C20.6785 10.6622 20.4585 10.7292 20.2722 10.8554C20.0859 10.9816 19.9421 11.1611 19.8595 11.3703L18.9092 13.7501H15.667C15.4681 13.7501 15.2773 13.8291 15.1367 13.9698C14.996 14.1104 14.917 14.3012 14.917 14.5001C14.917 14.699 14.996 14.8898 15.1367 15.0304C15.2773 15.1711 15.4681 15.2501 15.667 15.2501Z" fill="#002147"/>
</g>
<defs>
<clipPath id="clip0_205_6495">
<rect width="45" height="45" fill="white" transform="translate(0.666992 -0.5)"/>
</clipPath>
</defs>
</svg>
