<svg width="59" height="59" viewBox="0 0 59 59" fill="none" xmlns="http://www.w3.org/2000/svg">
<g clip-path="url(#clip0_144_5963)">
<path d="M30.1082 0.4375H27.6504C12.3795 0.4375 0 12.817 0 28.0879V30.5457C0 45.8166 12.3795 58.1961 27.6504 58.1961H30.1082C45.3791 58.1961 57.7586 45.8166 57.7586 30.5457V28.0879C57.7586 12.817 45.3791 0.4375 30.1082 0.4375Z" fill="#EBF3FC"/>
<g clip-path="url(#clip1_144_5963)">
<path d="M14.1655 17.8883C14.3538 18.045 14.5807 18.148 14.8226 18.1866C15.0644 18.2251 15.3121 18.1978 15.5397 18.1075C15.7673 18.0172 15.9664 17.8672 16.116 17.6733C16.2656 17.4794 16.3601 17.2488 16.3897 17.0057H32.6005C33.0779 17.0057 33.5358 16.8161 33.8733 16.4785C34.2109 16.141 34.4005 15.6831 34.4005 15.2057V14.0057C34.4005 13.5283 34.2109 13.0705 33.8733 12.7329C33.5358 12.3954 33.0779 12.2057 32.6005 12.2057H16.3897C16.3602 11.9627 16.2656 11.7321 16.1161 11.5383C15.9666 11.3444 15.7677 11.1944 15.5401 11.104C15.3126 11.0137 15.0649 10.9863 14.8232 11.0247C14.5814 11.0632 14.3544 11.166 14.1661 11.3225L11.4853 13.5551C11.3327 13.6851 11.2103 13.8467 11.1265 14.0288C11.0426 14.2108 10.9995 14.409 11 14.6094C11.0005 14.8098 11.0447 15.0077 11.1294 15.1894C11.2142 15.371 11.3375 15.532 11.4907 15.6611L14.1655 17.8883ZM12.2605 14.4725L14.9347 12.2441C14.9626 12.2199 14.9981 12.2063 15.0349 12.2057C15.0595 12.2057 15.0841 12.2117 15.1063 12.2219C15.1651 12.2465 15.2023 12.3053 15.2005 12.3689V12.8057C15.2005 12.9649 15.2638 13.1175 15.3763 13.23C15.4888 13.3425 15.6414 13.4057 15.8005 13.4057H32.6005C32.7597 13.4057 32.9123 13.4689 33.0248 13.5815C33.1373 13.694 33.2005 13.8466 33.2005 14.0057V15.2057C33.2005 15.3649 33.1373 15.5175 33.0248 15.63C32.9123 15.7425 32.7597 15.8057 32.6005 15.8057H15.8005C15.6414 15.8057 15.4888 15.8689 15.3763 15.9815C15.2638 16.094 15.2005 16.2466 15.2005 16.4057V16.8425C15.2017 16.8736 15.1935 16.9042 15.1769 16.9305C15.1603 16.9567 15.1361 16.9773 15.1075 16.9895C15.0798 17.003 15.0486 17.008 15.018 17.004C14.9874 16.9999 14.9587 16.987 14.9353 16.9667L12.2647 14.7431C12.2447 14.7263 12.2286 14.7053 12.2175 14.6815C12.2064 14.6578 12.2006 14.6319 12.2005 14.6057C12.2005 14.5547 12.2221 14.5061 12.2605 14.4725ZM43.8355 17.3231C43.6473 17.1665 43.4204 17.0635 43.1785 17.0249C42.9367 16.9863 42.689 17.0137 42.4614 17.104C42.2338 17.1943 42.0347 17.3443 41.8851 17.5382C41.7355 17.732 41.641 17.9627 41.6113 18.2057H25.4005C24.9232 18.2057 24.4653 18.3954 24.1278 18.7329C23.7902 19.0705 23.6005 19.5283 23.6005 20.0057V21.2057C23.6005 21.6831 23.7902 22.141 24.1278 22.4785C24.4653 22.8161 24.9232 23.0057 25.4005 23.0057H41.6113C41.64 23.2493 41.734 23.4805 41.8833 23.675C42.0327 23.8695 42.2319 24.0199 42.4598 24.1105C42.6877 24.201 42.9358 24.2282 43.1779 24.1892C43.42 24.1502 43.647 24.0464 43.8349 23.8889L46.5158 21.6563C46.6684 21.5264 46.7908 21.3648 46.8746 21.1827C46.9585 21.0006 47.0016 20.8025 47.0011 20.6021C47.0006 20.4016 46.9564 20.2037 46.8717 20.0221C46.7869 19.8405 46.6636 19.6795 46.5103 19.5503L43.8355 17.3231ZM45.7406 20.7389L43.0652 22.9673C43.0415 22.987 43.0128 22.9995 42.9823 23.0033C42.9518 23.0072 42.9209 23.0023 42.8931 22.9892C42.8653 22.9761 42.8418 22.9553 42.8254 22.9294C42.8091 22.9034 42.8004 22.8733 42.8005 22.8425V22.4057C42.8005 22.2466 42.7373 22.094 42.6248 21.9815C42.5123 21.8689 42.3597 21.8057 42.2005 21.8057H25.4005C25.2414 21.8057 25.0888 21.7425 24.9763 21.63C24.8638 21.5175 24.8005 21.3649 24.8005 21.2057V20.0057C24.8005 19.8466 24.8638 19.694 24.9763 19.5815C25.0888 19.4689 25.2414 19.4057 25.4005 19.4057H42.2005C42.3597 19.4057 42.5123 19.3425 42.6248 19.23C42.7373 19.1175 42.8005 18.9649 42.8005 18.8057V18.3689C42.7994 18.3379 42.8076 18.3072 42.8242 18.281C42.8408 18.2548 42.865 18.2342 42.8935 18.2219C42.9213 18.2082 42.9525 18.203 42.9831 18.207C43.0138 18.2111 43.0426 18.2242 43.0658 18.2447L45.7351 20.4683C45.7554 20.4851 45.7718 20.506 45.7831 20.5298C45.7944 20.5535 45.8003 20.5794 45.8005 20.6057C45.8007 20.6309 45.7954 20.6559 45.7851 20.6789C45.7747 20.7019 45.7595 20.7224 45.7406 20.7389ZM45.8005 27.2057L42.6715 27.2105C42.311 27.2095 41.9598 27.3254 41.6707 27.5409C41.3816 27.7564 41.1703 28.0599 41.0683 28.4057H39.1645C38.887 28.4067 38.6132 28.3422 38.3653 28.2173L35.1391 26.6009C34.3492 26.2102 33.4798 26.0069 32.5984 26.0069C31.7171 26.0069 30.8477 26.2102 30.0577 26.6009L29.9 26.6801L29.7391 26.5985C28.9491 26.2081 28.0797 26.005 27.1984 26.005C26.3172 26.005 25.4478 26.2081 24.6577 26.5985L21.4327 28.2143C21.1861 28.3403 20.9131 28.4057 20.6365 28.4057H16.9327C16.8309 28.0601 16.6197 27.7567 16.3309 27.5412C16.042 27.3258 15.6911 27.2097 15.3307 27.2105L12.2005 27.2057C11.8823 27.2057 11.5771 27.3322 11.352 27.5572C11.127 27.7822 11.0005 28.0875 11.0005 28.4057V38.0057C11.0005 38.324 11.127 38.6292 11.352 38.8543C11.5771 39.0793 11.8823 39.2057 12.2005 39.2057L15.2119 39.2105L17.0119 39.9605C16.9983 40.3466 17.0877 40.7293 17.271 41.0694C17.4543 41.4095 17.7248 41.6946 18.0547 41.8955C18.2977 42.041 18.5672 42.1365 18.8475 42.1766C19.1279 42.2167 19.4134 42.2005 19.6873 42.1289C19.7029 42.1247 19.7173 42.1169 19.7329 42.1121C19.8619 42.6881 20.2207 43.1861 20.7259 43.4921C20.969 43.6371 21.2385 43.7322 21.5187 43.7718C21.799 43.8113 22.0843 43.7946 22.3579 43.7225C22.3735 43.7183 22.3873 43.7105 22.4029 43.7063C22.4675 43.9917 22.5891 44.2611 22.7604 44.4983C22.9318 44.7355 23.1494 44.9355 23.4001 45.0863C23.8891 45.3803 24.4765 45.4649 25.0285 45.3197C25.0423 45.3161 25.0549 45.3089 25.0687 45.3053C25.1314 45.5863 25.2504 45.8516 25.4185 46.0853C25.5866 46.319 25.8003 46.5161 26.0467 46.6649L26.0551 46.6697L26.0719 46.6805C26.3142 46.8264 26.5832 46.9223 26.8631 46.9624C27.143 47.0026 27.4281 46.9863 27.7015 46.9145C28.0968 46.8121 28.454 46.5975 28.7299 46.2965L29.0797 46.5683C29.3009 46.7392 29.5539 46.8641 29.8239 46.9359C30.0939 47.0078 30.3756 47.0249 30.6523 46.9865C30.9287 46.9504 31.195 46.8592 31.4355 46.7185C31.676 46.5777 31.8859 46.3902 32.0527 46.1669C32.3995 45.7079 32.5465 45.1289 32.4607 44.5601L32.4871 44.5571C32.7629 44.5222 33.0288 44.4323 33.2692 44.2929C33.5096 44.1534 33.7197 43.9673 33.8869 43.7453C34.1726 43.375 34.3278 42.9206 34.3285 42.4529C34.4647 42.4613 34.6015 42.4559 34.7365 42.4379C35.0117 42.4028 35.2771 42.3129 35.517 42.1736C35.7569 42.0343 35.9664 41.8483 36.1333 41.6267C36.4219 41.2547 36.5785 40.7975 36.5785 40.3265C36.5785 40.0865 36.5395 39.8483 36.4621 39.6215C36.7573 39.5452 37.0314 39.4031 37.2637 39.2057L42.6637 39.2105H42.6673L45.8005 39.2057C46.1188 39.2057 46.424 39.0793 46.6491 38.8543C46.8741 38.6292 47.0005 38.324 47.0005 38.0057V28.4057C47.0005 28.0875 46.8741 27.7822 46.6491 27.5572C46.424 27.3322 46.1188 27.2057 45.8005 27.2057ZM34.6063 27.6761L37.8253 29.2889C38.2409 29.4977 38.6995 29.6062 39.1645 29.6057H41.0641L41.9983 38.0093L37.9537 38.0057C37.9964 37.8118 38.0122 37.6129 38.0005 37.4147C37.9667 37.0617 37.8582 36.7198 37.6824 36.4118C37.5066 36.1038 37.2673 35.8366 36.9805 35.6279L30.9205 31.3895C30.5513 31.125 30.0954 31.0105 29.645 31.0689C29.1946 31.1274 28.7831 31.3545 28.4935 31.7045L25.7071 35.0369C25.4585 35.3321 25.1044 35.5184 24.7203 35.5559C24.3362 35.5935 23.9526 35.4793 23.6515 35.2379C23.5319 35.1428 23.4535 35.0051 23.433 34.8536C23.4124 34.7021 23.4512 34.5485 23.5411 34.4249L26.3077 30.4715C26.766 29.8171 27.3801 29.2872 28.0945 28.9295L30.5923 27.6779C31.2162 27.3694 31.9028 27.2088 32.5988 27.2085C33.2948 27.2081 33.9822 27.3682 34.6063 27.6761ZM12.2005 28.4057L15.3307 28.4105C15.3978 28.4105 15.464 28.4247 15.5252 28.452C15.5864 28.4794 15.6411 28.5194 15.6857 28.5693C15.7304 28.6192 15.7641 28.6781 15.7845 28.7419C15.8049 28.8057 15.8116 28.8731 15.8041 28.9397L14.7955 38.0099L12.2005 38.0057V28.4057ZM18.6709 40.8659C18.4515 40.7317 18.2932 40.517 18.2299 40.2677C18.1666 40.0184 18.2032 39.7542 18.3319 39.5315L18.5971 39.0785C18.6796 38.9348 18.7986 38.8154 18.9419 38.7324C19.0853 38.6494 19.2481 38.6057 19.4137 38.6057C19.5829 38.6057 19.7485 38.6525 19.8937 38.7395C20.1877 38.9165 20.3653 39.2363 20.3611 39.5795C20.3617 39.7523 20.3173 39.9215 20.2315 40.0715L19.9663 40.5239C19.8403 40.7441 19.6315 40.9043 19.3861 40.9685C19.2661 40.9999 19.141 41.0069 19.0182 40.9893C18.8954 40.9717 18.7773 40.9298 18.6709 40.8659ZM21.3421 42.4625C21.1228 42.3282 20.9647 42.1135 20.9014 41.8642C20.8382 41.6149 20.8749 41.3507 21.0037 41.1281L21.2695 40.6739C21.352 40.5304 21.4709 40.4111 21.6141 40.3281C21.7574 40.2451 21.92 40.2013 22.0855 40.2011C22.2547 40.2011 22.4203 40.2479 22.5655 40.3349C23.0125 40.6115 23.1637 41.1899 22.9105 41.6501V41.6537L22.6387 42.1217L22.6351 42.1289C22.5727 42.236 22.4897 42.3296 22.3909 42.4044C22.292 42.4792 22.1794 42.5337 22.0594 42.5647C21.9394 42.5957 21.8144 42.6027 21.6917 42.5851C21.569 42.5676 21.451 42.5259 21.3445 42.4625H21.3421ZM24.0205 44.0561C23.8012 43.9243 23.6421 43.7119 23.5773 43.4644C23.5125 43.2168 23.5471 42.9537 23.6737 42.7313L23.6785 42.7247L23.9437 42.2705C23.9479 42.2639 23.9509 42.2561 23.9545 42.2489C24.0171 42.1435 24.0998 42.0514 24.198 41.978C24.2962 41.9046 24.4079 41.8513 24.5268 41.8211C24.6456 41.791 24.7692 41.7846 24.8905 41.8023C25.0119 41.82 25.1285 41.8615 25.2337 41.9243C25.6921 42.2003 25.8457 42.7919 25.5781 43.2551L25.3057 43.7231C25.2438 43.83 25.1612 43.9234 25.0629 43.9981C24.9645 44.0728 24.8523 44.1272 24.7327 44.1581C24.6132 44.1891 24.4887 44.1961 24.3664 44.1785C24.2442 44.161 24.1266 44.1194 24.0205 44.0561ZM27.4039 45.7523C27.1627 45.8165 26.9059 45.7793 26.6917 45.6503L26.6833 45.6449C26.4655 45.514 26.3077 45.3028 26.2439 45.0568C26.1801 44.8107 26.2153 44.5495 26.3419 44.3291L26.5105 44.0387L26.6179 43.8539C26.6807 43.7467 26.7641 43.6529 26.8634 43.5782C26.9627 43.5035 27.0758 43.4493 27.1963 43.4187C27.3168 43.3882 27.4421 43.3819 27.565 43.4003C27.6879 43.4187 27.8059 43.4613 27.9121 43.5257C28.1306 43.6572 28.2888 43.8691 28.3525 44.116C28.4163 44.3629 28.3805 44.625 28.2529 44.8457L27.9757 45.3221C27.8497 45.5369 27.6427 45.6923 27.4009 45.7523H27.4039ZM35.2795 38.2691C35.1541 38.1712 34.9948 38.1271 34.8368 38.1466C34.6789 38.166 34.5351 38.2475 34.4371 38.3729C34.3392 38.4984 34.2951 38.6576 34.3146 38.8156C34.334 38.9736 34.4155 39.1174 34.5409 39.2153L35.0161 39.5873C35.1134 39.6622 35.1948 39.7555 35.2558 39.862C35.3167 39.9684 35.356 40.0859 35.3712 40.2077C35.3865 40.3294 35.3775 40.4529 35.3448 40.5712C35.3121 40.6894 35.2563 40.8 35.1805 40.8965C35.1087 40.9924 35.0185 41.073 34.9151 41.1335C34.8118 41.1941 34.6974 41.2334 34.5786 41.2491C34.4599 41.2649 34.3392 41.2568 34.2236 41.2253C34.108 41.1938 33.9999 41.1396 33.9055 41.0657L33.5113 40.7585C33.4499 40.7092 33.3794 40.6724 33.3038 40.6503C33.2281 40.6282 33.1489 40.6212 33.0705 40.6297C32.9922 40.6382 32.9163 40.6621 32.8472 40.7C32.7781 40.7378 32.7171 40.7889 32.6677 40.8503C32.6184 40.9117 32.5816 40.9823 32.5595 41.0579C32.5374 41.1336 32.5304 41.2128 32.5389 41.2911C32.5475 41.3695 32.5713 41.4454 32.6092 41.5145C32.647 41.5836 32.6981 41.6446 32.7595 41.6939L32.7697 41.7017C33.1753 42.0221 33.2479 42.6089 32.9323 43.0181C32.8603 43.113 32.7701 43.1927 32.667 43.2525C32.5639 43.3123 32.45 43.351 32.3319 43.3664C32.2137 43.3818 32.0936 43.3736 31.9787 43.3422C31.8637 43.3109 31.7561 43.257 31.6621 43.1837C31.5993 43.1353 31.5276 43.0998 31.4511 43.0791C31.3746 43.0585 31.2947 43.0531 31.2161 43.0633C31.1375 43.0735 31.0617 43.0991 30.9929 43.1386C30.9242 43.1781 30.8639 43.2307 30.8155 43.2935C30.7672 43.3563 30.7316 43.428 30.711 43.5046C30.6903 43.5811 30.6849 43.661 30.6951 43.7396C30.7053 43.8182 30.7309 43.894 30.7704 43.9627C30.8099 44.0315 30.8626 44.0917 30.9253 44.1401C31.3153 44.4521 31.3969 45.0137 31.1113 45.4235L31.0897 45.4505C31.017 45.5456 30.9262 45.6253 30.8225 45.6853C30.7189 45.7452 30.6045 45.7842 30.4858 45.7999C30.3671 45.8156 30.2465 45.8078 30.1309 45.7769C30.0152 45.7459 29.9068 45.6926 29.8117 45.6197L29.3659 45.2735C29.5947 44.7871 29.6349 44.233 29.4787 43.7187C29.3226 43.2043 28.9812 42.7661 28.5205 42.4889C28.2787 42.3429 28.01 42.247 27.7304 42.2068C27.4508 42.1666 27.1659 42.183 26.8927 42.2549C26.8765 42.2591 26.8627 42.2675 26.8465 42.2717C26.7821 41.9863 26.6605 41.7169 26.4891 41.4797C26.3178 41.2425 26.1001 41.0425 25.8493 40.8917C25.6074 40.7461 25.3386 40.6504 25.0591 40.6103C24.7795 40.5702 24.4947 40.5865 24.2215 40.6583C24.2059 40.6625 24.1921 40.6703 24.1771 40.6745C24.1144 40.3941 23.996 40.1292 23.8288 39.8955C23.6616 39.6618 23.4492 39.4641 23.204 39.3142C22.9589 39.1643 22.6861 39.0652 22.4019 39.0229C22.1177 38.9805 21.8279 38.9958 21.5497 39.0677C21.5341 39.0719 21.5203 39.0803 21.5047 39.0845C21.4407 38.7995 21.3197 38.5303 21.1491 38.2932C20.9784 38.0561 20.7617 37.8558 20.5117 37.7045C20.2684 37.5592 19.9985 37.4637 19.7179 37.4236C19.4372 37.3834 19.1514 37.3995 18.8771 37.4709C18.6027 37.5422 18.3453 37.6674 18.1197 37.8392C17.8942 38.0109 17.7051 38.2258 17.5633 38.4713L17.3683 38.8049L15.9805 38.2301L16.9369 29.6057H20.6365C21.1006 29.6063 21.5584 29.4985 21.9733 29.2907L25.1911 27.6779C26.2108 27.1769 27.3815 27.0769 28.4713 27.3977L27.5563 27.8567C26.663 28.3038 25.8954 28.9668 25.3231 29.7857L22.5601 33.7343C22.2936 34.1078 22.1804 34.5692 22.2438 35.0235C22.3072 35.4779 22.5424 35.8907 22.9009 36.1769C23.4478 36.6138 24.1438 36.8195 24.8403 36.7502C25.5368 36.681 26.1786 36.3421 26.6287 35.8061L29.4127 32.4767C29.5099 32.3586 29.6484 32.2821 29.8 32.2627C29.9517 32.2433 30.105 32.2825 30.2287 32.3723L36.2695 36.5945C36.5677 36.8105 36.7603 37.1417 36.8005 37.5077C36.8263 37.7717 36.7375 38.0333 36.5575 38.2277C36.3861 38.3891 36.1617 38.4823 35.9264 38.4899C35.6911 38.4976 35.4611 38.419 35.2795 38.2691ZM45.8005 38.0057L43.2061 38.0099L42.2005 28.9397C42.1931 28.873 42.1998 28.8055 42.2203 28.7416C42.2408 28.6777 42.2745 28.6188 42.3193 28.5689C42.3642 28.5189 42.419 28.479 42.4803 28.4517C42.5416 28.4244 42.608 28.4104 42.6751 28.4105L45.8005 28.4057V38.0057Z" fill="#002147"/>
</g>
</g>
<defs>
<clipPath id="clip0_144_5963">
<rect width="58.2114" height="58.2114" fill="white"/>
</clipPath>
<clipPath id="clip1_144_5963">
<rect width="36" height="36" fill="white" transform="translate(11 11)"/>
</clipPath>
</defs>
</svg>
