<svg width="46" height="45" viewBox="0 0 46 45" fill="none" xmlns="http://www.w3.org/2000/svg">
<g clip-path="url(#clip0_205_7575)">
<path d="M30.3609 44.3379H10.6318C9.17558 44.3379 7.99512 43.1574 7.99512 41.7012V18.3372M18.4638 0.65625H38.2515C39.7077 0.65625 40.8882 1.83671 40.8882 3.29297V41.7012C40.8882 43.1574 39.7077 44.3379 38.2515 44.3379H33.4372M7.99512 5.02213V3.29297C7.99512 1.83671 9.17558 0.65625 10.6318 0.65625H15.2997" stroke="#002147" stroke-width="1.31836" stroke-miterlimit="10" stroke-linecap="round" stroke-linejoin="round"/>
<path d="M24.6074 18.034H6.20337C5.23253 18.034 4.44556 17.2471 4.44556 16.2762V7.05078C4.44556 6.07994 5.23253 5.29297 6.20337 5.29297H24.6074C25.5782 5.29297 26.3652 6.07994 26.3652 7.05078V16.2763C26.3652 17.2471 25.5782 18.034 24.6074 18.034Z" stroke="#002147" stroke-width="1.31836" stroke-miterlimit="10" stroke-linecap="round" stroke-linejoin="round"/>
<path d="M11.8484 14.6553L14.0967 8.75227C14.1426 8.63994 14.3016 8.63977 14.3478 8.752L16.5755 14.6553M12.5496 13.1851H15.8857M19.154 8.66789L23.3659 14.6553M23.0695 8.66789L18.8516 14.6553M7.44482 8.66789H10.7514M9.09146 8.85914V14.6553M29.8154 7.21875H37.4379M29.8154 10.5378H37.4379M29.8154 13.8568H37.4379M29.8154 17.1758H37.4379" stroke="#002147" stroke-width="1.31836" stroke-miterlimit="10" stroke-linecap="round" stroke-linejoin="round"/>
<path d="M29.1286 39.5492C33.7773 39.5492 37.5458 35.7807 37.5458 31.132C37.5458 26.4834 33.7773 22.7148 29.1286 22.7148C24.4799 22.7148 20.7114 26.4834 20.7114 31.132C20.7114 35.7807 24.4799 39.5492 29.1286 39.5492Z" stroke="#002147" stroke-width="1.31836" stroke-miterlimit="10" stroke-linecap="round" stroke-linejoin="round"/>
<path d="M26.3174 30.1787C27.1358 30.1787 27.7993 29.5152 27.7993 28.6968C27.7993 27.8783 27.1358 27.2148 26.3174 27.2148C25.4989 27.2148 24.8354 27.8783 24.8354 28.6968C24.8354 29.5152 25.4989 30.1787 26.3174 30.1787Z" stroke="#002147" stroke-width="1.31836" stroke-miterlimit="10" stroke-linecap="round" stroke-linejoin="round"/>
<path d="M31.9399 35.0459C32.7584 35.0459 33.4219 34.3824 33.4219 33.564C33.4219 32.7455 32.7584 32.082 31.9399 32.082C31.1215 32.082 30.458 32.7455 30.458 33.564C30.458 34.3824 31.1215 35.0459 31.9399 35.0459Z" stroke="#002147" stroke-width="1.31836" stroke-miterlimit="10" stroke-linecap="round" stroke-linejoin="round"/>
<path d="M26.8443 33.8227L31.3777 28.5831M11.3372 22.7148H21.3679M11.3372 25.9676H19.262M11.3372 29.2203H17.4246M11.3372 32.4731H17.4246M11.3372 35.7258H19.262M11.3372 38.9786H21.3679" stroke="#002147" stroke-width="1.31836" stroke-miterlimit="10" stroke-linecap="round" stroke-linejoin="round"/>
</g>
<defs>
<clipPath id="clip0_205_7575">
<rect width="45" height="45" fill="white" transform="translate(0.166748)"/>
</clipPath>
</defs>
</svg>
