<svg width="49" height="49" viewBox="0 0 49 49" fill="none" xmlns="http://www.w3.org/2000/svg">
<g clip-path="url(#clip0_205_3491)">
<g clip-path="url(#clip1_205_3491)">
<path d="M4.25668 41.2891H6.50677V43.5389C6.50677 44.7818 7.51408 45.7891 8.75659 45.7891H35.7569C36.9994 45.7891 38.0067 44.7818 38.0067 43.5389V7.53915C38.0067 6.29638 36.9994 5.28897 35.7569 5.28897H33.5068V3.03924C33.5068 1.79629 32.4995 0.789062 31.2566 0.789062H10.2569C10.2425 0.789062 10.2291 0.796621 10.2147 0.797324C10.1459 0.800961 10.078 0.81458 10.0132 0.837754C9.99084 0.845263 9.96895 0.854007 9.9476 0.863945C9.8641 0.89998 9.7879 0.950781 9.72269 1.01397L2.2228 8.51421C2.15995 8.5778 2.10912 8.65224 2.07277 8.73394C2.06214 8.75687 2.05634 8.78025 2.04808 8.80425C2.02635 8.86649 2.0134 8.93145 2.00958 8.99726C2.00958 9.01369 2 9.02775 2 9.04428V39.039C1.99994 39.335 2.05831 39.6282 2.17178 39.9016C2.28524 40.175 2.45156 40.4234 2.6612 40.6324C2.87088 40.8414 3.11974 41.007 3.39352 41.1197C3.66729 41.2324 3.96062 41.29 4.25668 41.2892V41.2891ZM35.7569 6.78909C36.1709 6.78909 36.5067 7.12483 36.5067 7.53924V43.539C36.5067 43.6375 36.4873 43.735 36.4497 43.826C36.412 43.917 36.3568 43.9997 36.2872 44.0694C36.2176 44.139 36.1349 44.1943 36.0439 44.232C35.9529 44.2697 35.8554 44.2892 35.7569 44.2892H8.7565C8.65801 44.2892 8.56048 44.2698 8.4695 44.232C8.37851 44.1943 8.29584 44.1391 8.22622 44.0694C8.15659 43.9997 8.10137 43.917 8.0637 43.826C8.02604 43.735 8.00667 43.6375 8.00671 43.539V41.2892H31.2565C32.4993 41.2892 33.5067 40.2819 33.5067 39.0391V6.789L35.7569 6.78909ZM32.0067 3.03924V39.039C32.0068 39.1375 31.9874 39.235 31.9497 39.3261C31.912 39.4171 31.8567 39.4998 31.7871 39.5694C31.7174 39.6391 31.6347 39.6943 31.5437 39.732C31.4527 39.7697 31.3551 39.7891 31.2566 39.7891H4.25659C4.0577 39.7891 3.86699 39.71 3.72639 39.5693C3.5858 39.4286 3.50684 39.2379 3.50688 39.039V9.78906H8.75659C9.99937 9.78906 11.0068 8.78166 11.0068 7.53924V2.289H31.2566C31.3551 2.28899 31.4527 2.30839 31.5437 2.34609C31.6347 2.38379 31.7174 2.43905 31.7871 2.50872C31.8567 2.57839 31.912 2.6611 31.9497 2.75213C31.9874 2.84316 32.0068 2.94072 32.0067 3.03924ZM9.50674 3.34949V7.53915C9.50674 7.95312 9.171 8.28895 8.75659 8.28895H4.56737L9.50674 3.34949Z" fill="#002147"/>
<path fill-rule="evenodd" clip-rule="evenodd" d="M24.9148 15.4942C24.9849 15.5843 25.0747 15.6572 25.1772 15.7073C25.2798 15.7575 25.3924 15.7836 25.5065 15.7836C25.6207 15.7836 25.7333 15.7575 25.8359 15.7073C25.9384 15.6572 26.0282 15.5843 26.0983 15.4942L29.5984 10.9942C29.7154 10.8369 29.7661 10.6401 29.7397 10.4459C29.7133 10.2516 29.612 10.0755 29.4573 9.95507C29.1356 9.70441 28.6724 9.75732 28.415 10.0735L25.5067 13.8123L25.0985 13.287C24.975 13.1338 24.7963 13.0352 24.6008 13.0126C24.4053 12.9899 24.2087 13.045 24.0535 13.1659C23.8982 13.2869 23.7967 13.464 23.7708 13.659C23.7449 13.8541 23.7967 14.0516 23.9151 14.2088L24.9148 15.4942ZM8.00687 12.784H7.25672C7.05785 12.784 6.86713 12.863 6.7265 13.0036C6.58587 13.1442 6.50686 13.3349 6.50684 13.5338C6.5068 13.6323 6.52617 13.7298 6.56384 13.8209C6.60151 13.9119 6.65674 13.9946 6.72637 14.0642C6.79601 14.1339 6.87869 14.1892 6.96968 14.2269C7.06068 14.2646 7.15822 14.284 7.25672 14.284H8.00687C8.42083 14.284 8.75666 13.9483 8.75666 13.5338C8.75666 13.1198 8.42092 12.784 8.00687 12.784ZM11.0068 12.784C10.808 12.784 10.6172 12.863 10.4766 13.0036C10.336 13.1442 10.257 13.3349 10.257 13.5338C10.2569 13.6323 10.2763 13.7298 10.314 13.8209C10.3516 13.9119 10.4069 13.9946 10.4765 14.0642C10.5461 14.1339 10.6288 14.1892 10.7198 14.2269C10.8108 14.2646 10.9083 14.284 11.0068 14.284H20.0067C20.1058 14.2851 20.2042 14.2665 20.2962 14.2293C20.3881 14.1921 20.4718 14.137 20.5423 14.0673C20.6128 13.9975 20.6688 13.9145 20.707 13.8229C20.7452 13.7314 20.7648 13.6332 20.7648 13.534C20.7648 13.4348 20.7452 13.3366 20.707 13.2451C20.6688 13.1536 20.6128 13.0705 20.5423 13.0008C20.4718 12.931 20.3881 12.876 20.2962 12.8387C20.2042 12.8015 20.1058 12.7829 20.0067 12.784H11.0068ZM24.9148 22.2443C24.9849 22.3344 25.0747 22.4073 25.1772 22.4574C25.2798 22.5076 25.3924 22.5336 25.5065 22.5336C25.6207 22.5336 25.7333 22.5076 25.8359 22.4574C25.9384 22.4073 26.0282 22.3344 26.0983 22.2443L29.5984 17.7443C29.6612 17.6668 29.7079 17.5776 29.7358 17.4818C29.7637 17.3861 29.7722 17.2857 29.7608 17.1867C29.7494 17.0876 29.7184 16.9918 29.6696 16.9048C29.6208 16.8179 29.5551 16.7416 29.4764 16.6803C29.3977 16.6191 29.3075 16.5741 29.2113 16.5481C29.115 16.5221 29.0145 16.5156 28.9157 16.5289C28.8168 16.5422 28.7216 16.5751 28.6357 16.6256C28.5497 16.6761 28.4747 16.7433 28.415 16.8232L25.5067 20.5621L25.0985 20.0371C25.0176 19.9333 24.9108 19.8526 24.7888 19.8031C24.6668 19.7537 24.5339 19.7372 24.4036 19.7553C24.2732 19.7734 24.1499 19.8255 24.046 19.9064C23.9421 19.9872 23.8614 20.094 23.8118 20.2159C23.7623 20.338 23.7458 20.4708 23.7639 20.6013C23.782 20.7317 23.8342 20.855 23.9151 20.9589L24.9148 22.2443ZM8.00687 19.5337H7.25672C7.15822 19.5338 7.0607 19.5532 6.9697 19.5909C6.87871 19.6286 6.79604 19.6838 6.7264 19.7535C6.65677 19.8232 6.60154 19.9058 6.56387 19.9969C6.52619 20.0879 6.50681 20.1854 6.50684 20.2839C6.50684 20.6979 6.84258 21.0337 7.25672 21.0337H8.00687C8.20577 21.0337 8.39653 20.9547 8.53717 20.814C8.67782 20.6734 8.75684 20.4826 8.75684 20.2837C8.75684 20.0848 8.67782 19.894 8.53717 19.7534C8.39653 19.6128 8.20577 19.5337 8.00687 19.5337ZM20.0067 19.5337H11.0068C10.9083 19.5338 10.8108 19.5532 10.7198 19.5909C10.6288 19.6286 10.5462 19.6838 10.4765 19.7535C10.4069 19.8232 10.3517 19.9058 10.314 19.9969C10.2763 20.0879 10.2569 20.1854 10.257 20.2839C10.257 20.6979 10.5927 21.0337 11.0068 21.0337H20.0067C20.2056 21.0337 20.3963 20.9547 20.537 20.814C20.6776 20.6734 20.7566 20.4826 20.7566 20.2837C20.7566 20.0848 20.6776 19.894 20.537 19.7534C20.3963 19.6128 20.2056 19.5337 20.0067 19.5337ZM24.9148 28.9944C24.985 29.0844 25.0747 29.1573 25.1773 29.2074C25.2799 29.2575 25.3925 29.2835 25.5067 29.2834C25.6208 29.2835 25.7334 29.2574 25.8359 29.2073C25.9384 29.1572 26.0281 29.0843 26.0982 28.9943L29.5984 24.4944C29.6612 24.4169 29.7079 24.3277 29.7358 24.2319C29.7637 24.1362 29.7722 24.0358 29.7608 23.9368C29.7494 23.8377 29.7184 23.7419 29.6696 23.6549C29.6208 23.568 29.5551 23.4917 29.4764 23.4304C29.3977 23.3692 29.3075 23.3242 29.2113 23.2982C29.115 23.2722 29.0145 23.2657 28.9157 23.279C28.8168 23.2923 28.7216 23.3252 28.6357 23.3757C28.5497 23.4262 28.4747 23.4934 28.415 23.5733L25.5067 27.3121L25.0985 26.7871C25.038 26.7094 24.9628 26.6443 24.8771 26.5957C24.7914 26.547 24.697 26.5157 24.5993 26.5036C24.5015 26.4914 24.4023 26.4987 24.3074 26.5249C24.2124 26.5511 24.1235 26.5957 24.0459 26.6563C23.719 26.9108 23.6606 27.3821 23.9151 27.709L24.9148 28.9944ZM8.00687 26.2838H7.25672C7.15822 26.2838 7.0607 26.3033 6.9697 26.341C6.87871 26.3787 6.79604 26.4339 6.7264 26.5036C6.65677 26.5732 6.60154 26.6559 6.56387 26.7469C6.52619 26.8379 6.50681 26.9355 6.50684 27.034C6.50684 27.4479 6.84258 27.7838 7.25672 27.7838H8.00687C8.42083 27.7838 8.75666 27.448 8.75666 27.034C8.75668 26.9355 8.73731 26.838 8.69964 26.747C8.66197 26.656 8.60675 26.5733 8.53712 26.5036C8.4675 26.434 8.38483 26.3787 8.29385 26.341C8.20287 26.3033 8.10535 26.2839 8.00687 26.2838ZM20.0067 26.2838H11.0068C10.9083 26.2838 10.8108 26.3033 10.7198 26.341C10.6288 26.3787 10.5462 26.4339 10.4765 26.5036C10.4069 26.5732 10.3517 26.6559 10.314 26.7469C10.2763 26.8379 10.2569 26.9355 10.257 27.034C10.257 27.4479 10.5927 27.7838 11.0068 27.7838H20.0067C20.2056 27.7838 20.3963 27.7048 20.537 27.5641C20.6776 27.4235 20.7566 27.2327 20.7566 27.0338C20.7566 26.8349 20.6776 26.6441 20.537 26.5035C20.3963 26.3628 20.2056 26.2838 20.0067 26.2838ZM24.9148 35.7444C24.985 35.8344 25.0748 35.9072 25.1773 35.9573C25.2799 36.0075 25.3925 36.0335 25.5067 36.0335C25.6208 36.0335 25.7333 36.0074 25.8358 35.9573C25.9383 35.9072 26.0281 35.8344 26.0982 35.7444L29.5984 31.2445C29.6612 31.167 29.7079 31.0778 29.7358 30.982C29.7637 30.8863 29.7722 30.7859 29.7608 30.6868C29.7494 30.5878 29.7184 30.492 29.6696 30.405C29.6208 30.3181 29.5551 30.2417 29.4764 30.1805C29.3977 30.1192 29.3075 30.0743 29.2113 30.0483C29.115 30.0223 29.0145 30.0158 28.9157 30.0291C28.8168 30.0424 28.7216 30.0752 28.6357 30.1258C28.5497 30.1763 28.4747 30.2435 28.415 30.3234L25.5067 34.0621L25.0985 33.5372C25.038 33.4594 24.9628 33.3944 24.8771 33.3457C24.7914 33.2971 24.697 33.2658 24.5993 33.2537C24.5015 33.2415 24.4023 33.2488 24.3074 33.275C24.2124 33.3012 24.1235 33.3458 24.0459 33.4064C23.719 33.6608 23.6606 34.1322 23.9151 34.459L24.9148 35.7444ZM8.00687 33.0339H7.25672C7.05787 33.0339 6.86716 33.1129 6.72653 33.2535C6.58591 33.3941 6.50688 33.5848 6.50684 33.7836C6.5068 33.8821 6.52617 33.9797 6.56385 34.0707C6.60152 34.1617 6.65676 34.2444 6.7264 34.3141C6.79605 34.3838 6.87874 34.439 6.96974 34.4767C7.06075 34.5145 7.1583 34.5339 7.25681 34.5339H8.00695C8.42092 34.5339 8.75675 34.1981 8.75675 33.7837C8.75675 33.3697 8.42092 33.0339 8.00687 33.0339ZM20.0067 33.0339H11.0068C10.808 33.0339 10.6173 33.1129 10.4767 33.2535C10.336 33.3941 10.257 33.5848 10.257 33.7836C10.2569 33.8821 10.2763 33.9797 10.314 34.0707C10.3516 34.1617 10.4069 34.2444 10.4765 34.3141C10.5461 34.3837 10.6288 34.439 10.7198 34.4767C10.8108 34.5144 10.9083 34.5338 11.0068 34.5339H20.0067C20.1061 34.5354 20.2049 34.5171 20.2972 34.4801C20.3895 34.4431 20.4736 34.3881 20.5444 34.3183C20.6153 34.2485 20.6716 34.1653 20.71 34.0736C20.7484 33.9818 20.7682 33.8834 20.7682 33.7839C20.7682 33.6844 20.7484 33.586 20.71 33.4942C20.6716 33.4025 20.6153 33.3193 20.5444 33.2495C20.4736 33.1797 20.3895 33.1247 20.2972 33.0877C20.2049 33.0507 20.1061 33.0324 20.0067 33.0339Z" fill="#002147"/>
</g>
</g>
<defs>
<clipPath id="clip0_205_3491">
<rect width="45.0176" height="45.0176" fill="white" transform="translate(1.66699 1.21094)"/>
</clipPath>
<clipPath id="clip1_205_3491">
<rect width="45" height="45" fill="white" transform="translate(2 0.789062)"/>
</clipPath>
</defs>
</svg>
