<svg width="59" height="59" viewBox="0 0 59 59" fill="none" xmlns="http://www.w3.org/2000/svg">
<g clip-path="url(#clip0_157_2184)">
<path d="M30.7752 0.4375H28.3174C13.0465 0.4375 0.666992 12.817 0.666992 28.0879V30.5457C0.666992 45.8166 13.0465 58.1961 28.3174 58.1961H30.7752C46.0461 58.1961 58.4256 45.8166 58.4256 30.5457V28.0879C58.4256 12.817 46.0461 0.4375 30.7752 0.4375Z" fill="#EBF3FC"/>
<path d="M18.4245 30.1553C18.3033 30.1553 18.1821 30.0947 18.0608 30.0341C17.8184 29.8523 17.7578 29.428 17.9396 29.1856L23.2124 22.0341C23.3942 21.7917 23.8184 21.7311 24.0608 21.9129C24.3033 22.0947 24.3639 22.5189 24.1821 22.7614L18.9093 29.9129C18.7881 30.0947 18.6063 30.1553 18.4245 30.1553ZM19.576 24.7614C19.0911 24.7614 18.6669 24.5795 18.3033 24.2765C17.9396 23.9129 17.7578 23.4886 17.7578 23.0038C17.7578 21.9735 18.5457 21.1856 19.5154 21.125C20.0002 21.125 20.4851 21.3068 20.7881 21.6098C21.1518 21.9735 21.3336 22.3977 21.3336 22.8826C21.3942 23.9129 20.6063 24.7614 19.576 24.7614ZM19.576 22.3371C19.2124 22.3371 18.9699 22.6402 18.9699 22.9432C18.9699 23.125 19.0305 23.2462 19.1518 23.3674C19.273 23.4886 19.3942 23.5492 19.576 23.5492C19.9396 23.5492 20.1821 23.2462 20.1821 22.9432C20.1821 22.7614 20.1214 22.6402 20.0002 22.5189C19.879 22.3977 19.7578 22.3371 19.576 22.3371ZM22.6063 30.822C21.6366 30.822 20.7881 30.0341 20.7881 29.0644C20.7881 28.5795 20.9699 28.0947 21.273 27.7917C21.6366 27.428 22.0608 27.2462 22.5457 27.2462C23.0305 27.2462 23.5154 27.428 23.8184 27.7311C24.1821 28.0947 24.3639 28.5189 24.3639 29.0038C24.4245 29.9735 23.6366 30.822 22.6063 30.822ZM22.6063 28.3977C22.4245 28.3977 22.3033 28.4583 22.1821 28.5795C22.0608 28.7008 22.0002 28.822 22.0002 29.0038C22.0002 29.3674 22.3033 29.6098 22.6063 29.6098C22.9699 29.6098 23.2124 29.3068 23.2124 29.0038C23.2124 28.822 23.1518 28.7008 23.0305 28.5795C22.9093 28.4583 22.7881 28.3977 22.6063 28.3977Z" fill="#002147"/>
<path d="M28.606 44.8234C18.9091 44.8234 11.0303 36.9446 11.0303 27.2476C11.0303 17.5507 18.9091 9.67188 28.606 9.67188C32.9697 9.67188 37.1515 11.2476 40.4242 14.2173C40.5454 14.3385 40.606 14.4598 40.606 14.6416C40.606 14.8234 40.5454 14.9446 40.4242 15.0658L29.2121 27.3688L31.0909 43.9749C31.0909 44.1567 31.0909 44.2779 30.9697 44.3992C30.8485 44.5204 30.7272 44.581 30.5454 44.6416C30 44.7628 29.3333 44.8234 28.606 44.8234ZM28.606 10.884C19.5757 10.884 12.2424 18.2173 12.2424 27.2476C12.2424 36.2779 19.5757 43.6113 28.606 43.6113C29.0303 43.6113 29.4545 43.6113 29.8788 43.5507L28 27.2476C28 27.0658 28.0606 26.884 28.1818 26.7628L39.1515 14.7022C36.1818 12.2173 32.4848 10.884 28.606 10.884Z" fill="#002147"/>
<path d="M44.6669 39.3714C44.5457 39.3714 44.4244 39.3108 44.3032 39.2502C39.7578 35.6745 31.0911 28.7048 31.0305 28.6442C30.9093 28.523 30.8487 28.4018 30.7881 28.2199C30.7881 28.0381 30.8487 27.9169 30.9699 27.7957L42.3638 15.1896C42.4851 15.0684 42.6063 15.0078 42.7881 15.0078C42.9699 15.0078 43.0911 15.0684 43.2123 15.1896C46.9093 18.523 48.9699 23.3108 48.9699 28.2199C48.9699 32.1593 47.6366 36.0987 45.1517 39.1896C45.0305 39.3108 44.8487 39.3714 44.6669 39.3714ZM32.3032 28.0987C34.1214 29.5533 40.6063 34.7654 44.6063 37.9169C46.6669 35.0684 47.8184 31.6745 47.8184 28.1593C47.8184 23.7351 46.0002 19.4927 42.9093 16.4018L32.3032 28.0987ZM33.3335 48.4018C33.2123 48.4018 33.0911 48.3411 32.9699 48.2805C32.8487 48.1593 32.7881 48.0381 32.7275 47.8563L30.7881 30.9472C30.7881 30.7048 30.9093 30.4624 31.0911 30.3411C31.3335 30.2199 31.576 30.2199 31.7578 30.4018C31.8184 30.4624 40.4851 37.4927 45.0305 41.0078C45.1517 41.129 45.2123 41.2502 45.2729 41.4321C45.2729 41.6139 45.2729 41.7351 45.1517 41.8563C42.3032 45.4321 38.0608 47.8563 33.3941 48.4018H33.3335ZM32.182 32.2805L33.879 47.129C37.7578 46.523 41.3335 44.523 43.8184 41.6139C40.182 38.7654 34.5457 34.2199 32.182 32.2805Z" fill="#002147"/>
<path d="M48.3638 28.7604H31.3941C31.0305 28.7604 30.7881 28.518 30.7881 28.1544C30.7881 27.7907 31.0305 27.5483 31.3941 27.5483H48.3638C48.7275 27.5483 48.9699 27.7907 48.9699 28.1544C48.9699 28.518 48.7275 28.7604 48.3638 28.7604ZM47.9396 25.0028H34.7275C34.3638 25.0028 34.1214 24.7604 34.1214 24.3968C34.1214 24.0331 34.3638 23.7907 34.7275 23.7907H47.9396C48.3032 23.7907 48.5457 24.0331 48.5457 24.3968C48.5457 24.7604 48.3032 25.0028 47.9396 25.0028ZM46.6669 21.3059H38.1214C37.7578 21.3059 37.5154 21.0634 37.5154 20.6998C37.5154 20.3362 37.7578 20.0938 38.1214 20.0938H46.6669C47.0305 20.0938 47.2729 20.3362 47.2729 20.6998C47.2729 21.0634 47.0305 21.3059 46.6669 21.3059ZM46.6669 36.1544H40.6669C40.3032 36.1544 40.0608 35.9119 40.0608 35.5483C40.0608 35.1847 40.3032 34.9422 40.6669 34.9422H46.6669C47.0305 34.9422 47.2729 35.1847 47.2729 35.5483C47.2729 35.9119 47.0305 36.1544 46.6669 36.1544ZM47.9396 32.4574H36.0002C35.6366 32.4574 35.3941 32.215 35.3941 31.8513C35.3941 31.4877 35.6366 31.2453 36.0002 31.2453H47.9396C48.3032 31.2453 48.5457 31.4877 48.5457 31.8513C48.5457 32.215 48.3032 32.4574 47.9396 32.4574Z" fill="#002147"/>
</g>
<defs>
<clipPath id="clip0_157_2184">
<rect width="58.2114" height="58.2114" fill="white" transform="translate(0.666992)"/>
</clipPath>
</defs>
</svg>
