<svg width="46" height="45" viewBox="0 0 46 45" fill="none" xmlns="http://www.w3.org/2000/svg">
<path d="M34.2236 9.55063L24.9378 0.207422C24.8725 0.141683 24.7948 0.0895149 24.7092 0.0539174C24.6236 0.0183199 24.5318 -3.95689e-06 24.4391 6.40914e-10L4.10352 6.40914e-10C3.33456 0.000883944 2.59734 0.306744 2.05361 0.850481C1.50987 1.39422 1.20401 2.13143 1.20312 2.90039V42.0996C1.20401 42.8686 1.50987 43.6058 2.05361 44.1495C2.59734 44.6933 3.33456 44.9991 4.10352 45H31.5279C32.2969 44.9991 33.0341 44.6933 33.5779 44.1495C34.1216 43.6058 34.4274 42.8686 34.4283 42.0996V28.3711L43.5942 19.2051C44.3669 18.4323 44.801 17.3843 44.801 16.2915C44.801 15.1987 44.3669 14.1506 43.5942 13.3779C42.8215 12.6052 41.7734 12.1711 40.6806 12.1711C39.5878 12.1711 38.5398 12.6052 37.767 13.3779L34.4281 16.7169V10.046C34.428 9.86036 34.3545 9.68229 34.2236 9.55063ZM35.5191 17.6147L39.3574 21.453L25.9014 34.909L22.0631 31.0707L35.5191 17.6147ZM37.4584 15.6754L41.2966 19.5137L40.3517 20.4586L36.5137 16.6201L37.4584 15.6754ZM21.4275 32.4229L24.5353 35.5308L20.6568 36.2539L21.4275 32.4229ZM25.4897 2.75757L31.6332 8.93865H25.4897V2.75757ZM33.0221 42.0996C33.0216 42.4957 32.8641 42.8755 32.584 43.1556C32.3039 43.4357 31.9241 43.5933 31.5279 43.5938H4.10352C3.70738 43.5933 3.3276 43.4357 3.04749 43.1556C2.76738 42.8755 2.60982 42.4957 2.60938 42.0996V2.90039C2.60982 2.50426 2.76738 2.12447 3.04749 1.84436C3.3276 1.56425 3.70738 1.40669 4.10352 1.40625H24.0834V9.6416C24.0834 9.82808 24.1575 10.0069 24.2894 10.1388C24.4212 10.2706 24.6001 10.3447 24.7866 10.3447H33.0219V18.123L20.4633 30.682C20.3653 30.78 20.2985 30.9047 20.2712 31.0405L19.0729 36.9976C19.0502 37.1104 19.0555 37.2271 19.0884 37.3373C19.1213 37.4475 19.1807 37.548 19.2615 37.6299C19.3423 37.7119 19.4419 37.7727 19.5517 37.8072C19.6614 37.8416 19.778 37.8486 19.891 37.8275L25.922 36.7031C26.0616 36.6771 26.19 36.6095 26.2904 36.5092L33.0221 29.7773V42.0996ZM42.5996 14.3724C43.1062 14.8827 43.3904 15.5725 43.3904 16.2915C43.3904 17.0105 43.1062 17.7004 42.5996 18.2107L42.2909 18.5193L38.4528 14.6811L38.7613 14.3724C39.2707 13.8642 39.9609 13.5787 40.6805 13.5787C41.4 13.5787 42.0902 13.8642 42.5996 14.3724ZM18.2574 32.9596C18.2574 33.1461 18.1833 33.3249 18.0515 33.4568C17.9196 33.5886 17.7408 33.6627 17.5543 33.6627H6.57649C6.39001 33.6627 6.21117 33.5886 6.07931 33.4568C5.94745 33.3249 5.87337 33.1461 5.87337 32.9596C5.87337 32.7731 5.94745 32.5943 6.07931 32.4624C6.21117 32.3306 6.39001 32.2565 6.57649 32.2565H17.554C17.6464 32.2564 17.7379 32.2746 17.8232 32.3099C17.9085 32.3452 17.9861 32.397 18.0514 32.4623C18.1167 32.5276 18.1685 32.6051 18.2039 32.6905C18.2392 32.7758 18.2574 32.8672 18.2574 32.9596ZM5.87363 26.8319C5.87363 26.6454 5.94771 26.4665 6.07957 26.3347C6.21143 26.2028 6.39028 26.1287 6.57676 26.1287H21.0818C21.2683 26.1287 21.4471 26.2028 21.579 26.3347C21.7108 26.4665 21.7849 26.6454 21.7849 26.8319C21.7849 27.0183 21.7108 27.1972 21.579 27.329C21.4471 27.4609 21.2683 27.535 21.0818 27.535H6.57649C6.39001 27.535 6.21117 27.4609 6.07931 27.329C5.94745 27.1972 5.87337 27.0183 5.87337 26.8319H5.87363ZM5.87363 20.7041C5.87363 20.5177 5.94771 20.3388 6.07957 20.2069C6.21143 20.0751 6.39028 20.001 6.57676 20.001H29.055C29.2414 20.001 29.4203 20.0751 29.5521 20.2069C29.684 20.3388 29.7581 20.5177 29.7581 20.7041C29.7581 20.8906 29.684 21.0695 29.5521 21.2013C29.4203 21.3332 29.2414 21.4073 29.055 21.4073H6.57649C6.39001 21.4073 6.21117 21.3332 6.07931 21.2013C5.94745 21.0695 5.87337 20.8906 5.87337 20.7041H5.87363ZM5.87363 14.5765C5.87363 14.39 5.94771 14.2112 6.07957 14.0793C6.21143 13.9474 6.39028 13.8734 6.57676 13.8734H29.055C29.2414 13.8734 29.4203 13.9474 29.5521 14.0793C29.684 14.2112 29.7581 14.39 29.7581 14.5765C29.7581 14.763 29.684 14.9418 29.5521 15.0737C29.4203 15.2055 29.2414 15.2796 29.055 15.2796H6.57649C6.39001 15.2796 6.21117 15.2055 6.07931 15.0737C5.94745 14.9418 5.87337 14.763 5.87337 14.5765H5.87363ZM5.87363 8.44875C5.87363 8.26227 5.94771 8.08343 6.07957 7.95157C6.21143 7.8197 6.39028 7.74563 6.57676 7.74563H21.4612C21.6477 7.74563 21.8265 7.8197 21.9584 7.95157C22.0903 8.08343 22.1643 8.26227 22.1643 8.44875C22.1643 8.63523 22.0903 8.81407 21.9584 8.94593C21.8265 9.0778 21.6477 9.15187 21.4612 9.15187H6.57649C6.39001 9.15187 6.21117 9.0778 6.07931 8.94593C5.94745 8.81407 5.87337 8.63523 5.87337 8.44875H5.87363Z" fill="#002147"/>
</svg>
