<svg width="49" height="48" viewBox="0 0 49 48" fill="none" xmlns="http://www.w3.org/2000/svg">
<path d="M20.2709 29.3217C20.2737 29.3219 20.2763 29.3227 20.279 29.3228C20.2847 29.323 20.2903 29.3251 20.2959 29.3251L20.2965 29.325L20.2971 29.3251C20.3008 29.3251 20.3043 29.3237 20.3079 29.3237C20.3226 29.3238 20.3369 29.3259 20.3516 29.3259H20.352C24.8285 29.3259 28.4704 25.684 28.4704 21.2073C28.4704 16.7306 24.8285 13.0888 20.352 13.0888C20.3436 13.0888 20.3354 13.09 20.3269 13.0901C20.3168 13.0896 20.3066 13.0911 20.2964 13.0911C20.277 13.0911 20.2575 13.0921 20.2381 13.0941C20.2269 13.0951 20.2157 13.0946 20.2045 13.0963C15.7964 13.1761 12.2334 16.7804 12.2334 21.2073C12.2334 25.6566 15.832 29.2775 20.2709 29.3217ZM14.037 23.9829H15.8815C16.31 25.3818 17.0581 26.6594 18.0806 27.7178C16.2721 27.0847 14.8052 25.7238 14.037 23.9829ZM27.2541 21.2072C27.2541 21.7442 27.1864 22.2647 27.0698 22.7667H24.9931C25.0783 22.2525 25.1266 21.7273 25.1266 21.1922C25.1266 20.6682 25.0794 20.1532 24.9961 19.6482H27.07C27.1865 20.1502 27.2541 20.6705 27.2541 21.2072ZM23.9104 21.2224C23.9104 21.7477 23.8601 22.264 23.7643 22.7668H20.9598V19.6483H23.7616C23.8608 20.1671 23.9106 20.6942 23.9104 21.2224ZM17.1663 23.9829H19.7437V27.5891C18.5523 26.6372 17.6704 25.3914 17.1663 23.9829ZM20.9598 27.4954V23.9828H23.43C22.9425 25.3434 22.097 26.5542 20.9598 27.4954ZM20.9598 18.4321V14.9193C22.0946 15.8587 22.9389 17.0682 23.4269 18.4321H20.9598ZM19.7437 14.8255V18.4321H17.163C17.6664 17.0269 18.5495 15.7791 19.7437 14.8255ZM19.7437 19.6482V22.7667H16.8314C16.7322 22.2477 16.6824 21.7206 16.6826 21.1922C16.6826 20.6671 16.7329 20.1508 16.8286 19.6482H19.7437ZM15.597 22.7667H13.6339C13.5174 22.2647 13.4496 21.7442 13.4496 21.2072C13.4496 20.6704 13.5173 20.1501 13.6338 19.6482H15.5999C15.5148 20.1622 15.4665 20.6874 15.4665 21.2223C15.4665 21.7464 15.5139 22.2617 15.597 22.7667ZM22.4448 27.7832C23.4949 26.7176 24.2715 25.4137 24.7082 23.9828H26.6668C25.8731 25.7814 24.3361 27.1798 22.4448 27.7832ZM26.6669 18.4321H24.7116C24.274 17.001 23.4965 15.697 22.4455 14.6316C24.3367 15.2352 25.8735 16.6336 26.6669 18.4321ZM18.0812 14.6966C17.0609 15.7533 16.3138 17.03 15.8847 18.4321H14.0368C14.805 16.6908 16.2723 15.3296 18.0812 14.6966ZM41.759 9.98334C41.3423 9.17572 40.6388 8.57991 39.7781 8.30516L20.5376 2.16178C19.6773 1.88624 18.7584 1.96464 17.9509 2.38186C17.1435 2.79837 16.5475 3.50185 16.2727 4.36247L14.9958 8.36141H10.2532C8.38182 8.36141 6.85938 9.88403 6.85938 11.7554V43.6064C6.85938 45.4778 8.38182 47 10.2532 47H30.4505C32.3219 47 33.8443 45.4778 33.8443 43.6064V38.0471L41.9789 12.5701C42.2536 11.7099 42.1757 10.791 41.759 9.98334ZM32.6281 43.6064C32.6281 44.8072 31.6512 45.7838 30.4505 45.7838H10.2532C9.05242 45.7838 8.07561 44.8072 8.07561 43.6064V11.7554C8.07561 10.5546 9.05251 9.57764 10.2532 9.57764H30.4505C31.6513 9.57764 32.6281 10.5547 32.6281 11.7554V43.6064ZM40.8205 12.2004L33.8443 34.0493V11.7554C33.8443 9.88403 32.3219 8.36141 30.4505 8.36141H16.2721L17.431 4.73232C17.607 4.18124 17.9897 3.73028 18.5085 3.4623C19.0271 3.19467 19.6162 3.1444 20.1679 3.32018L39.4084 9.46365C39.9594 9.63978 40.4106 10.0223 40.6782 10.5413C40.9458 11.0598 40.9964 11.6493 40.8205 12.2004ZM28.5544 34.0271C28.5544 34.1883 28.4903 34.343 28.3762 34.457C28.2622 34.5711 28.1075 34.6351 27.9463 34.6352H12.7572C12.5977 34.6325 12.4457 34.5672 12.3338 34.4534C12.222 34.3397 12.1593 34.1866 12.1593 34.0271C12.1593 33.8675 12.222 33.7144 12.3338 33.6007C12.4457 33.4869 12.5977 33.4216 12.7572 33.4189H27.9464C28.0262 33.4189 28.1053 33.4347 28.1791 33.4652C28.2528 33.4958 28.3199 33.5406 28.3763 33.5971C28.4328 33.6535 28.4776 33.7206 28.5081 33.7943C28.5387 33.8681 28.5544 33.9472 28.5544 34.0271ZM28.5544 38.3196C28.5544 38.4809 28.4903 38.6356 28.3762 38.7496C28.2622 38.8636 28.1075 38.9277 27.9463 38.9277H12.7572C12.5977 38.925 12.4457 38.8598 12.3338 38.746C12.222 38.6323 12.1593 38.4791 12.1593 38.3196C12.1593 38.1601 12.222 38.007 12.3338 37.8932C12.4457 37.7795 12.5977 37.7142 12.7572 37.7115H27.9464C28.1076 37.7116 28.2623 37.7756 28.3763 37.8897C28.4903 38.0037 28.5544 38.1584 28.5544 38.3196ZM25.1093 42.6123C25.1093 42.7736 25.0452 42.9282 24.9312 43.0423C24.8172 43.1563 24.6625 43.2204 24.5012 43.2204H16.2023C16.0428 43.2177 15.8908 43.1524 15.779 43.0387C15.6671 42.9249 15.6045 42.7718 15.6045 42.6123C15.6045 42.4528 15.6671 42.2996 15.779 42.1859C15.8908 42.0722 16.0428 42.0069 16.2023 42.0042H24.5012C24.6625 42.0042 24.8172 42.0682 24.9312 42.1823C25.0453 42.2963 25.1093 42.451 25.1093 42.6123Z" fill="#002147"/>
</svg>
