<svg width="59" height="59" viewBox="0 0 59 59" fill="none" xmlns="http://www.w3.org/2000/svg">
<g clip-path="url(#clip0_144_5972)">
<path d="M30.1082 0.4375H27.6504C12.3795 0.4375 0 12.817 0 28.0879V30.5457C0 45.8166 12.3795 58.1961 27.6504 58.1961H30.1082C45.3791 58.1961 57.7586 45.8166 57.7586 30.5457V28.0879C57.7586 12.817 45.3791 0.4375 30.1082 0.4375Z" fill="#EBF3FC"/>
<path d="M42.1611 38C43.285 38 44.179 37.2927 44.9817 36.3037C46.6249 34.2792 43.927 32.6613 42.898 31.8689C41.852 31.0634 40.6841 30.6071 39.5 30.5M38 27.5C40.0711 27.5 41.75 25.8211 41.75 23.75C41.75 21.6789 40.0711 20 38 20" stroke="#002147" stroke-width="2.25088" stroke-linecap="round"/>
<path d="M15.8389 38C14.715 38 13.821 37.2927 13.0183 36.3037C11.3751 34.2792 14.073 32.6613 15.102 31.8689C16.148 31.0634 17.3159 30.6071 18.5 30.5M19.25 27.5C17.1789 27.5 15.5 25.8211 15.5 23.75C15.5 21.6789 17.1789 20 19.25 20" stroke="#002147" stroke-width="2.25088" stroke-linecap="round"/>
<path d="M23.1257 33.6668C21.593 34.6145 17.5745 36.5496 20.022 38.9711C21.2177 40.154 22.5493 41 24.2234 41H33.7766C35.4507 41 36.7823 40.154 37.978 38.9711C40.4255 36.5496 36.407 34.6145 34.8743 33.6668C31.2802 31.4444 26.7198 31.4444 23.1257 33.6668Z" stroke="#002147" stroke-width="2.25088" stroke-linecap="round" stroke-linejoin="round"/>
<path d="M34.25 22.25C34.25 25.1495 31.8995 27.5 29 27.5C26.1005 27.5 23.75 25.1495 23.75 22.25C23.75 19.3505 26.1005 17 29 17C31.8995 17 34.25 19.3505 34.25 22.25Z" stroke="#002147" stroke-width="2.25088"/>
</g>
<defs>
<clipPath id="clip0_144_5972">
<rect width="58.2114" height="58.2114" fill="white"/>
</clipPath>
</defs>
</svg>
