<svg width="73" height="73" viewBox="0 0 73 73" fill="none" xmlns="http://www.w3.org/2000/svg">
<g clip-path="url(#clip0_1067_1205)">
<rect x="0.740234" y="0.928711" width="72" height="72" rx="36" fill="white" fill-opacity="0.07"/>
<path d="M20.1295 56.3395C20.1481 56.4834 20.2194 56.6154 20.3297 56.7098C20.44 56.8042 20.5814 56.8543 20.7266 56.8504H28.4609C28.5537 56.8545 28.646 56.8362 28.7302 56.797C28.8143 56.7578 28.8878 56.6989 28.9443 56.6253C29.0008 56.5516 29.0387 56.4654 29.0548 56.374C29.0709 56.2826 29.0647 56.1886 29.0367 56.1001L28.0472 52.8591L31.1299 50.9121C31.5259 50.6947 31.9896 50.6355 32.4276 50.7466C32.4399 50.7497 32.4525 50.753 32.4651 50.7552L38.9026 51.9411C40.6776 52.2587 42.5077 52.0004 44.1255 51.2038C44.151 51.1913 44.1756 51.177 44.199 51.1609L55.3328 43.5163C55.4592 43.4295 55.5477 43.2978 55.5802 43.1479C55.6127 42.9981 55.5868 42.8415 55.5077 42.7102C55.0866 42.0087 54.411 41.4967 53.6218 41.2808C52.8326 41.065 51.9905 41.1619 51.271 41.5514L51.1673 41.6074C50.357 40.6924 49.0103 40.3506 47.9772 40.8744L47.9638 40.8814L47.5877 41.084C47.0347 40.6378 46.3597 40.3692 45.6513 40.3136C44.9429 40.2579 44.2342 40.4177 43.6183 40.7721L41.2345 42.0691H38.0548C37.3779 42.068 36.71 41.9147 36.1004 41.6205L35.6589 41.4066C34.3815 40.785 32.957 40.5291 31.5432 40.6671C30.1293 40.8052 28.7813 41.3318 27.6482 42.1886C27.635 42.1986 27.6224 42.2089 27.6099 42.2198L26.5438 43.1691C26.1847 43.4884 25.765 43.7321 25.3097 43.8857L24.7394 41.9974C24.7027 41.8721 24.6273 41.7617 24.5239 41.6819C24.4205 41.6022 24.2946 41.5572 24.1641 41.5535H19.0078C18.9215 41.5568 18.8369 41.5782 18.7593 41.6162C18.6817 41.6542 18.613 41.7079 18.5574 41.7741C18.5009 41.8378 18.4587 41.9128 18.4334 41.9941C18.4081 42.0754 18.4004 42.1612 18.4107 42.2457L20.1295 56.3395ZM48.5273 41.9449C49.0154 41.7015 49.6187 41.8653 50.0522 42.2094L45.9853 44.4035L45.8594 44.4699C45.7419 44.1718 45.587 43.8899 45.3984 43.6308L48.5273 41.9449ZM44.2 41.8246C44.2048 41.822 44.2096 41.8194 44.2143 41.8167C44.5414 41.6275 44.9098 41.5211 45.2875 41.5067C45.6651 41.4924 46.0405 41.5706 46.3811 41.7345L44.499 42.7485C44.1773 42.5233 43.8224 42.3498 43.4471 42.2341L44.2 41.8246ZM27.3437 44.0676L28.391 43.1352C29.347 42.4177 30.4824 41.9778 31.6723 41.8638C32.8622 41.7499 34.0605 41.9663 35.1354 42.4893L35.5769 42.7036C36.3498 43.0764 37.1967 43.2708 38.0548 43.2722H42.3369C42.9114 43.2728 43.4693 43.4647 43.9227 43.8175C44.376 44.1704 44.699 44.6641 44.8406 45.2209L41.8952 45.0872C40.7595 45.0359 39.6214 45.0884 38.4953 45.2441C38.3392 45.2682 38.1988 45.3527 38.1045 45.4793C38.0102 45.606 37.9695 45.7647 37.9912 45.9211C38.0128 46.0775 38.0951 46.2192 38.2203 46.3154C38.3455 46.4117 38.5035 46.4549 38.6603 46.4357C39.7138 46.2901 40.7784 46.2409 41.8408 46.2887L45.4931 46.454C45.5017 46.454 45.5113 46.4546 45.5203 46.4546C45.6798 46.4546 45.8329 46.3912 45.9457 46.2784C46.0585 46.1656 46.1219 46.0126 46.1219 45.853C46.1219 45.7994 46.1201 45.7461 46.1179 45.693L46.551 45.4647L51.8421 42.6102C52.2035 42.4144 52.617 42.3363 53.0249 42.3866C53.4328 42.4369 53.8149 42.6132 54.1178 42.8909L43.5539 50.1441C42.1774 50.8121 40.6246 51.0269 39.1185 50.7576L32.7007 49.5758C31.9655 49.3954 31.1891 49.501 30.5289 49.8715C30.5195 49.8767 30.5103 49.8823 30.5012 49.888L27.6824 51.67L25.6603 45.0374C26.2819 44.8327 26.8549 44.5027 27.3437 44.0677V44.0676ZM23.7186 42.7566L27.6487 55.6472H21.2592L19.6871 42.7566H23.7186Z" fill="white"/>
<path d="M24.1875 55.4518C24.5104 55.4518 24.8261 55.3561 25.0946 55.1767C25.3632 54.9972 25.5724 54.7422 25.696 54.4439C25.8196 54.1455 25.8519 53.8172 25.7889 53.5005C25.7259 53.1837 25.5704 52.8928 25.3421 52.6645C25.1137 52.4361 24.8228 52.2806 24.506 52.2176C24.1893 52.1546 23.861 52.1869 23.5627 52.3105C23.2643 52.4341 23.0093 52.6434 22.8299 52.9119C22.6505 53.1804 22.5547 53.4961 22.5547 53.819C22.5552 54.2519 22.7274 54.6669 23.0335 54.973C23.3396 55.2791 23.7546 55.4513 24.1875 55.4518ZM24.1875 53.3893C24.2725 53.3893 24.3556 53.4145 24.4262 53.4618C24.4969 53.509 24.552 53.5761 24.5845 53.6546C24.617 53.7331 24.6255 53.8195 24.6089 53.9028C24.5924 53.9862 24.5514 54.0628 24.4913 54.1229C24.4312 54.1829 24.3547 54.2239 24.2713 54.2405C24.188 54.257 24.1016 54.2485 24.0231 54.216C23.9446 54.1835 23.8774 54.1284 23.8302 54.0577C23.783 53.9871 23.7578 53.904 23.7578 53.819C23.7579 53.7051 23.8033 53.5959 23.8838 53.5153C23.9644 53.4348 24.0736 53.3895 24.1875 53.3893ZM27.4884 29.1654L29.1207 29.3228C29.306 29.9949 29.5775 30.6403 29.9285 31.2427L28.8918 32.4945C28.7961 32.6099 28.747 32.7568 28.754 32.9066C28.761 33.0563 28.8237 33.198 28.9297 33.3039L30.8872 35.2614C30.9931 35.3674 31.1347 35.43 31.2844 35.437C31.434 35.444 31.5809 35.395 31.6963 35.2994L32.951 34.26C33.5529 34.61 34.1969 34.8822 34.8674 35.07L35.0247 36.7081C35.039 36.8576 35.1082 36.9965 35.2189 37.0979C35.3296 37.1993 35.4741 37.256 35.6242 37.2571H38.3995C38.5496 37.2558 38.6939 37.199 38.8045 37.0975C38.9151 36.9961 38.9842 36.8572 38.9983 36.7078L39.1557 35.0728C39.8278 34.887 40.4731 34.6151 41.0755 34.2638L42.3274 35.2998C42.4428 35.3952 42.5897 35.4442 42.7393 35.4371C42.8889 35.43 43.0305 35.3674 43.1364 35.2614L45.0936 33.3039C45.1996 33.198 45.2622 33.0564 45.2693 32.9067C45.2763 32.757 45.2272 32.6101 45.1317 32.4948L44.0918 31.2395C44.4419 30.6374 44.7142 29.9933 44.902 29.3225L46.5105 29.1655C46.6592 29.151 46.7972 29.0817 46.8976 28.971C46.998 28.8603 47.0536 28.7162 47.0536 28.5668V25.7915C47.0536 25.6419 46.9979 25.4977 46.8973 25.387C46.7968 25.2763 46.6586 25.207 46.5098 25.1926L44.8775 25.0354C44.6921 24.3632 44.4206 23.7179 44.0697 23.1154L45.1063 21.8636C45.2014 21.7487 45.2505 21.6027 45.244 21.4537C45.2375 21.3047 45.1758 21.1635 45.0711 21.0573L43.1388 19.0998C43.0331 18.9928 42.8912 18.9293 42.741 18.9218C42.5908 18.9142 42.4432 18.9632 42.3274 19.0591L41.0727 20.099C40.4707 19.749 39.8268 19.4768 39.1563 19.2889L38.9989 17.6741C38.9838 17.5269 38.9136 17.3908 38.8024 17.2932C38.6912 17.1956 38.5472 17.1436 38.3992 17.1477H35.6242C35.4765 17.1438 35.3328 17.1958 35.2217 17.2933C35.1107 17.3909 35.0406 17.5267 35.0254 17.6737L34.868 19.297C34.1961 19.4808 33.5507 19.7508 32.9481 20.1002L31.6962 19.0613C31.581 18.9656 31.4342 18.9164 31.2845 18.9232C31.1349 18.93 30.9932 18.9924 30.8871 19.0982L28.9297 21.0551C28.8239 21.161 28.7613 21.3026 28.7543 21.4521C28.7473 21.6017 28.7963 21.7485 28.8917 21.8639L29.9316 23.1185C29.5816 23.7205 29.3094 24.3644 29.1215 25.0349L27.4887 25.1923C27.3397 25.2066 27.2014 25.2759 27.1008 25.3867C27.0002 25.4975 26.9445 25.6418 26.9445 25.7915V28.5666C26.9445 28.7162 27.0002 28.8604 27.1008 28.9711C27.2013 29.0818 27.3395 29.1511 27.4884 29.1654ZM28.1477 26.3378L29.6602 26.1918C29.7871 26.1795 29.9069 26.1272 30.0022 26.0424C30.0975 25.9577 30.1634 25.8448 30.1903 25.7201C30.375 24.8911 30.7082 24.1023 31.1737 23.3919C31.243 23.2845 31.2763 23.1578 31.2687 23.0301C31.2612 22.9025 31.2131 22.7806 31.1316 22.6821L30.1676 21.518L31.3506 20.335L32.5146 21.299C32.6142 21.3815 32.7379 21.4298 32.8671 21.4365C32.9963 21.4432 33.1243 21.4081 33.232 21.3363C33.9382 20.869 34.7253 20.5373 35.5529 20.3581C35.6763 20.3351 35.7889 20.2727 35.8739 20.1804C35.9589 20.088 36.0117 19.9706 36.0245 19.8458L36.1706 18.3505H37.8533L37.9994 19.8458C38.0119 19.9717 38.0644 20.0903 38.1493 20.1841C38.2342 20.2779 38.347 20.3421 38.471 20.3671C39.3 20.55 40.0891 20.8815 40.7999 21.3456C40.9076 21.4147 41.0345 21.4476 41.1621 21.4396C41.2897 21.4316 41.4115 21.3831 41.5098 21.3012L42.671 20.3387L43.8342 21.5161L42.8669 22.6821C42.7844 22.7817 42.7362 22.9053 42.7295 23.0345C42.7228 23.1637 42.758 23.2916 42.8298 23.3993C43.297 24.1055 43.6286 24.8925 43.8078 25.7201C43.8348 25.8448 43.9006 25.9577 43.9959 26.0424C44.0912 26.1272 44.211 26.1795 44.338 26.1918L45.8505 26.3378V28.0209L44.3618 28.1663C44.2349 28.1786 44.1153 28.231 44.0201 28.3157C43.925 28.4005 43.8592 28.5132 43.8322 28.6378C43.6477 29.467 43.3147 30.2561 42.8492 30.9667C42.7798 31.0741 42.7465 31.2009 42.7541 31.3285C42.7617 31.4561 42.8097 31.5781 42.8913 31.6765L43.8557 32.8399L42.6727 34.0229L41.5086 33.0589C41.409 32.9764 41.2853 32.9282 41.1561 32.9214C41.0269 32.9147 40.8989 32.9499 40.7912 33.0216C40.085 33.489 39.298 33.8208 38.4703 34C38.3453 34.0282 38.2323 34.0951 38.1476 34.1914C38.0629 34.2876 38.0108 34.4081 37.9987 34.5357L37.8529 36.0539H36.1703L36.0242 34.5357C36.012 34.4084 35.9598 34.2883 35.875 34.1926C35.7903 34.0969 35.6774 34.0304 35.5526 34.0029C34.7234 33.8178 33.9346 33.4843 33.2241 33.0185C33.1167 32.9491 32.99 32.9157 32.8624 32.9232C32.7347 32.9307 32.6128 32.9786 32.5142 33.06L31.3503 34.0237L30.1676 32.8399L31.1316 31.6759C31.2141 31.5762 31.2623 31.4525 31.269 31.3233C31.2757 31.194 31.2405 31.066 31.1687 30.9584C30.7015 30.2521 30.3699 29.4651 30.1907 28.6375C30.1637 28.5129 30.0978 28.4 30.0025 28.3152C29.9072 28.2305 29.7875 28.1782 29.6605 28.1659L28.148 28.0198L28.1477 26.3378Z" fill="white"/>
<path d="M37.0127 33.1836C38.2004 33.1836 39.3613 32.8314 40.3488 32.1716C41.3363 31.5118 42.106 30.5739 42.5605 29.4767C43.015 28.3794 43.1339 27.172 42.9022 26.0072C42.6705 24.8424 42.0986 23.7724 41.2588 22.9326C40.419 22.0928 39.349 21.5209 38.1841 21.2892C37.0193 21.0575 35.8119 21.1764 34.7147 21.631C33.6174 22.0855 32.6796 22.8551 32.0198 23.8426C31.36 24.8302 31.0078 25.9911 31.0078 27.1788C31.0096 28.7708 31.6428 30.2971 32.7686 31.4229C33.8943 32.5486 35.4207 33.1818 37.0127 33.1836ZM37.0127 22.377C37.9624 22.377 38.8908 22.6587 39.6804 23.1863C40.4701 23.7139 41.0855 24.4638 41.4489 25.3412C41.8124 26.2187 41.9075 27.1841 41.7222 28.1156C41.5369 29.047 41.0796 29.9026 40.4081 30.5742C39.7365 31.2457 38.8809 31.703 37.9495 31.8883C37.018 32.0736 36.0525 31.9785 35.1751 31.615C34.2977 31.2516 33.5478 30.6362 33.0202 29.8465C32.4926 29.0569 32.2109 28.1285 32.2109 27.1788C32.2125 25.9058 32.7189 24.6854 33.619 23.7852C34.5192 22.8851 35.7397 22.3788 37.0127 22.3773V22.377Z" fill="white"/>
<path d="M35.9391 29.0154C36.0515 29.1251 36.2023 29.1865 36.3593 29.1865C36.5164 29.1865 36.6672 29.1251 36.7796 29.0154L39.659 26.2041C39.7162 26.1491 39.7619 26.0833 39.7936 26.0105C39.8253 25.9377 39.8422 25.8594 39.8435 25.78C39.8447 25.7006 39.8303 25.6218 39.8009 25.5481C39.7716 25.4743 39.7279 25.4071 39.6725 25.3503C39.617 25.2935 39.5509 25.2482 39.4779 25.2171C39.4048 25.186 39.3264 25.1696 39.247 25.169C39.1676 25.1683 39.0889 25.1834 39.0154 25.2133C38.9419 25.2432 38.875 25.2873 38.8186 25.3432L36.3593 27.744L35.1812 26.5938C35.1248 26.538 35.0579 26.4938 34.9844 26.4639C34.9109 26.434 34.8322 26.419 34.7528 26.4196C34.6734 26.4203 34.595 26.4366 34.5219 26.4678C34.4489 26.4989 34.3828 26.5442 34.3273 26.601C34.2719 26.6578 34.2282 26.725 34.1989 26.7987C34.1695 26.8725 34.1551 26.9513 34.1563 27.0307C34.1576 27.11 34.1745 27.1884 34.2062 27.2611C34.2379 27.3339 34.2836 27.3997 34.3408 27.4547L35.9391 29.0154Z" fill="white"/>
</g>
<defs>
<clipPath id="clip0_1067_1205">
<rect width="72" height="72" fill="white" transform="translate(0.740234 0.928711)"/>
</clipPath>
</defs>
</svg>
