<svg width="49" height="49" viewBox="0 0 49 49" fill="none" xmlns="http://www.w3.org/2000/svg">
<g clip-path="url(#clip0_205_3475)">
<g clip-path="url(#clip1_205_3475)">
<g clip-path="url(#clip2_205_3475)">
<path d="M44.9156 26.0394H42.6154L41.1657 4.98855C41.1527 4.79863 41.0679 4.62076 40.9287 4.49097C40.7894 4.36118 40.606 4.28917 40.4156 4.28951H35.9156C35.7253 4.28916 35.5419 4.36117 35.4026 4.49095C35.2634 4.62072 35.1786 4.79857 35.1655 4.98848L33.7159 26.0393H32.166V21.5393C32.166 21.1255 31.8301 20.7893 31.4162 20.7893C31.2456 20.7891 31.0801 20.8471 30.9471 20.9539L24.6659 25.9787V21.5394C24.6659 21.1255 24.3303 20.7893 23.9161 20.7893C23.7456 20.7891 23.5802 20.8472 23.4473 20.9539L17.1661 25.9787V21.5394C17.1661 21.1255 16.8305 20.7893 16.4163 20.7893C16.2458 20.7891 16.0804 20.8471 15.9475 20.9539L9.6663 25.9787V21.5394C9.66621 21.4067 9.6309 21.2763 9.56397 21.1617C9.49705 21.047 9.4009 20.9522 9.28534 20.8868C9.16978 20.8215 9.03895 20.788 8.90621 20.7897C8.77347 20.7915 8.64357 20.8284 8.52977 20.8968L1.02967 25.3968C0.918781 25.4634 0.827017 25.5576 0.763295 25.6702C0.699573 25.7828 0.666061 25.91 0.666016 26.0393V44.0393C0.666016 44.4536 1.0019 44.7892 1.41611 44.7892H44.9156C45.3298 44.7892 45.6657 44.4536 45.6657 44.0394V26.7895C45.6657 26.375 45.3299 26.0394 44.9156 26.0394ZM36.616 5.78941H39.7153L41.1122 26.0394H35.2191L36.616 5.78941ZM26.1655 43.2893V34.2893H30.6655V43.2893H26.1655ZM44.1658 43.2893H32.166V33.5392C32.166 33.1253 31.8299 32.7894 31.4156 32.7894H25.4157C25.0016 32.7894 24.6656 33.1253 24.6656 33.5392V43.2893H2.16592V26.464L8.16583 22.864V27.5393C8.16583 27.9537 8.50143 28.2894 8.91564 28.29C9.08594 28.29 9.25152 28.2318 9.38477 28.1252L15.6659 23.1003V27.5393C15.6659 27.9537 16.0013 28.2894 16.4157 28.29C16.586 28.29 16.7514 28.2318 16.8846 28.1254L23.1657 23.1006V27.5396C23.1657 27.9537 23.5011 28.29 23.9155 28.29C24.0858 28.29 24.2512 28.2318 24.3844 28.1254L30.6655 23.1006V26.7895C30.6655 27.2039 31.0014 27.5396 31.4156 27.5396H44.1653V43.2893H44.1658ZM26.1606 1.28969C26.4333 1.43586 26.6797 1.62644 26.8898 1.8536C27.3102 2.3661 27.909 2.7005 28.5658 2.7896C29.2575 2.70152 29.8896 2.35279 30.333 1.81458C30.5227 1.61545 30.7352 1.43928 30.9661 1.28969C31.1204 1.29658 31.5247 1.67501 31.7422 1.87821C32.1467 2.37876 32.7278 2.705 33.3658 2.7896C34.1021 2.69628 34.7755 2.32685 35.2499 1.75601C35.4336 1.5836 35.7118 1.32183 35.7657 1.28969C36.1683 1.28969 36.2607 1.42315 36.5084 1.78019C36.6682 2.08212 36.9065 2.33529 37.1983 2.51296C37.49 2.69064 37.8243 2.78621 38.1659 2.7896C38.5798 2.7896 38.9157 2.45372 38.9157 2.03979C38.9157 1.6253 38.5798 1.28969 38.1659 1.28969C38.0157 1.28969 37.9866 1.27922 37.7429 0.927444C37.5475 0.576335 37.2603 0.284967 36.912 0.0845134C36.5637 -0.11594 36.1675 -0.217937 35.7657 -0.210564C35.159 -0.126394 34.6071 0.185837 34.2224 0.662576C33.9733 0.89742 33.5558 1.28962 33.3973 1.29321C33.1651 1.15238 32.9526 0.981206 32.7656 0.784217C32.3146 0.235052 31.6707 -0.120833 30.9658 -0.210494C30.3158 -0.121753 29.7235 0.209373 29.3074 0.716506C29.0969 0.942231 28.854 1.13541 28.5867 1.28969C28.3367 1.14647 28.1093 0.96701 27.9118 0.757147C27.4734 0.224942 26.8492 -0.120917 26.1655 -0.210494C25.7516 -0.2119 25.4144 0.122647 25.413 0.537139C25.4116 0.950998 25.7464 1.28829 26.1606 1.28969Z" fill="#002147"/>
<path d="M8.9162 34.2891H5.91583C5.50169 34.2891 5.16602 34.6249 5.16602 35.0389V39.5389C5.16602 39.9534 5.50162 40.289 5.91583 40.289H8.9162C9.33013 40.289 9.66602 39.9534 9.66602 39.5389V35.0389C9.66602 34.6249 9.33013 34.2891 8.9162 34.2891ZM8.16583 38.7891H6.66592V35.7893H8.16583V38.7891ZM14.9161 34.2891H11.916C11.5015 34.2891 11.1659 34.6249 11.1659 35.0389V39.5389C11.1659 39.6374 11.1853 39.7349 11.2229 39.826C11.2606 39.917 11.3159 39.9997 11.3855 40.0694C11.4552 40.139 11.5379 40.1943 11.6289 40.2319C11.7199 40.2696 11.8175 40.289 11.916 40.289H14.9161C15.33 40.289 15.6659 39.9534 15.6659 39.5389V35.0389C15.6659 34.6249 15.33 34.2891 14.9161 34.2891ZM14.1657 38.7891H12.6658V35.7893H14.1657V38.7891ZM20.916 34.2891H17.9159C17.5015 34.2891 17.1658 34.6249 17.1658 35.0389V39.5389C17.1658 39.6374 17.1852 39.7349 17.2228 39.826C17.2605 39.917 17.3158 39.9997 17.3854 40.0694C17.4551 40.139 17.5378 40.1943 17.6288 40.2319C17.7199 40.2696 17.8174 40.289 17.9159 40.289H20.916C21.3299 40.289 21.6658 39.9534 21.6658 39.5389V35.0389C21.6658 34.6249 21.3299 34.2891 20.916 34.2891ZM20.1656 38.7891H18.6657V35.7893H20.1656V38.7891Z" fill="#002147"/>
</g>
</g>
</g>
<defs>
<clipPath id="clip0_205_3475">
<rect width="48" height="48" fill="white" transform="translate(0.333984 0.210938)"/>
</clipPath>
<clipPath id="clip1_205_3475">
<rect width="48" height="48" fill="white" transform="translate(0 -0.210938)"/>
</clipPath>
<clipPath id="clip2_205_3475">
<rect width="45" height="45" fill="white" transform="translate(0.666016 -0.210938)"/>
</clipPath>
</defs>
</svg>
