<svg width="59" height="59" viewBox="0 0 59 59" fill="none" xmlns="http://www.w3.org/2000/svg">
<g clip-path="url(#clip0_144_6008)">
<path d="M30.1082 0.4375H27.6504C12.3795 0.4375 0 12.817 0 28.0879V30.5457C0 45.8166 12.3795 58.1961 27.6504 58.1961H30.1082C45.3791 58.1961 57.7586 45.8166 57.7586 30.5457V28.0879C57.7586 12.817 45.3791 0.4375 30.1082 0.4375Z" fill="#EBF3FC"/>
<path fill-rule="evenodd" clip-rule="evenodd" d="M24.811 20.843C26.7948 19.089 29.3524 18.1221 32.0005 18.125C38.002 18.125 42.8755 22.9985 42.8755 29C42.8755 35.0015 38.002 39.875 32.0005 39.875C29.3524 39.8779 26.7948 38.9111 24.811 37.157C24.5866 36.9651 24.2958 36.8691 24.0012 36.8897C23.7067 36.9102 23.4321 37.0458 23.2366 37.2671C23.0411 37.4883 22.9404 37.7776 22.9563 38.0724C22.9722 38.3672 23.1033 38.644 23.3215 38.843C25.7158 40.9615 28.8035 42.1291 32.0005 42.125C39.244 42.125 45.1255 36.2435 45.1255 29C45.1255 21.7565 39.244 15.875 32.0005 15.875C28.8035 15.8709 25.7158 17.0386 23.3215 19.157C23.208 19.254 23.1151 19.3726 23.0479 19.5059C22.9808 19.6392 22.9409 19.7846 22.9305 19.9335C22.9201 20.0823 22.9394 20.2318 22.9873 20.3732C23.0352 20.5145 23.1108 20.6449 23.2096 20.7568C23.3084 20.8686 23.4285 20.9597 23.5629 21.0247C23.6972 21.0897 23.8432 21.1273 23.9922 21.1353C24.1413 21.1433 24.2904 21.1216 24.431 21.0714C24.5715 21.0212 24.7007 20.9436 24.811 20.843Z" fill="#002147"/>
<path fill-rule="evenodd" clip-rule="evenodd" d="M30.275 22.3984V28.3984C30.275 28.6969 30.3935 28.9834 30.605 29.1934L35.405 33.9934C35.6158 34.2043 35.9018 34.3227 36.2 34.3227C36.4982 34.3227 36.7842 34.2043 36.995 33.9934C37.2058 33.7826 37.3243 33.4966 37.3243 33.1984C37.3243 32.9003 37.2058 32.6143 36.995 32.4034L32.525 27.9319V22.3984C32.525 22.1001 32.4065 21.8139 32.1955 21.6029C31.9845 21.392 31.6984 21.2734 31.4 21.2734C31.1016 21.2734 30.8155 21.392 30.6045 21.6029C30.3935 21.8139 30.275 22.1001 30.275 22.3984ZM14 24.8734H23C23.2984 24.8734 23.5845 24.7549 23.7955 24.5439C24.0065 24.333 24.125 24.0468 24.125 23.7484C24.125 23.4501 24.0065 23.1639 23.7955 22.9529C23.5845 22.742 23.2984 22.6234 23 22.6234H14C13.7016 22.6234 13.4155 22.742 13.2045 22.9529C12.9935 23.1639 12.875 23.4501 12.875 23.7484C12.875 24.0468 12.9935 24.333 13.2045 24.5439C13.4155 24.7549 13.7016 24.8734 14 24.8734ZM15.5 30.1234H24.5C24.7984 30.1234 25.0845 30.0049 25.2955 29.7939C25.5065 29.583 25.625 29.2968 25.625 28.9984C25.625 28.7001 25.5065 28.4139 25.2955 28.2029C25.0845 27.992 24.7984 27.8734 24.5 27.8734H15.5C15.2016 27.8734 14.9155 27.992 14.7045 28.2029C14.4935 28.4139 14.375 28.7001 14.375 28.9984C14.375 29.2968 14.4935 29.583 14.7045 29.7939C14.9155 30.0049 15.2016 30.1234 15.5 30.1234ZM17 35.3734H26C26.2984 35.3734 26.5845 35.2549 26.7955 35.0439C27.0065 34.833 27.125 34.5468 27.125 34.2484C27.125 33.9501 27.0065 33.6639 26.7955 33.4529C26.5845 33.242 26.2984 33.1234 26 33.1234H17C16.7016 33.1234 16.4155 33.242 16.2045 33.4529C15.9935 33.6639 15.875 33.9501 15.875 34.2484C15.875 34.5468 15.9935 34.833 16.2045 35.0439C16.4155 35.2549 16.7016 35.3734 17 35.3734Z" fill="#002147"/>
</g>
<defs>
<clipPath id="clip0_144_6008">
<rect width="58.2114" height="58.2114" fill="white"/>
</clipPath>
</defs>
</svg>
