<svg width="46" height="45" viewBox="0 0 46 45" fill="none" xmlns="http://www.w3.org/2000/svg">
<path d="M39.8069 5.96381H36.0117V2.1687C36.0118 0.975848 35.0358 0 33.8436 0H6.19253C4.99977 0 4.02393 0.975848 4.02393 2.1687V36.8674C4.02393 38.0602 4.99977 39.0361 6.19262 39.0361H9.98782V42.8313C9.98782 44.0241 10.9632 45 12.1565 45H30.5897C31.7819 45 33.4692 44.331 34.3372 43.5139L40.3954 37.8114C41.2644 36.9944 41.9747 35.3495 41.9747 34.1567L41.9757 8.13268C41.9756 6.93974 40.9997 5.96381 39.8069 5.96381ZM9.98764 8.13259V37.4096H6.19253C5.89872 37.4096 5.65043 37.1613 5.65043 36.8675V2.1687C5.65043 1.87488 5.89872 1.62659 6.19253 1.62659H33.8437C34.137 1.62659 34.3858 1.87488 34.3858 2.1687V5.96389H12.1563C10.9631 5.96389 9.98764 6.93974 9.98764 8.13259ZM39.2806 36.6272L33.2224 42.3293C33.0983 42.4459 32.9366 42.5602 32.7582 42.6691V37.6807C32.7582 37.3082 32.9084 36.9731 33.1562 36.7237C33.4061 36.4759 33.7412 36.3253 34.1137 36.3253H39.5381C39.454 36.4396 39.3678 36.5448 39.2806 36.6272ZM40.348 34.1565C40.348 34.3175 40.3186 34.504 40.2743 34.6986H34.1136C32.4682 34.7019 31.135 36.0351 31.1316 37.6806V43.3077C30.9381 43.3468 30.7516 43.3732 30.5895 43.3732H12.1563V43.3733C11.8619 43.3733 11.6142 43.125 11.6142 42.8312V8.1325C11.6142 7.83869 11.862 7.5904 12.1563 7.5904H39.8069C40.1007 7.5904 40.349 7.83869 40.349 8.1325L40.348 34.1565Z" fill="#002147"/>
<path d="M33.8437 13.5542H18.1209C18.0141 13.5541 17.9083 13.5751 17.8096 13.616C17.7109 13.6568 17.6212 13.7167 17.5457 13.7923C17.4702 13.8678 17.4103 13.9575 17.3694 14.0562C17.3286 14.1549 17.3076 14.2606 17.3076 14.3675C17.3076 14.4743 17.3286 14.58 17.3694 14.6787C17.4103 14.7774 17.4702 14.8671 17.5457 14.9426C17.6212 15.0181 17.7109 15.078 17.8096 15.1189C17.9083 15.1597 18.0141 15.1807 18.1209 15.1807H33.8437C34.2927 15.1807 34.657 14.8169 34.657 14.3675C34.657 13.918 34.2927 13.5542 33.8437 13.5542ZM33.8437 24.3976H18.1209C18.0141 24.3976 17.9083 24.4186 17.8096 24.4594C17.7109 24.5003 17.6212 24.5602 17.5457 24.6357C17.4702 24.7112 17.4103 24.8009 17.3694 24.8996C17.3286 24.9983 17.3076 25.1041 17.3076 25.2109C17.3076 25.3177 17.3286 25.4235 17.3694 25.5221C17.4103 25.6208 17.4702 25.7105 17.5457 25.786C17.6212 25.8616 17.7109 25.9215 17.8096 25.9623C17.9083 26.0032 18.0141 26.0242 18.1209 26.0241H33.8437C33.9505 26.0241 34.0563 26.0031 34.1549 25.9622C34.2536 25.9214 34.3433 25.8615 34.4188 25.7859C34.4943 25.7104 34.5542 25.6208 34.5951 25.5221C34.6359 25.4234 34.657 25.3177 34.657 25.2109C34.657 25.1041 34.636 24.9983 34.5951 24.8996C34.5542 24.8009 34.4943 24.7113 34.4188 24.6358C34.3433 24.5602 34.2536 24.5003 34.155 24.4595C34.0563 24.4186 33.9505 24.3976 33.8437 24.3976ZM26.7956 29.8193H18.121C17.6715 29.8193 17.3077 30.1831 17.3077 30.6326C17.3077 31.0821 17.6715 31.4458 18.121 31.4458H26.7956C27.2445 31.4458 27.6083 31.0821 27.6083 30.6326C27.6083 30.1831 27.2445 29.8193 26.7956 29.8193ZM33.8437 18.9759H18.1209C17.6714 18.9759 17.3076 19.3397 17.3076 19.7892C17.3076 20.2386 17.6715 20.6024 18.1209 20.6024H33.8437C34.2927 20.6024 34.657 20.2386 34.657 19.7892C34.657 19.3397 34.2927 18.9759 33.8437 18.9759Z" fill="#002147"/>
</svg>
