<svg width="46" height="45" viewBox="0 0 46 45" fill="none" xmlns="http://www.w3.org/2000/svg">
<g clip-path="url(#clip0_205_7603)">
<path d="M21.2448 24.5584C21.1617 24.5402 21.076 24.5373 20.9918 24.5497C20.1467 24.4514 19.5091 23.7363 19.5076 22.8857C19.5076 22.69 19.4299 22.5022 19.2914 22.3638C19.153 22.2254 18.9653 22.1476 18.7695 22.1476C18.5737 22.1476 18.386 22.2254 18.2476 22.3638C18.1091 22.5022 18.0314 22.69 18.0314 22.8857C18.0336 24.3061 18.9836 25.5503 20.3532 25.9262V26.6643C20.3532 26.8601 20.4309 27.0478 20.5694 27.1862C20.7078 27.3247 20.8955 27.4024 21.0913 27.4024C21.2871 27.4024 21.4748 27.3247 21.6132 27.1862C21.7517 27.0478 21.8294 26.8601 21.8294 26.6643V25.9708C23.4102 25.64 24.4846 24.1677 24.3185 22.5613C24.152 20.955 22.7986 19.7343 21.1836 19.7339C20.258 19.7339 19.5076 18.9835 19.5076 18.058C19.5076 17.1325 20.258 16.3821 21.1836 16.3821C22.1091 16.3821 22.8595 17.1324 22.8595 18.058C22.8595 18.2538 22.9373 18.4415 23.0757 18.5799C23.2141 18.7184 23.4019 18.7961 23.5976 18.7961C23.7934 18.7961 23.9811 18.7184 24.1196 18.5799C24.258 18.4415 24.3357 18.2538 24.3357 18.058C24.3336 16.5666 23.2888 15.2802 21.8294 14.9724V14.3006C21.8294 14.1049 21.7517 13.9171 21.6132 13.7787C21.4748 13.6403 21.2871 13.5625 21.0913 13.5625C20.8955 13.5625 20.7078 13.6403 20.5694 13.7787C20.4309 13.9171 20.3532 14.1049 20.3532 14.3006V15.0175C18.83 15.4334 17.8497 16.9122 18.0594 18.4772C18.2691 20.0421 19.6046 21.2101 21.1836 21.2098C22.0969 21.2098 22.8419 21.9411 22.8584 22.854C22.8754 23.767 22.1574 24.5252 21.2448 24.5584Z" fill="#002147"/>
<path d="M10.48 20.5278C10.48 26.4393 15.2721 31.2315 21.1836 31.2315C27.0951 31.2315 31.8872 26.4393 31.8872 20.5278C31.8872 14.6163 27.0951 9.82422 21.1836 9.82422C15.275 9.83068 10.4869 14.6192 10.48 20.5278ZM21.1836 11.3005C26.2798 11.3005 30.411 15.4316 30.411 20.5278C30.411 25.6241 26.2798 29.7552 21.1836 29.7552C16.0874 29.7552 11.9562 25.6241 11.9562 20.5278C11.9621 15.4341 16.0899 11.3063 21.1836 11.3005Z" fill="#002147"/>
<path d="M35.5258 33.0525L29.7437 35.7845C29.3515 35.055 28.7737 34.4418 28.0688 34.0068C27.3639 33.5718 26.5567 33.3304 25.7287 33.307L20.3909 33.1603C19.5455 33.1361 18.7164 32.922 17.965 32.5339L17.4219 32.2525C16.0517 31.5383 14.529 31.1662 12.9839 31.1678C11.4387 31.1694 9.91683 31.5448 8.54811 32.2618L8.58197 31.0314C8.58466 30.9344 8.56824 30.8379 8.53363 30.7474C8.49902 30.6568 8.44691 30.574 8.38028 30.5035C8.31365 30.4331 8.23379 30.3765 8.14528 30.337C8.05677 30.2974 7.96133 30.2757 7.86442 30.273L2.01123 30.112C1.91433 30.1093 1.81786 30.1258 1.72732 30.1604C1.63678 30.195 1.55394 30.2471 1.48355 30.3138C1.41316 30.3804 1.3566 30.4603 1.31708 30.5488C1.27757 30.6373 1.25588 30.7328 1.25327 30.8297L0.899701 43.6739C0.896998 43.7709 0.913419 43.8674 0.948026 43.958C0.982633 44.0485 1.03475 44.1314 1.10139 44.2018C1.16804 44.2723 1.2479 44.3289 1.33643 44.3684C1.42496 44.408 1.52042 44.4297 1.61735 44.4324L7.47044 44.5935H7.49065C7.68298 44.5935 7.86774 44.5185 8.0056 44.3844C8.14346 44.2503 8.22354 44.0677 8.22878 43.8755L8.24566 43.261L9.76621 42.4468C10.3628 42.1256 11.061 42.0492 11.7129 42.2338L20.7932 44.7822C20.8091 44.787 20.8249 44.7906 20.8412 44.7942C21.4975 44.9315 22.1662 45.0004 22.8367 45C24.2568 45.0009 25.6603 44.6946 26.9509 44.1022C26.9826 44.0877 27.0132 44.0708 27.0424 44.0517L40.2081 35.5359C40.3661 35.4336 40.4791 35.2749 40.524 35.0922C40.5689 34.9094 40.5424 34.7164 40.4498 34.5526C39.4724 32.8183 37.3045 32.1576 35.5258 33.0525ZM2.3958 42.977L2.70858 31.608L7.08588 31.7284L6.77309 43.0977L2.3958 42.977ZM26.2859 42.7838C24.6824 43.5074 22.8916 43.7073 21.168 43.3551L12.1123 40.813C11.0933 40.525 10.0023 40.6443 9.0696 41.1457L8.29253 41.562L8.5005 34.003C9.70941 33.1989 11.1119 32.734 12.5618 32.6566C14.0116 32.5793 15.4556 32.8924 16.7432 33.5633L17.2864 33.8447C18.2356 34.3348 19.2827 34.6053 20.3505 34.6363L25.6887 34.783C27.188 34.8262 28.4614 35.8937 28.7656 37.3628L20.8144 37.1433C20.4068 37.1322 20.0676 37.4536 20.0561 37.8609C20.0507 38.0566 20.1233 38.2464 20.2579 38.3887C20.3925 38.5309 20.578 38.6138 20.7738 38.6192L29.5484 38.8607H29.5689C29.7611 38.8606 29.9457 38.7855 30.0834 38.6514C30.2211 38.5173 30.3011 38.3348 30.3063 38.1427C30.3154 37.8219 30.2915 37.501 30.235 37.1851L36.1656 34.3828C36.1714 34.3803 36.1771 34.3775 36.183 34.3745C36.5937 34.1667 37.0582 34.0895 37.5141 34.1534C37.97 34.2172 38.3954 34.4191 38.7332 34.7318L26.2859 42.7838ZM21.9216 7.75036V0.73813C21.9216 0.542366 21.8439 0.354619 21.7054 0.216193C21.567 0.077767 21.3793 0 21.1835 0C20.9877 0 20.8 0.077767 20.6616 0.216193C20.5231 0.354619 20.4454 0.542366 20.4454 0.73813V7.75036C20.4454 7.94613 20.5231 8.13387 20.6616 8.2723C20.8 8.41073 20.9877 8.48849 21.1835 8.48849C21.3793 8.48849 21.567 8.41073 21.7054 8.2723C21.8439 8.13387 21.9216 7.94613 21.9216 7.75036ZM27.4576 7.75036V4.42878C27.4576 4.23302 27.3798 4.04527 27.2414 3.90684C27.103 3.76842 26.9152 3.69065 26.7195 3.69065C26.5237 3.69065 26.336 3.76842 26.1975 3.90684C26.0591 4.04527 25.9814 4.23302 25.9814 4.42878V7.75036C25.9814 7.94613 26.0591 8.13387 26.1975 8.2723C26.336 8.41073 26.5237 8.48849 26.7195 8.48849C26.9152 8.48849 27.103 8.41073 27.2414 8.2723C27.3798 8.13387 27.4576 7.94613 27.4576 7.75036ZM16.3857 7.75036V4.42878C16.3857 4.23302 16.3079 4.04527 16.1695 3.90684C16.031 3.76842 15.8433 3.69065 15.6475 3.69065C15.4518 3.69065 15.264 3.76842 15.1256 3.90684C14.9872 4.04527 14.9094 4.23302 14.9094 4.42878V7.75036C14.9094 7.94613 14.9872 8.13387 15.1256 8.2723C15.264 8.41073 15.4518 8.48849 15.6475 8.48849C15.8433 8.48849 16.031 8.41073 16.1695 8.2723C16.3079 8.13387 16.3857 7.94613 16.3857 7.75036Z" fill="#002147"/>
</g>
<defs>
<clipPath id="clip0_205_7603">
<rect width="45" height="45" fill="white" transform="translate(0.833008)"/>
</clipPath>
</defs>
</svg>
