<svg width="48" height="48" viewBox="0 0 48 48" fill="none" xmlns="http://www.w3.org/2000/svg">
<g clip-path="url(#clip0_205_4767)">
<g clip-path="url(#clip1_205_4767)">
<path d="M46.3078 10.7028C46.3038 10.6371 46.2909 10.5723 46.2693 10.5101C46.2613 10.486 46.255 10.4628 46.2448 10.4394C46.2081 10.3579 46.1573 10.2835 46.0946 10.2198L37.0946 1.21975C37.0308 1.15672 36.9562 1.10582 36.8742 1.06956C36.8518 1.05925 36.8292 1.05306 36.806 1.045C36.7426 1.02309 36.6764 1.00994 36.6094 1.00591C36.5966 1.00844 36.583 1 36.5672 1H14.0672C11.9974 1.00253 10.3199 2.67981 10.3172 4.75V10.2699C5.16136 12.5437 1.83398 17.6472 1.83398 23.2824C1.83398 28.9177 5.16136 34.0213 10.3172 36.295V42.25C10.3199 44.3202 11.9974 45.9975 14.0672 46H42.5672C44.6374 45.9975 46.3151 44.3202 46.3172 42.25V10.75C46.3172 10.7335 46.3092 10.7193 46.3078 10.7028ZM43.7567 10H38.0672C37.8683 10 37.6776 9.92098 37.5369 9.78033C37.3963 9.63968 37.3172 9.44891 37.3172 9.25V3.5605L43.7567 10ZM3.34973 23.2825C3.34751 21.6075 3.67579 19.9486 4.31575 18.4007C4.95571 16.8528 5.89478 15.4463 7.07917 14.2619C8.26356 13.0775 9.66999 12.1385 11.2179 11.4985C12.7658 10.8586 14.4248 10.5303 16.0997 10.5325C16.526 10.5325 16.949 10.5533 17.3665 10.594C23.1659 11.1671 27.8331 15.6093 28.6922 21.3731C28.7918 22.0048 28.8442 22.643 28.849 23.2825C28.8544 25.6843 28.1757 28.038 26.8924 30.0683C25.8748 31.6907 24.5032 33.0617 22.8805 34.0788C18.9514 36.5462 13.9922 36.6847 9.93164 34.4398C5.87114 32.1953 3.35039 27.922 3.34973 23.2825ZM24.8104 34.5489C24.9128 34.4702 25.0143 34.3902 25.1147 34.3091C25.485 34.011 25.8394 33.6942 26.1775 33.3602C26.5115 33.0225 26.8281 32.668 27.1263 32.2982C27.208 32.1979 27.2867 32.0957 27.3662 31.9932C27.4571 31.8745 27.5556 31.7621 27.6423 31.6413L34.0361 38.0426C34.2457 38.2502 34.4121 38.4973 34.5257 38.7696C34.6392 39.0419 34.6977 39.334 34.6978 39.629C34.6977 39.9241 34.6392 40.2163 34.5256 40.4886C34.412 40.761 34.2456 41.0082 34.036 41.2158C33.1505 42.0717 31.7461 42.0717 30.8607 41.2158L24.4585 34.8251C24.5794 34.7372 24.6925 34.6398 24.8104 34.5489ZM42.5672 44.5H14.0672C12.8247 44.5 11.8172 43.4926 11.8172 42.25V36.8807C11.8637 36.8957 11.9125 36.9055 11.9597 36.9198C12.0798 36.9564 12.2014 36.9857 12.323 37.0194C12.6035 37.0944 12.8863 37.1696 13.1719 37.2257C13.3122 37.2549 13.4524 37.2819 13.5941 37.3068C13.8797 37.3571 14.168 37.3966 14.4572 37.4299C14.5866 37.4446 14.714 37.4629 14.8437 37.4739C15.2593 37.5094 15.6775 37.5325 16.0997 37.5325C18.5788 37.5345 21.0149 36.8854 23.1643 35.6502L29.7957 42.2749C30.2524 42.7749 30.8361 43.1418 31.4846 43.3367C32.1331 43.5316 32.8223 43.5472 33.479 43.3819C34.1358 43.2168 34.7355 42.8769 35.2146 42.3982C35.6937 41.9196 36.0342 41.3202 36.1999 40.6636C36.3658 40.007 36.3508 39.3177 36.1564 38.669C35.962 38.0203 35.5955 37.4363 35.0958 36.9792L28.4674 30.3466C29.7027 28.1973 30.3518 25.7613 30.3497 23.2824C30.3497 22.8074 30.327 22.3361 30.2809 21.8688C29.9609 18.5922 28.5104 15.5292 26.1782 13.2054C24.8577 11.8779 23.287 10.8256 21.557 10.1093C19.827 9.39298 17.9721 9.027 16.0997 9.0325C15.6775 9.0325 15.2593 9.05594 14.8437 9.09109C14.714 9.10234 14.5855 9.12034 14.4565 9.13534C14.168 9.16759 13.8812 9.20866 13.5956 9.25844C13.4531 9.28328 13.311 9.31047 13.1697 9.34C12.8877 9.39869 12.6079 9.4675 12.3303 9.54409C12.2058 9.57784 12.0813 9.60784 11.9553 9.64516C11.9088 9.65941 11.8616 9.66934 11.8151 9.68434V4.75C11.8151 3.50744 12.8225 2.5 14.0651 2.5H35.8172V9.25C35.8172 10.4926 36.8247 11.5 38.0672 11.5H44.8172V42.25C44.8172 43.4926 43.8102 44.5 42.5672 44.5Z" fill="#002147"/>
<path d="M32.8174 6.25C32.8174 6.05109 32.7384 5.86032 32.5977 5.71967C32.4571 5.57902 32.2663 5.5 32.0674 5.5H15.5674C15.3685 5.5 15.1777 5.57902 15.0371 5.71967C14.8964 5.86032 14.8174 6.05109 14.8174 6.25C14.8174 6.44891 14.8964 6.63968 15.0371 6.78033C15.1777 6.92098 15.3685 7 15.5674 7H32.0674C32.2663 7 32.4571 6.92098 32.5977 6.78033C32.7384 6.63968 32.8174 6.44891 32.8174 6.25ZM41.0674 19H32.0674C31.8685 19 31.6777 19.079 31.5371 19.2197C31.3964 19.3603 31.3174 19.5511 31.3174 19.75C31.3174 19.9489 31.3964 20.1397 31.5371 20.2803C31.6777 20.421 31.8685 20.5 32.0674 20.5H41.0674C41.2663 20.5 41.4571 20.421 41.5977 20.2803C41.7384 20.1397 41.8174 19.9489 41.8174 19.75C41.8174 19.5511 41.7384 19.3603 41.5977 19.2197C41.4571 19.079 41.2663 19 41.0674 19ZM41.0674 23.5H32.0674C31.8685 23.5 31.6777 23.579 31.5371 23.7197C31.3964 23.8603 31.3174 24.0511 31.3174 24.25C31.3174 24.4489 31.3964 24.6397 31.5371 24.7803C31.6777 24.921 31.8685 25 32.0674 25H41.0674C41.2663 25 41.4571 24.921 41.5977 24.7803C41.7384 24.6397 41.8174 24.4489 41.8174 24.25C41.8174 24.0511 41.7384 23.8603 41.5977 23.7197C41.4571 23.579 41.2663 23.5 41.0674 23.5ZM41.8174 28.75C41.8174 28.5511 41.7384 28.3603 41.5977 28.2197C41.4571 28.079 41.2663 28 41.0674 28H31.3174C31.1185 28 30.9277 28.079 30.7871 28.2197C30.6464 28.3603 30.5674 28.5511 30.5674 28.75C30.5674 28.9489 30.6464 29.1397 30.7871 29.2803C30.9277 29.421 31.1185 29.5 31.3174 29.5H41.0674C41.2663 29.5 41.4571 29.421 41.5977 29.2803C41.7384 29.1397 41.8174 28.9489 41.8174 28.75ZM41.8174 33.25C41.8174 33.0511 41.7384 32.8603 41.5977 32.7197C41.4571 32.579 41.2663 32.5 41.0674 32.5H34.3174C34.1185 32.5 33.9277 32.579 33.7871 32.7197C33.6464 32.8603 33.5674 33.0511 33.5674 33.25C33.5674 33.4489 33.6464 33.6397 33.7871 33.7803C33.9277 33.921 34.1185 34 34.3174 34H41.0674C41.2663 34 41.4571 33.921 41.5977 33.7803C41.7384 33.6397 41.8174 33.4489 41.8174 33.25ZM32.8174 10.75C32.8174 10.5511 32.7384 10.3603 32.5977 10.2197C32.4571 10.079 32.2663 10 32.0674 10H26.0674C25.8685 10 25.6777 10.079 25.5371 10.2197C25.3964 10.3603 25.3174 10.5511 25.3174 10.75C25.3174 10.9489 25.3964 11.1397 25.5371 11.2803C25.6777 11.421 25.8685 11.5 26.0674 11.5H32.0674C32.2663 11.5 32.4571 11.421 32.5977 11.2803C32.7384 11.1397 32.8174 10.9489 32.8174 10.75ZM41.8174 15.25C41.8174 15.0511 41.7384 14.8603 41.5977 14.7197C41.4571 14.579 41.2663 14.5 41.0674 14.5H29.8174C29.6185 14.5 29.4277 14.579 29.2871 14.7197C29.1464 14.8603 29.0674 15.0511 29.0674 15.25C29.0674 15.4489 29.1464 15.6397 29.2871 15.7803C29.4277 15.921 29.6185 16 29.8174 16H41.0674C41.2663 16 41.4571 15.921 41.5977 15.7803C41.7384 15.6397 41.8174 15.4489 41.8174 15.25ZM13.3174 19.75H18.5674C18.7663 19.75 18.9571 19.671 19.0977 19.5303C19.2384 19.3897 19.3174 19.1989 19.3174 19C19.3174 18.8011 19.2384 18.6103 19.0977 18.4697C18.9571 18.329 18.7663 18.25 18.5674 18.25H13.3174C13.1185 18.25 12.9277 18.329 12.7871 18.4697C12.6464 18.6103 12.5674 18.8011 12.5674 19C12.5674 19.1989 12.6464 19.3897 12.7871 19.5303C12.9277 19.671 13.1185 19.75 13.3174 19.75ZM22.3174 23.5C22.3174 23.3011 22.2384 23.1103 22.0977 22.9697C21.9571 22.829 21.7663 22.75 21.5674 22.75H10.3174C10.1185 22.75 9.92771 22.829 9.78705 22.9697C9.6464 23.1103 9.56738 23.3011 9.56738 23.5C9.56738 23.6989 9.6464 23.8897 9.78705 24.0303C9.92771 24.171 10.1185 24.25 10.3174 24.25H21.5674C21.7663 24.25 21.9571 24.171 22.0977 24.0303C22.2384 23.8897 22.3174 23.6989 22.3174 23.5ZM18.5674 27.25H13.3174C13.1185 27.25 12.9277 27.329 12.7871 27.4697C12.6464 27.6103 12.5674 27.8011 12.5674 28C12.5674 28.1989 12.6464 28.3897 12.7871 28.5303C12.9277 28.671 13.1185 28.75 13.3174 28.75H18.5674C18.7663 28.75 18.9571 28.671 19.0977 28.5303C19.2384 28.3897 19.3174 28.1989 19.3174 28C19.3174 27.8011 19.2384 27.6103 19.0977 27.4697C18.9571 27.329 18.7663 27.25 18.5674 27.25Z" fill="#002147"/>
<path d="M21.4388 33.1743C23.268 32.2001 24.7847 30.7289 25.8143 28.9302C25.8736 28.8265 25.938 28.7262 25.9937 28.6211C26.0227 28.5669 26.0454 28.5109 26.0732 28.4567C26.1871 28.2377 26.298 28.0187 26.3962 27.7945C26.4947 27.5705 26.5719 27.3573 26.6521 27.1369C26.6753 27.0731 26.7046 27.0109 26.7272 26.9465C28.6344 21.4002 25.9612 15.3188 20.5852 12.9747C15.2088 10.6306 8.93382 12.8103 6.1682 17.9823C5.29763 19.6117 4.84428 21.4314 4.84866 23.2788C4.84173 27.2427 6.92363 30.9169 10.3276 32.9479C13.7315 34.9792 17.9536 35.0668 21.4389 33.1786L21.4388 33.1743ZM11.4263 31.8379C10.6099 31.3929 9.86193 30.8326 9.20541 30.1743C8.74991 29.7191 8.34002 29.2205 7.9816 28.6855C7.80514 28.4214 7.64163 28.1489 7.49166 27.869C5.23435 23.6066 6.43041 18.3342 10.306 15.4635C14.1817 12.5929 19.5737 12.9854 22.9929 16.3871C26.0212 19.4438 26.7024 24.1182 24.6728 27.9121V27.9184C23.7784 29.5915 22.4075 30.9616 20.7339 31.8551C19.305 32.6313 17.7043 33.0367 16.0782 33.0342C14.4522 33.0317 12.8527 32.6214 11.4263 31.8409V31.8379ZM42.5677 36.9993C42.3688 36.9993 42.178 37.0783 42.0373 37.2189C41.8967 37.3596 41.8177 37.5504 41.8177 37.7493V40.7493C41.8177 40.9482 41.7386 41.139 41.598 41.2796C41.4573 41.4203 41.2666 41.4993 41.0677 41.4993H38.0677C37.8688 41.4993 37.678 41.5783 37.5373 41.7189C37.3967 41.8596 37.3177 42.0504 37.3177 42.2493C37.3177 42.4482 37.3967 42.639 37.5373 42.7796C37.678 42.9203 37.8688 42.9993 38.0677 42.9993H41.0677C42.3106 42.9993 43.3177 41.9918 43.3177 40.7493V37.7493C43.3177 37.5504 43.2386 37.3596 43.098 37.2189C42.9573 37.0783 42.7666 36.9993 42.5677 36.9993Z" fill="#002147"/>
</g>
</g>
<defs>
<clipPath id="clip0_205_4767">
<rect width="45" height="45" fill="white" transform="translate(1.33301 1)"/>
</clipPath>
<clipPath id="clip1_205_4767">
<rect width="45" height="45" fill="white" transform="translate(1.83398 1)"/>
</clipPath>
</defs>
</svg>
