<svg width="59" height="59" viewBox="0 0 59 59" fill="none" xmlns="http://www.w3.org/2000/svg">
<g clip-path="url(#clip0_157_2769)">
<path d="M30.1082 0.65625H27.6504C12.3795 0.65625 0 13.0358 0 28.3067V30.7645C0 46.0354 12.3795 58.4149 27.6504 58.4149H30.1082C45.3791 58.4149 57.7586 46.0354 57.7586 30.7645V28.3067C57.7586 13.0358 45.3791 0.65625 30.1082 0.65625Z" fill="#EBF3FC"/>
<g clip-path="url(#clip1_157_2769)">
<path d="M38.3302 26.6687C38.1455 26.6687 37.965 26.688 37.7824 26.6974C39.0089 24.9272 39.6651 22.8244 39.6631 20.6708C39.6631 14.7818 34.8891 10.0078 29.0001 10.0078C23.1111 10.0078 18.337 14.7818 18.337 20.6708C18.3349 22.8213 18.9892 24.9213 20.2124 26.69C20.0318 26.6808 19.8518 26.6687 19.6699 26.6687C14.4685 26.6658 10.024 30.4163 9.15192 35.5441C8.27987 40.672 11.235 45.6807 16.145 47.3973C21.055 49.1139 26.4871 47.0374 29 42.4833C31.513 47.0374 36.9451 49.1139 41.8551 47.3973C46.7651 45.6807 49.7201 40.672 48.8481 35.5441C47.9762 30.4163 43.5316 26.6658 38.3302 26.6687ZM19.6699 20.6708C19.6699 15.5179 23.8471 11.3406 29 11.3406C34.1529 11.3406 38.3302 15.5179 38.3302 20.6708C38.3195 25.0681 35.2491 28.8651 30.9514 29.7956C29.7216 30.0541 28.4525 30.063 27.2193 29.8216C25.8188 28.4186 24.0584 27.4293 22.1318 26.9626C20.5453 25.2519 19.6657 23.0039 19.6699 20.6708ZM29.0034 32.1868C28.8355 31.8836 28.6562 31.587 28.4609 31.3058C28.6408 31.3145 28.8188 31.3338 29 31.3338C29.1813 31.3338 29.3665 31.3145 29.5505 31.3051C29.3535 31.5897 29.1709 31.884 29.0034 32.1868ZM19.6699 46.6619C14.9859 46.6647 11.0257 43.1942 10.414 38.5503C9.80224 33.9065 12.7284 29.5288 17.2534 28.3185C21.7783 27.1082 26.4992 29.4404 28.2875 33.7696C27.4603 36.0726 27.4603 38.5916 28.2875 40.8945C26.8354 44.3744 23.4405 46.6462 19.6699 46.6619ZM38.3302 46.6619C34.4742 46.6473 31.0197 44.2753 29.6211 40.6819C28.3405 37.3818 29.0534 33.6404 31.4578 31.0425C33.3929 30.5877 35.1596 29.5941 36.5534 28.1769C37.1386 28.061 37.7336 28.0024 38.3302 28.0016C43.4831 28.0016 47.6603 32.1789 47.6603 37.3318C47.6603 42.4847 43.483 46.6619 38.3302 46.6619Z" fill="#002147"/>
<path d="M22.3353 34.6636C22.3353 34.8404 22.4055 35.0099 22.5305 35.1349C22.6555 35.2598 22.825 35.33 23.0017 35.33C23.1785 35.33 23.348 35.2598 23.473 35.1349C23.5979 35.0099 23.6681 34.8404 23.6681 34.6636C23.6681 33.0162 22.224 31.6473 20.3359 31.3814V29.9985C20.3359 29.8218 20.2657 29.6523 20.1407 29.5273C20.0158 29.4023 19.8463 29.3321 19.6695 29.3321C19.4928 29.3321 19.3233 29.4023 19.1983 29.5273C19.0733 29.6523 19.0031 29.8218 19.0031 29.9985V31.3814C17.1151 31.6479 15.6709 33.0161 15.6709 34.6636C15.6709 36.311 17.1151 37.6799 19.0031 37.9459V41.9238C17.8569 41.6999 17.0038 40.9241 17.0038 39.9952C17.0038 39.8184 16.9336 39.6489 16.8086 39.5239C16.6836 39.399 16.5141 39.3287 16.3374 39.3287C16.1606 39.3287 15.9911 39.399 15.8662 39.5239C15.7412 39.6489 15.671 39.8184 15.671 39.9952C15.671 41.6426 17.1152 43.0115 19.0032 43.2774V44.6603C19.0032 44.837 19.0734 45.0065 19.1984 45.1315C19.3234 45.2565 19.4929 45.3267 19.6696 45.3267C19.8463 45.3267 20.0159 45.2565 20.1408 45.1315C20.2658 45.0065 20.336 44.837 20.336 44.6603V43.2774C22.224 43.0108 23.6682 41.6426 23.6682 39.9952C23.6682 38.3478 22.224 36.9788 20.336 36.7129V32.735C21.4823 32.9589 22.3353 33.7346 22.3353 34.6636ZM17.0038 34.6636C17.0038 33.7346 17.8569 32.9589 19.0031 32.735V36.5923C17.8569 36.3684 17.0038 35.5927 17.0038 34.6636ZM22.3353 39.9952C22.3353 40.9241 21.4823 41.6999 20.336 41.9238V38.0664C21.4823 38.2904 22.3353 39.0661 22.3353 39.9952ZM38.9962 32.6643C39.6122 32.6755 40.216 32.8374 40.7549 33.136C41.2937 33.4346 41.7512 33.8607 42.0872 34.3771C42.1371 34.449 42.2007 34.5104 42.2743 34.5578C42.3479 34.6052 42.4301 34.6376 42.5163 34.6532C42.6024 34.6688 42.6908 34.6672 42.7763 34.6487C42.8619 34.6301 42.9429 34.5949 43.0149 34.545C43.0868 34.4951 43.1482 34.4315 43.1956 34.3579C43.243 34.2843 43.2754 34.2021 43.291 34.1159C43.3065 34.0298 43.305 33.9414 43.2865 33.8559C43.2679 33.7703 43.2327 33.6893 43.1828 33.6173C42.7251 32.923 42.1041 32.3515 41.3742 31.953C40.6443 31.5544 39.8278 31.3411 38.9962 31.3315C36.6285 31.4234 34.5952 33.043 33.9759 35.3301H32.3318C32.1551 35.3301 31.9856 35.4003 31.8606 35.5253C31.7356 35.6503 31.6654 35.8198 31.6654 35.9965C31.6654 36.1733 31.7356 36.3428 31.8606 36.4678C31.9856 36.5927 32.1551 36.6629 32.3318 36.6629H33.6993C33.678 36.8822 33.6646 37.1041 33.6646 37.3294C33.6646 37.5546 33.678 37.7765 33.6993 37.9958H32.3318C32.1551 37.9958 31.9856 38.066 31.8606 38.191C31.7356 38.3159 31.6654 38.4854 31.6654 38.6622C31.6654 38.8389 31.7356 39.0084 31.8606 39.1334C31.9856 39.2584 32.1551 39.3286 32.3318 39.3286H33.9759C34.5952 41.6157 36.6285 43.2353 38.9962 43.3272C39.8278 43.3176 40.6443 43.1042 41.3742 42.7057C42.1041 42.3072 42.7251 41.7357 43.1828 41.0414C43.2835 40.8961 43.3224 40.7167 43.2909 40.5428C43.2594 40.3688 43.1601 40.2145 43.0149 40.1137C42.8696 40.013 42.6902 39.9741 42.5163 40.0055C42.3423 40.037 42.188 40.1363 42.0872 40.2816C41.7512 40.798 41.2937 41.2241 40.7549 41.5227C40.216 41.8212 39.6122 41.9832 38.9962 41.9944C37.3627 41.9247 35.9351 40.8698 35.3888 39.3287H38.9962C39.173 39.3287 39.3425 39.2585 39.4675 39.1335C39.5924 39.0085 39.6627 38.839 39.6627 38.6623C39.6627 38.4855 39.5924 38.316 39.4675 38.191C39.3425 38.0661 39.173 37.9958 38.9962 37.9958H35.0429C34.9825 37.5536 34.9825 37.1052 35.0429 36.6629H38.9962C39.173 36.6629 39.3425 36.5927 39.4675 36.4678C39.5924 36.3428 39.6627 36.1733 39.6627 35.9965C39.6627 35.8198 39.5924 35.6503 39.4675 35.5253C39.3425 35.4003 39.173 35.3301 38.9962 35.3301H35.3888C35.6558 34.5768 36.142 33.9205 36.7848 33.4454C37.4276 32.9704 38.1977 32.6984 38.9962 32.6643ZM28.6885 26C29.4057 26.3794 30.2054 26.5763 31.0168 26.5733C31.8282 26.5703 32.6264 26.3674 33.3408 25.9826C33.4928 25.8923 33.6027 25.7453 33.6464 25.574C33.69 25.4026 33.6637 25.221 33.5734 25.069C33.4831 24.917 33.3361 24.8071 33.1647 24.7634C32.9934 24.7198 32.8117 24.7461 32.6597 24.8364C32.1424 25.1063 31.567 25.246 30.9834 25.2434C30.3999 25.2407 29.8258 25.0957 29.3109 24.8211C28.8213 24.5214 28.2706 24.3359 27.6995 24.2782C27.1284 24.2205 26.5516 24.2922 26.012 24.4878C26.1865 23.4451 26.2894 22.3917 26.3199 21.3349H30.3325C30.5092 21.3349 30.6787 21.2647 30.8037 21.1397C30.9287 21.0148 30.9989 20.8453 30.9989 20.6685C30.9989 20.4918 30.9287 20.3223 30.8037 20.1973C30.6787 20.0723 30.5092 20.0021 30.3325 20.0021H26.3339V18.41C26.3339 16.7537 27.6765 15.411 29.3328 15.411C30.9892 15.411 32.3318 16.7537 32.3318 18.41C32.3318 18.5867 32.402 18.7562 32.527 18.8812C32.652 19.0062 32.8215 19.0764 32.9982 19.0764C33.175 19.0764 33.3445 19.0062 33.4694 18.8812C33.5944 18.7562 33.6646 18.5867 33.6646 18.41C33.6646 16.0176 31.7252 14.0781 29.3328 14.0781C26.9403 14.0781 25.0009 16.0175 25.0009 18.41V20.0021H23.668C23.4913 20.0021 23.3217 20.0723 23.1968 20.1973C23.0718 20.3223 23.0016 20.4918 23.0016 20.6685C23.0016 20.8453 23.0718 21.0148 23.1968 21.1397C23.3217 21.2647 23.4913 21.3349 23.668 21.3349H24.9802C24.9335 22.8789 24.7235 24.4136 24.3538 25.9134C24.3278 26.0179 24.3276 26.1272 24.3532 26.2319C24.3787 26.3366 24.4293 26.4335 24.5005 26.5144C24.5717 26.5952 24.6615 26.6576 24.7621 26.6961C24.8627 26.7347 24.9712 26.7483 25.0782 26.7357C25.1775 26.7217 25.2728 26.6877 25.3585 26.6356C25.4442 26.5836 25.5185 26.5148 25.5767 26.4332C26.3953 25.4668 27.4129 25.3242 28.6885 26Z" fill="#002147"/>
</g>
</g>
<defs>
<clipPath id="clip0_157_2769">
<rect width="58.2114" height="58.2114" fill="white" transform="translate(0 0.210938)"/>
</clipPath>
<clipPath id="clip1_157_2769">
<rect width="40" height="40" fill="white" transform="translate(9 9)"/>
</clipPath>
</defs>
</svg>
