<svg width="73" height="73" viewBox="0 0 73 73" fill="none" xmlns="http://www.w3.org/2000/svg">
<g clip-path="url(#clip0_1066_1202)">
<rect x="0.384766" y="0.928711" width="72" height="72" rx="36" fill="white" fill-opacity="0.07"/>
<g clip-path="url(#clip1_1066_1202)">
<path d="M53.9997 31.5172V29.9319C53.9975 29.7704 53.9207 29.587 53.7491 29.4831L37.3828 19.3932C36.5304 18.8676 35.4713 18.8676 34.6189 19.3932L18.2526 29.4831C18.1163 29.5698 18.0004 29.7313 18.002 29.9319V31.5172C17.9922 32.7573 19.1054 33.7599 20.3548 33.6297C20.1946 33.9244 20.1108 34.2546 20.1113 34.59C20.1113 35.7323 21.0758 36.6602 22.2205 36.6049V43.2179C22.2205 43.3577 22.2761 43.4919 22.3749 43.5907C22.4738 43.6896 22.608 43.7452 22.7478 43.7452C22.8877 43.7452 23.0218 43.6896 23.1207 43.5907C23.2196 43.4919 23.2751 43.3577 23.2751 43.2179V36.6049H26.4566V48.8556H23.2751V45.6787C23.2751 45.5388 23.2196 45.4047 23.1207 45.3058C23.0218 45.2069 22.8877 45.1514 22.7478 45.1514C22.608 45.1514 22.4738 45.2069 22.3749 45.3058C22.2761 45.4047 22.2205 45.5388 22.2205 45.6787V48.8556C21.0807 48.8195 20.1113 49.7119 20.1113 50.8705C20.1108 51.2059 20.1946 51.5361 20.3548 51.8307H19.2324C18.554 51.8307 18.002 52.3834 18.002 53.0626V53.7672C18.002 54.4464 18.554 54.999 19.2324 54.999H52.7693C53.4477 54.999 53.9997 54.4464 53.9997 53.7672V53.0626C53.9997 52.3834 53.4477 51.8307 52.7693 51.8307H51.6469C51.8071 51.5361 51.8909 51.2059 51.8905 50.8705C51.8905 49.7187 50.9255 48.8067 49.7812 48.8556V36.6049C50.9141 36.6406 51.8905 35.7494 51.8905 34.59C51.8905 34.2426 51.8022 33.9154 51.6469 33.6298C52.8679 33.7044 54.0089 32.8102 53.9997 31.5172ZM22.123 35.5503C21.5952 35.5503 21.1659 35.1195 21.1659 34.59C21.1659 34.0606 21.5952 33.6298 22.123 33.6298H27.6088C28.1366 33.6298 28.5659 34.0606 28.5659 34.59C28.5659 35.1195 28.1366 35.5503 27.6088 35.5503H22.123ZM29.377 33.6298H31.4898C31.3296 33.9245 31.2459 34.2546 31.2463 34.59C31.2463 35.7324 32.2108 36.6603 33.3555 36.6049V48.8557C32.216 48.82 31.2463 49.7117 31.2463 50.8706C31.2459 51.206 31.3296 51.5361 31.4898 51.8308H29.377C29.5372 51.5361 29.621 51.206 29.6206 50.8706C29.6206 49.7188 28.6556 48.8068 27.5113 48.8557V36.6049C28.6447 36.6406 29.6206 35.7494 29.6206 34.59C29.6206 34.2426 29.5322 33.9154 29.377 33.6298ZM40.512 33.6298H42.6248C42.4646 33.9245 42.3808 34.2546 42.3812 34.59C42.3812 35.7324 43.3458 36.6603 44.4905 36.6049V48.8557C43.3512 48.8204 42.3812 49.7115 42.3812 50.8706C42.3808 51.206 42.4646 51.5361 42.6248 51.8308H40.512C40.6722 51.5361 40.7559 51.206 40.7555 50.8706C40.7555 49.7188 39.7905 48.8068 38.6463 48.8557V36.6049C39.7793 36.6407 40.7555 35.7494 40.7555 34.59C40.7555 34.2426 40.6672 33.9154 40.512 33.6298ZM38.7438 49.9102C39.2715 49.9102 39.7009 50.341 39.7009 50.8705C39.7009 51.4 39.2715 51.8307 38.7438 51.8307H33.2581C32.7303 51.8307 32.301 51.4 32.301 50.8705C32.301 50.341 32.7303 49.9102 33.2581 49.9102H38.7438ZM34.4101 48.8556V36.6049H37.5916V48.8557H34.4101V48.8556ZM38.7438 35.5503H33.2581C32.7303 35.5503 32.301 35.1195 32.301 34.59C32.301 34.0606 32.7303 33.6298 33.2581 33.6298H38.7438C39.2715 33.6298 39.7009 34.0606 39.7009 34.59C39.7009 35.1195 39.2715 35.5503 38.7438 35.5503ZM22.123 49.9102H27.6088C28.1366 49.9102 28.5659 50.341 28.5659 50.8705C28.5659 51.4 28.1366 51.8307 27.6088 51.8307H22.123C21.5952 51.8307 21.1659 51.4 21.1659 50.8705C21.1659 50.341 21.5952 49.9102 22.123 49.9102ZM52.7693 52.8854C52.8662 52.8854 52.9451 52.9649 52.9451 53.0626V53.7672C52.9451 53.8649 52.8662 53.9444 52.7693 53.9444H19.2324C19.1355 53.9444 19.0566 53.8649 19.0566 53.7672V53.0626C19.0566 52.9649 19.1355 52.8854 19.2324 52.8854H52.7693ZM49.8787 49.9102C50.4065 49.9102 50.8359 50.341 50.8359 50.8705C50.8359 51.4 50.4065 51.8307 49.8787 51.8307H44.393C43.8652 51.8307 43.4359 51.4 43.4359 50.8705C43.4359 50.341 43.8652 49.9102 44.393 49.9102H49.8787ZM45.5451 48.8556V36.6049H48.7266V48.8557H45.5451V48.8556ZM49.8787 35.5503H44.393C43.8652 35.5503 43.4359 35.1195 43.4359 34.59C43.4359 34.0606 43.8652 33.6298 44.393 33.6298H49.8787C50.4065 33.6298 50.8359 34.0606 50.8359 34.59C50.8358 35.1195 50.4065 35.5503 49.8787 35.5503ZM20.1113 32.5752C19.5297 32.5752 19.0566 32.1006 19.0566 31.5172V30.4592H43.4191C43.5589 30.4592 43.693 30.4037 43.7919 30.3048C43.8908 30.2059 43.9464 30.0718 43.9464 29.9319C43.9464 29.7921 43.8908 29.658 43.7919 29.5591C43.693 29.4602 43.5589 29.4046 43.4191 29.4046H20.3895L35.1724 20.2909C35.6835 19.9759 36.3184 19.9759 36.8294 20.2909L51.6122 29.4046H45.8798C45.74 29.4046 45.6059 29.4602 45.507 29.5591C45.4081 29.658 45.3525 29.7921 45.3525 29.9319C45.3525 30.0718 45.4081 30.2059 45.507 30.3048C45.6059 30.4037 45.74 30.4592 45.8798 30.4592H52.9451V31.5172C52.9451 32.1005 52.472 32.5751 51.8905 32.5751H20.1113V32.5752ZM35.5118 23.3926H37.2235C37.3634 23.3926 37.4975 23.337 37.5964 23.2381C37.6953 23.1393 37.7508 23.0051 37.7508 22.8653C37.7508 22.7254 37.6953 22.5913 37.5964 22.4924C37.4975 22.3935 37.3634 22.338 37.2235 22.338H36.5282V21.9441C36.5282 21.8042 36.4726 21.6701 36.3737 21.5712C36.2748 21.4723 36.1407 21.4168 36.0009 21.4168C35.861 21.4168 35.7269 21.4723 35.628 21.5712C35.5291 21.6701 35.4735 21.8042 35.4735 21.9441V22.34C34.7961 22.362 34.2509 22.9593 34.2509 23.6922V24.2435C34.2509 24.5935 34.3744 24.9255 34.5986 25.1782C34.8352 25.4449 35.168 25.5979 35.5118 25.5978H36.4898C36.5874 25.5978 36.6961 25.7208 36.6961 25.8975V26.4489C36.6961 26.6255 36.5874 26.7486 36.4898 26.7486H34.7781C34.6383 26.7486 34.5042 26.8042 34.4053 26.903C34.3064 27.0019 34.2508 27.1361 34.2508 27.2759C34.2508 27.4158 34.3064 27.5499 34.4053 27.6488C34.5042 27.7477 34.6383 27.8032 34.7781 27.8032H35.4735V28.1971C35.4735 28.3369 35.529 28.4711 35.6279 28.5699C35.7268 28.6688 35.8609 28.7244 36.0008 28.7244C36.1406 28.7244 36.2748 28.6688 36.3737 28.5699C36.4725 28.4711 36.5281 28.3369 36.5281 28.1971V27.8012C37.2056 27.7792 37.7508 27.1818 37.7508 26.4489V25.8976C37.7508 25.1508 37.1851 24.5432 36.4898 24.5432H35.5117C35.3673 24.5391 35.3068 24.368 35.3054 24.2435V23.6922C35.3056 23.5156 35.4143 23.3926 35.5118 23.3926Z" fill="white"/>
</g>
</g>
<defs>
<clipPath id="clip0_1066_1202">
<rect width="72" height="72" fill="white" transform="translate(0.384766 0.928711)"/>
</clipPath>
<clipPath id="clip1_1066_1202">
<rect width="36" height="36" fill="white" transform="translate(18 18.999)"/>
</clipPath>
</defs>
</svg>
